<?xml version="1.0" standalone="no"?>
<!DOCTYPE svg PUBLIC "-//W3C//DTD SVG 20010904//EN"
 "http://www.w3.org/TR/2001/REC-SVG-20010904/DTD/svg10.dtd">
<svg version="1.0" xmlns="http://www.w3.org/2000/svg"
 width="1024.000000pt" height="937.000000pt" viewBox="0 0 1024.000000 937.000000"
 preserveAspectRatio="xMidYMid meet">
<metadata>
Created by potrace 1.16, written by Peter Selinger 2001-2019
</metadata>
<g transform="translate(0.000000,937.000000) scale(0.100000,-0.100000)"
fill="#000000" stroke="none">
<path d="M0 4685 l0 -4685 5120 0 5120 0 0 4685 0 4685 -5120 0 -5120 0 0
-4685z m3707 3045 c78 -10 152 -22 165 -25 13 -3 48 -8 78 -10 65 -4 714 -78
880 -100 63 -9 187 -24 275 -35 267 -32 634 -79 745 -95 89 -13 222 -29 705
-85 239 -28 527 -63 700 -85 241 -31 416 -52 550 -66 241 -24 523 -59 567 -70
30 -8 40 -18 59 -55 21 -45 22 -50 13 -267 -9 -247 -12 -2855 -3 -2902 3 -16
1 -40 -4 -52 -6 -14 -6 -32 1 -53 8 -22 8 -38 1 -54 -8 -16 -8 -34 0 -62 7
-25 7 -42 1 -48 -6 -6 -9 -242 -8 -650 2 -451 4 -564 8 -381 5 253 6 249 10
-180 8 -835 10 -800 -53 -830 -36 -17 -62 -20 -302 -35 -256 -16 -371 -27
-1180 -110 -223 -23 -208 -23 -200 -9 4 6 -2 13 -14 16 -44 11 -18 24 45 22
36 -1 69 2 72 8 4 5 30 14 57 19 30 6 49 14 47 22 -2 14 10 15 63 2 46 -12
208 -2 199 11 -3 5 1 9 8 9 97 0 280 12 341 23 83 15 109 27 59 27 -17 0 -33
4 -36 9 -9 14 31 44 46 35 7 -5 43 -7 80 -5 50 2 75 -2 98 -15 29 -18 58 -11
30 6 -18 11 -10 21 19 23 11 1 21 5 21 9 0 10 92 0 127 -13 28 -10 66 26 43
41 -31 19 4 23 51 7 55 -20 70 -17 62 14 -8 29 -42 39 -136 40 -55 0 -75 3
-62 9 11 5 36 9 56 9 20 1 51 4 70 8 28 5 30 7 14 14 -11 4 -37 8 -57 8 -21 1
-38 5 -38 10 0 5 27 7 60 5 37 -2 58 0 55 6 -3 6 0 10 7 11 7 0 -5 6 -27 13
-22 7 -39 18 -38 24 3 12 -15 18 -177 57 -176 43 -183 46 -172 57 8 8 19 8 39
-1 34 -13 383 -91 411 -91 23 0 32 18 32 66 0 19 4 34 9 34 5 0 9 -16 9 -36 0
-19 2 -37 4 -39 2 -3 29 -7 59 -11 53 -6 54 -6 68 26 7 17 18 29 24 27 7 -2
20 5 31 15 19 17 20 41 24 753 4 671 3 735 -12 735 -20 0 -20 11 1 47 16 29
12 90 -6 79 -4 -3 -11 39 -14 93 -5 101 -21 148 -43 130 -7 -5 -10 -19 -7 -29
3 -11 0 -20 -6 -20 -6 0 -11 -6 -11 -14 0 -15 -24 -29 -33 -19 -3 3 -1 16 4
30 10 28 6 39 -10 29 -6 -4 -9 -23 -8 -44 2 -20 -1 -45 -6 -56 -15 -31 -26 1
-20 60 5 50 4 53 -15 47 -18 -4 -21 -1 -20 27 1 19 8 36 19 43 13 8 15 15 7
24 -6 7 -17 13 -24 13 -8 0 -14 7 -14 15 0 11 -7 13 -29 9 -20 -4 -30 -2 -34
10 -4 9 -16 16 -28 16 -12 0 -19 5 -17 13 5 14 60 19 69 5 8 -13 49 12 49 29
0 7 7 13 15 13 9 0 15 9 15 25 0 22 -3 24 -24 15 -18 -6 -36 -4 -65 8 -37 15
-56 42 -31 42 6 0 16 11 22 25 6 14 16 24 22 23 18 -4 56 22 56 37 0 8 5 15
10 15 6 0 10 12 10 26 0 23 -2 25 -15 14 -9 -7 -18 -10 -22 -7 -3 4 -15 0 -26
-8 -14 -10 -25 -11 -39 -4 -10 6 -27 7 -38 4 -24 -8 -60 11 -60 30 0 9 10 15
24 15 21 0 31 9 34 33 1 4 14 19 29 32 27 24 27 25 9 40 -17 12 -18 18 -8 40
14 29 16 85 4 85 -4 0 -12 -4 -17 -9 -10 -9 -42 -14 -82 -12 -25 1 -33 31 -9
31 8 0 22 17 33 38 14 29 16 45 9 70 -9 32 -30 43 -39 20 -4 -10 -8 -10 -15 0
-8 11 -10 11 -15 -1 -6 -17 -45 -29 -53 -16 -3 5 4 9 15 9 12 0 21 7 21 15 0
27 35 82 49 77 10 -3 12 2 7 21 -7 29 8 46 18 20 6 -14 9 -15 15 -4 5 7 14 10
20 6 9 -5 9 -10 1 -20 -8 -9 -6 -14 5 -19 9 -3 15 -1 14 7 -3 28 2 58 9 53 12
-7 54 93 55 132 1 29 17 48 17 20 0 -9 4 -8 10 2 5 8 10 55 10 104 0 109 17
106 23 -4 2 -52 3 -40 4 40 0 63 -1 106 -4 95 -3 -11 -8 -24 -13 -28 -7 -8
-80 29 -80 42 0 7 38 32 44 29 2 -2 13 5 24 15 20 18 21 18 24 -10 2 -15 6 8
9 52 2 44 1 103 -2 130 l-6 50 -1 -51 c-1 -28 -5 -53 -8 -56 -8 -9 -84 26 -84
38 0 13 23 24 51 24 21 0 22 6 13 73 -4 26 -10 44 -14 42 -5 -3 -6 -13 -4 -23
7 -25 -39 -44 -63 -26 -17 13 -15 16 25 52 45 42 51 56 26 66 -18 7 -10 45 14
62 9 7 16 24 17 40 0 41 25 43 26 2 1 -25 3 -20 10 21 5 29 8 234 7 455 l-3
401 -22 -3 c-13 -2 -23 2 -23 7 0 6 6 11 13 12 6 0 23 1 37 3 l25 1 -3 -446
c-2 -438 -2 -446 18 -464 27 -24 40 -11 47 46 3 24 13 50 22 57 14 11 16 58
19 407 3 346 1 395 -12 395 -10 0 -17 15 -21 48 -3 26 -7 54 -8 62 -3 21 -64
22 -73 1 -5 -11 -9 -6 -13 19 -5 29 -11 36 -36 41 l-30 6 27 7 c15 4 32 5 37
1 6 -3 11 -2 11 4 0 14 -23 17 -114 11 -78 -5 -81 -6 -83 -30 0 -14 -1 -31 -2
-39 -1 -10 -10 -12 -31 -7 -22 4 -32 1 -36 -9 -7 -16 -70 -85 -78 -85 -16 0
-3 36 25 71 17 21 26 39 20 39 -6 0 -15 -9 -21 -20 -6 -11 -18 -19 -27 -18 -8
2 -25 -9 -36 -24 -20 -27 -20 -28 -3 -47 18 -20 18 -20 -35 -15 -30 3 -79 10
-109 15 -66 12 -154 20 -275 24 -148 5 -256 17 -252 28 1 5 63 22 137 38 74
15 189 39 255 54 66 14 154 32 195 41 41 8 85 17 98 20 12 2 22 11 22 19 0 17
16 20 25 4 5 -7 14 -4 25 9 11 12 45 24 85 32 36 7 63 15 60 18 -3 3 5 12 17
19 21 11 18 12 -32 13 -48 1 -53 2 -37 14 25 19 15 22 -176 46 -279 36 -668
94 -557 84 81 -7 261 -18 290 -16 14 0 40 4 58 7 26 6 31 5 27 -8 -7 -17 50
-29 250 -52 166 -19 179 -19 171 0 -3 8 4 21 16 29 37 26 31 43 -18 51 -25 3
-42 10 -39 15 9 14 -14 23 -66 25 -26 2 -53 6 -59 10 -6 4 -31 4 -56 0 -26 -3
-44 -2 -44 3 0 6 -10 12 -22 15 -34 9 -949 124 -1168 147 -47 5 -139 16 -205
24 -66 8 -154 17 -195 21 -186 15 -734 81 -970 115 -36 5 -146 19 -245 30 -99
11 -232 27 -295 35 -63 8 -216 26 -340 40 -124 14 -279 35 -345 46 -66 11
-134 22 -152 25 -17 2 -33 0 -35 -6 -3 -10 -269 13 -289 26 -4 2 -16 0 -26 -5
-15 -9 -238 -79 -268 -85 -18 -4 -187 -57 -305 -96 -63 -20 -200 -63 -305 -95
-104 -32 -276 -86 -381 -121 -106 -35 -201 -64 -212 -64 -11 0 -25 -7 -32 -15
-7 -8 -20 -15 -29 -15 -23 0 -182 -57 -195 -70 -8 -8 -7 -11 4 -8 8 2 14 -3
13 -9 -5 -22 49 -41 102 -36 46 4 48 3 30 -10 -18 -14 -14 -16 50 -22 38 -4
80 -12 94 -16 20 -7 17 -8 -14 -4 -118 13 -213 16 -236 7 l-27 -11 -6 -253
c-3 -139 -1 -449 5 -688 6 -239 12 -637 13 -884 2 -406 4 -450 19 -461 12 -9
17 -28 18 -66 1 -90 14 -151 38 -170 27 -22 28 -42 1 -34 -14 4 -20 2 -20 -8
0 -25 39 -65 70 -72 23 -5 30 -12 30 -31 0 -28 -16 -32 -23 -6 -4 14 -5 14 -6
1 -1 -21 37 -64 57 -64 11 0 18 -10 20 -27 2 -16 9 -28 18 -28 8 0 14 -9 14
-20 0 -12 -7 -20 -16 -20 -11 0 -14 -5 -10 -16 5 -14 1 -16 -25 -10 -18 3 -39
15 -47 27 -13 19 -15 19 -28 2 -20 -27 -17 -49 11 -67 33 -21 32 -34 -2 -38
-22 -2 -29 -9 -31 -30 -3 -26 -22 -41 -22 -17 0 6 -7 9 -15 5 -9 -3 -15 0 -15
9 0 8 -7 15 -15 15 -14 0 -20 -23 -16 -64 1 -11 -3 -22 -9 -26 -14 -8 15 -80
33 -81 6 0 2 -4 -10 -9 -22 -9 -33 -52 -31 -130 0 -19 -2 -84 -6 -145 -3 -60
-6 -222 -6 -359 0 -137 -2 -247 -5 -244 -3 2 -8 164 -11 358 -5 273 -9 357
-19 367 -21 21 -25 16 -24 -29 0 -31 3 -37 8 -24 5 14 10 16 15 7 10 -15 -1
-61 -14 -61 -6 0 -10 -39 -10 -92 0 -62 3 -88 10 -78 8 12 10 12 15 -2 10 -26
1 -73 -12 -71 -14 3 -14 50 -13 -826 0 -526 3 -601 26 -636 12 -17 14 -2 14
112 0 73 4 134 8 137 8 5 15 -104 15 -202 -1 -47 13 -61 44 -43 10 6 12 11 6
11 -15 0 -18 20 -4 20 5 0 17 -7 25 -16 14 -13 34 -14 134 -9 64 3 133 8 152
11 22 4 31 2 25 -4 -5 -5 -75 -17 -155 -27 -80 -9 -146 -18 -148 -19 -1 -2 17
-8 40 -15 72 -22 89 -31 83 -41 -4 -7 -11 -7 -18 -2 -11 8 -124 42 -141 42 -4
0 -4 -5 0 -11 4 -8 -12 -10 -52 -7 l-59 3 0 -50 0 -50 53 2 c56 3 62 -2 35
-23 -12 -9 -14 -13 -5 -14 23 0 102 -40 102 -51 0 -7 20 -9 60 -5 46 4 60 2
60 -8 0 -8 7 -17 16 -20 8 -3 12 -11 8 -17 -5 -8 1 -10 19 -6 14 4 39 1 58 -9
l34 -15 -30 6 c-51 10 -7 -13 70 -36 39 -12 75 -25 80 -29 15 -12 357 -123
380 -124 11 0 26 -6 33 -13 7 -7 23 -13 36 -13 12 0 26 -4 32 -10 5 -5 48 -23
94 -39 47 -16 128 -46 180 -66 107 -42 336 -115 353 -114 8 0 8 2 0 6 -7 2
-13 9 -13 14 0 5 10 4 23 -2 12 -7 23 -11 25 -10 6 6 68 -13 95 -29 33 -20 28
-21 317 11 96 10 279 30 405 44 127 14 298 34 380 45 153 20 304 38 385 45 45
3 73 7 185 25 33 5 114 14 180 21 66 6 123 13 127 15 4 3 5 11 1 19 -7 20 7
19 22 -1 8 -12 20 -15 39 -10 15 4 24 10 22 15 -3 5 11 11 31 14 28 5 40 2 46
-8 6 -11 13 -13 27 -5 10 5 67 9 127 9 98 -1 103 -2 53 -10 -30 -5 -127 -15
-215 -24 -88 -8 -194 -19 -235 -25 -41 -5 -133 -16 -205 -25 -71 -8 -170 -22
-220 -30 -49 -8 -184 -24 -300 -35 -115 -12 -262 -28 -325 -36 -63 -8 -209
-26 -325 -40 -291 -34 -412 -52 -465 -70 -34 -10 -57 -12 -90 -5 -49 10 -179
56 -250 88 -66 30 -187 72 -192 67 -3 -2 -22 5 -44 15 -21 10 -57 24 -79 31
-22 7 -53 19 -70 26 -16 6 -46 14 -65 17 -32 4 -258 76 -305 97 -11 4 -50 19
-87 31 -36 13 -65 26 -63 30 5 7 -61 27 -85 26 -8 0 -105 30 -215 66 -110 37
-224 75 -254 84 -80 27 -94 50 -98 173 -1 55 1 100 5 100 15 0 19 1112 7 1710
-3 173 -6 394 -5 490 0 96 2 812 5 1590 5 1642 -13 1449 136 1493 52 15 152
46 222 69 71 22 131 38 133 35 3 -3 -17 -13 -45 -22 -28 -9 -54 -21 -57 -27
-4 -6 1 -8 14 -4 11 4 53 16 94 27 118 33 649 211 644 217 -3 2 -33 -5 -68
-17 -35 -12 -117 -37 -183 -56 -66 -20 -144 -43 -173 -52 -29 -9 -55 -14 -58
-11 -2 3 35 18 83 33 48 15 98 31 111 36 74 29 647 216 857 279 39 12 75 23
80 25 21 7 55 4 192 -15z m86 -197 c-7 -2 -19 -2 -25 0 -7 3 -2 5 12 5 14 0
19 -2 13 -5z m-403 -7 c0 -3 -4 -8 -10 -11 -5 -3 -10 -1 -10 4 0 6 5 11 10 11
6 0 10 -2 10 -4z m480 -5 c0 -4 -11 -6 -25 -3 -14 2 -25 6 -25 8 0 2 11 4 25
4 14 0 25 -4 25 -9z m50 -11 c0 -5 -2 -10 -4 -10 -3 0 -8 5 -11 10 -3 6 -1 10
4 10 6 0 11 -4 11 -10z m103 0 c38 -9 329 -42 367 -42 8 0 53 -6 100 -13 101
-16 220 -31 350 -45 52 -5 194 -21 315 -35 121 -14 288 -32 370 -40 174 -17
365 -42 415 -54 l35 -9 -45 -1 c-48 -1 -281 23 -605 63 -110 13 -252 29 -315
36 -63 6 -144 15 -180 20 -36 5 -137 16 -225 24 -605 58 -634 63 -635 99 0 9
3 9 53 -3z m70 -77 c-7 -2 -19 -2 -25 0 -7 3 -2 5 12 5 14 0 19 -2 13 -5z
m-684 -93 c12 0 9 -6 -9 -20 -14 -10 -28 -16 -31 -12 -3 4 -3 34 0 67 l5 60
10 -47 c6 -33 14 -48 25 -48z m849 80 c88 -12 135 -32 52 -23 -30 3 -89 12
-130 18 -93 16 -34 19 78 5z m21 -46 c63 -7 117 -17 120 -20 3 -3 -14 -3 -39
0 -25 3 -101 11 -170 17 -69 6 -134 15 -145 20 -24 11 71 4 234 -17z m131 16
c0 -13 -11 -13 -30 0 -12 8 -11 10 8 10 12 0 22 -4 22 -10z m-2050 -30 c-8 -5
-22 -9 -30 -9 -10 0 -8 3 5 9 27 12 43 12 25 0z m950 -59 c-8 -5 -67 -25 -130
-44 -358 -109 -671 -208 -710 -225 l-45 -19 45 -11 45 -10 -41 -1 c-59 -1
-104 9 -104 25 0 8 29 22 73 35 107 31 314 94 473 145 320 101 444 134 394
105z m2717 -37 c-3 -3 -12 -4 -19 -1 -8 3 -5 6 6 6 11 1 17 -2 13 -5z m-2231
-29 c6 -24 -9 -55 -27 -55 -15 0 -40 47 -33 64 10 26 53 20 60 -9z m1846 5
c54 -5 103 -10 109 -10 7 0 10 -3 7 -6 -10 -9 -278 18 -278 28 0 5 15 6 33 4
17 -3 76 -10 129 -16z m465 14 c-3 -3 -12 -4 -19 -1 -8 3 -5 6 6 6 11 1 17 -2
13 -5z m-2203 -20 c20 -8 21 -38 2 -53 -18 -15 -40 11 -31 39 7 22 7 22 29 14z
m137 -20 c21 -26 18 -49 -7 -50 -16 -1 -24 5 -28 23 -11 41 10 57 35 27z m129
-48 c-16 -21 -30 -20 -46 2 -10 14 -10 20 4 35 15 17 17 17 36 -2 16 -17 17
-23 6 -35z m2460 35 c42 -8 42 -9 10 -9 -19 0 -55 3 -80 7 -42 8 -42 9 -10 9
19 0 55 -3 80 -7z m93 -18 c-7 -2 -21 -2 -30 0 -10 3 -4 5 12 5 17 0 24 -2 18
-5z m264 -29 c-3 -3 -12 -4 -19 -1 -8 3 -5 6 6 6 11 1 17 -2 13 -5z m76 -11
c-7 -2 -19 -2 -25 0 -7 3 -2 5 12 5 14 0 19 -2 13 -5z m80 -10 c-7 -2 -21 -2
-30 0 -10 3 -4 5 12 5 17 0 24 -2 18 -5z m-3033 -22 c0 -6 -4 -13 -10 -16 -5
-3 -10 1 -10 9 0 9 5 16 10 16 6 0 10 -4 10 -9z m200 -21 c0 -5 -7 -10 -15
-10 -8 0 -15 5 -15 10 0 6 7 10 15 10 8 0 15 -4 15 -10z m105 -60 c19 -3 18
-10 -2 -10 -11 0 -27 7 -34 17 -13 15 -12 15 6 6 11 -6 25 -12 30 -13z m55
-10 c0 -5 -2 -10 -4 -10 -3 0 -8 5 -11 10 -3 6 -1 10 4 10 6 0 11 -4 11 -10z
m1793 -57 c-7 -2 -21 -2 -30 0 -10 3 -4 5 12 5 17 0 24 -2 18 -5z m143 -14 c4
-7 -11 -9 -52 -4 -77 10 -81 15 -11 15 31 0 59 -5 63 -11z m433 -4 c83 -5 110
-27 94 -77 -9 -26 -11 -28 -12 -11 -1 16 -6 21 -16 17 -10 -4 -15 0 -15 11 0
10 5 14 13 9 6 -4 9 -3 4 1 -4 5 -70 9 -147 9 -97 1 -143 5 -151 14 -7 6 -40
13 -73 13 -34 1 -74 5 -91 9 -16 5 42 6 129 2 127 -4 158 -3 151 7 -6 10 0 12
21 7 16 -3 58 -8 93 -11z m68 9 c-3 -3 -12 -4 -19 -1 -8 3 -5 6 6 6 11 1 17
-2 13 -5z m-3522 -73 c3 -5 1 -12 -5 -16 -5 -3 -10 1 -10 9 0 18 6 21 15 7z
m2432 -17 c-3 -3 -12 -4 -19 -1 -8 3 -5 6 6 6 11 1 17 -2 13 -5z m1053 -31 c0
-5 -5 -15 -10 -23 -7 -11 -12 -12 -21 -3 -6 6 -8 16 -5 22 8 12 36 15 36 4z
m-113 -45 c7 17 23 15 23 -2 0 -20 -14 -27 -59 -31 -21 -1 -43 -5 -49 -9 -6
-3 -33 -3 -60 0 -30 3 -53 1 -57 -5 -10 -16 -25 -13 -19 4 3 8 9 14 12 13 4
-1 21 5 37 12 17 7 54 14 84 17 30 2 57 6 60 8 2 3 9 0 14 -7 7 -10 10 -10 14
0z m-1342 -59 c39 -5 90 -11 115 -12 57 -3 133 -40 156 -75 10 -15 39 -49 66
-75 50 -49 56 -75 14 -56 -31 15 -130 -5 -173 -34 -18 -12 -33 -25 -33 -28 0
-3 14 -15 31 -28 28 -21 32 -21 54 -7 68 44 216 62 273 32 48 -25 159 -156
132 -156 -5 0 -10 4 -10 10 0 5 -11 12 -25 16 -18 4 -33 -1 -55 -20 -27 -22
-34 -24 -53 -13 -12 6 -25 16 -28 21 -4 5 -17 1 -30 -8 -13 -9 -18 -16 -11
-16 6 0 14 -11 18 -25 7 -30 12 -30 44 -8 l25 16 -23 -25 c-17 -19 -21 -32
-16 -56 12 -59 -24 -35 -45 29 -6 20 -23 47 -36 59 -14 13 -25 27 -25 31 0 5
32 18 71 30 67 20 69 22 53 40 -38 43 -136 49 -207 13 -17 -9 -34 -18 -36 -20
-1 -1 8 -18 22 -36 35 -45 84 -154 93 -203 9 -55 -8 -34 -29 35 -9 30 -28 69
-42 85 -18 21 -23 23 -16 8 14 -28 14 -36 0 -28 -5 4 -14 18 -19 31 -11 27
-41 32 -60 9 -9 -10 -9 -15 -1 -15 8 0 8 -7 -1 -22 -7 -13 -14 -24 -14 -26 -1
-1 -14 2 -30 9 -41 16 -74 18 -74 5 0 -6 -7 -19 -14 -29 -12 -16 -20 -17 -52
-8 -25 7 -42 7 -48 1 -15 -15 -36 -12 -30 4 3 8 -5 21 -17 30 -27 18 -37 13
-19 -9 7 -9 11 -18 8 -20 -3 -3 -22 23 -43 57 -22 35 -71 93 -109 130 -53 50
-68 70 -60 78 9 9 17 9 32 1 32 -17 78 -13 133 10 45 20 59 36 43 52 -3 3 -18
1 -32 -4 -15 -5 -52 -10 -82 -12 -51 -2 -55 0 -56 21 -2 24 23 31 43 11 8 -8
19 -7 39 4 16 8 51 18 77 22 26 4 49 11 52 15 8 13 -97 54 -140 54 -30 1 -52
-8 -87 -33 -46 -33 -48 -33 -90 -21 -24 7 -60 13 -80 14 -21 0 -38 3 -38 7 0
20 115 82 194 107 138 42 193 47 301 31z m1103 0 c-2 -6 -8 -10 -13 -10 -5 0
-11 4 -13 10 -2 6 4 11 13 11 9 0 15 -5 13 -11z m-4148 -24 c-20 -24 -9 -551
12 -568 20 -16 30 -45 17 -53 -5 -3 -7 -15 -4 -25 6 -18 -10 -111 -23 -133
-11 -20 -9 -83 4 -103 18 -28 18 -34 -1 -27 -13 5 -15 -6 -15 -70 0 -62 3 -78
16 -83 15 -6 15 -7 -1 -19 -17 -13 -13 -54 6 -54 5 0 9 -4 9 -10 0 -5 -7 -10
-15 -10 -13 0 -15 -86 -15 -717 0 -394 -3 -714 -6 -711 -3 4 -7 197 -9 430 -4
569 -4 555 -14 540 -6 -11 -10 -10 -15 4 -5 12 -1 23 11 32 17 12 18 53 19
791 1 429 5 784 8 790 4 6 12 11 18 11 6 0 6 -6 -2 -15z m5500 -35 c0 -5 -5
-10 -11 -10 -5 0 -7 5 -4 10 3 6 8 10 11 10 2 0 4 -4 4 -10z m-910 -14 c0 5
23 9 50 9 56 0 64 -8 23 -23 -24 -9 -20 -10 29 -9 65 1 77 -5 55 -28 -17 -17
-171 -50 -187 -40 -11 7 -13 64 -4 89 5 13 9 14 20 5 8 -6 14 -8 14 -3z m365
4 c-11 -5 -29 -8 -40 -8 -16 0 -15 2 5 8 34 11 60 11 35 0z m-3906 -67 l26 -7
-30 -6 c-29 -5 -29 -5 -27 -72 1 -37 -2 -70 -8 -73 -6 -4 -10 21 -10 69 0 84
6 77 -81 91 -43 6 -67 -13 -51 -41 6 -10 6 -30 1 -50 -9 -30 -6 -362 3 -464 4
-46 26 -100 28 -70 2 21 28 -50 29 -77 1 -18 -5 -23 -23 -23 -29 0 -36 -29
-29 -120 5 -62 23 -110 23 -62 0 12 4 22 9 22 5 0 9 -6 8 -12 -1 -34 5 -45 34
-62 17 -10 33 -15 36 -12 5 5 12 245 13 440 0 22 3 36 8 32 8 -9 9 -27 11
-261 2 -201 9 -235 51 -253 34 -15 50 -9 50 19 0 10 5 19 10 19 6 0 10 -7 10
-16 0 -11 6 -13 19 -9 18 5 19 2 16 -35 -3 -36 -1 -41 23 -47 15 -4 35 -6 45
-4 20 3 21 -3 7 -30 -8 -15 -7 -23 4 -34 17 -18 30 -20 20 -4 -4 8 -1 8 12 1
14 -7 25 -6 39 4 23 17 35 18 35 3 0 -6 7 -17 15 -26 12 -12 19 -13 30 -3 8 7
15 19 15 26 0 8 5 14 10 14 7 0 7 -6 0 -19 -14 -27 -13 -31 10 -31 25 0 68
-20 73 -34 7 -17 -11 -143 -23 -166 -7 -14 -8 -26 0 -40 8 -15 5 -25 -20 -54
-27 -30 -30 -41 -26 -75 2 -23 1 -41 -4 -41 -4 0 -10 -9 -13 -20 -3 -13 -11
-18 -20 -14 -11 4 -14 16 -10 45 5 37 -9 56 -20 27 -2 -7 -7 -10 -11 -6 -4 3
-3 15 3 26 13 24 15 72 3 72 -4 0 -13 -5 -19 -11 -9 -9 -12 -4 -11 20 1 25 5
31 17 26 11 -3 10 0 -3 10 -11 8 -28 15 -38 15 -21 0 -22 4 -8 30 7 13 6 19
-6 24 -11 4 -12 10 -4 25 7 13 7 22 0 26 -5 3 -10 18 -10 33 0 52 -22 5 -27
-59 -3 -35 -12 -72 -21 -81 -8 -10 -12 -27 -9 -39 4 -15 0 -23 -14 -26 -16 -4
-19 -13 -16 -47 1 -22 6 -47 10 -53 5 -7 4 -13 -1 -13 -6 0 -12 7 -16 15 -8
23 -23 18 -30 -11 -5 -19 0 -35 20 -62 l28 -35 -34 -29 c-41 -34 -54 -36 -47
-6 4 12 4 48 0 79 -5 47 -8 56 -23 52 -25 -7 -32 10 -20 43 9 22 8 31 -4 43
-14 14 -20 12 -52 -19 l-37 -35 6 60 c3 33 11 61 17 63 5 2 10 11 10 20 0 12
-3 13 -12 4 -7 -7 -16 -12 -20 -12 -12 0 -10 58 3 82 10 18 8 19 -11 13 -19
-6 -21 -5 -11 13 10 20 10 29 -6 70 -3 9 -5 25 -4 34 2 12 -3 16 -13 12 -9 -3
-16 -12 -16 -19 0 -7 -7 -18 -15 -25 -10 -9 -13 -24 -8 -56 4 -32 2 -44 -7
-44 -9 0 -11 -12 -6 -46 5 -40 4 -45 -9 -34 -12 10 -15 10 -15 -2 0 -8 4 -18
10 -24 13 -13 1 -54 -17 -54 -8 0 -13 -6 -10 -12 15 -42 17 -58 8 -58 -15 0
-14 -36 2 -60 8 -15 9 -23 1 -28 -6 -4 -10 -26 -9 -49 1 -39 -1 -42 -29 -46
-32 -5 -49 8 -41 31 2 6 0 12 -5 12 -6 0 -10 14 -10 31 0 32 -27 69 -38 53
-35 -52 -38 -53 -75 -47 -30 4 -35 8 -26 19 6 8 20 14 30 14 10 0 24 9 31 20
7 11 21 20 32 20 15 0 17 5 12 34 -4 20 -2 37 4 41 5 3 10 13 10 21 0 9 -5 12
-11 8 -8 -4 -9 3 -4 26 7 31 6 33 -16 26 -13 -4 -45 -10 -71 -13 -39 -5 -48
-3 -48 10 0 24 22 32 36 13 11 -16 14 -15 30 15 9 18 23 40 31 47 10 10 11 17
4 22 -8 4 -5 13 9 25 21 19 27 45 9 45 -6 0 -8 9 -4 20 4 12 2 20 -6 20 -6 0
-17 7 -23 15 -10 14 -15 14 -45 -1 -24 -12 -38 -14 -55 -6 -12 5 -36 7 -52 4
-27 -5 -28 -4 -15 12 9 11 23 15 37 12 24 -6 55 19 32 26 -8 3 -6 13 8 34 12
16 28 50 36 76 l15 48 -25 -7 c-14 -3 -33 -14 -43 -24 -22 -22 -39 -24 -64 -6
-17 13 -16 14 11 20 33 7 69 68 51 86 -7 7 6 27 41 61 28 27 55 50 61 50 5 0
12 8 15 18 3 9 19 26 36 37 36 24 36 29 8 86 -16 31 -21 58 -19 92 2 32 -3 56
-14 73 -16 25 -16 27 9 52 15 15 32 34 39 43 6 10 22 20 35 24 19 5 22 3 22
-20 0 -15 4 -24 10 -20 6 4 10 90 10 225 l0 220 24 15 c19 13 32 14 70 5 56
-12 66 -8 67 28 1 26 1 26 12 -6 7 -22 18 -35 36 -39z m4921 -19 c0 -19 -4
-33 -8 -30 -5 3 -8 15 -6 28 1 13 3 26 3 31 1 4 3 7 6 7 3 0 5 -16 5 -36z
m-3500 -6 c58 -12 111 -26 118 -31 6 -5 12 -22 12 -38 0 -32 10 -44 96 -110
58 -44 182 -185 172 -195 -3 -2 -11 2 -18 11 -28 34 -26 11 5 -52 18 -38 36
-81 40 -98 9 -44 -9 -18 -23 31 -19 64 -84 158 -125 177 -45 22 -47 21 -48 -5
-1 -22 -1 -22 -12 3 -14 31 -36 59 -47 59 -4 0 -15 -17 -23 -37 -11 -26 -16
-31 -16 -18 -1 25 -103 88 -135 83 -25 -4 -40 -70 -31 -133 5 -36 4 -38 -8
-20 -23 33 -37 86 -31 112 5 19 9 21 15 11 5 -7 9 -8 9 -3 0 6 -13 25 -30 43
-19 21 -30 44 -30 62 0 15 -5 30 -12 32 -8 3 -4 13 11 29 33 35 41 53 31 70
-15 22 -44 -2 -51 -42 l-6 -34 -11 28 c-7 16 -16 26 -20 23 -5 -3 -20 -7 -35
-10 -20 -3 -30 1 -37 15 -10 17 -5 22 42 43 29 14 62 23 73 20 11 -2 67 -14
125 -26z m2998 21 c16 -10 17 -33 11 -317 -6 -330 -1 -525 12 -516 5 3 9 -9 9
-26 0 -18 -4 -29 -10 -25 -16 10 -11 -35 5 -52 11 -10 14 -25 9 -48 -3 -19 0
-51 6 -71 12 -34 11 -39 -9 -55 -18 -15 -21 -28 -22 -106 0 -82 -15 -201 -18
-143 -1 18 -4 21 -12 13 -9 -9 -19 -4 -39 19 -18 20 -34 29 -44 25 -9 -4 -16
-1 -16 5 0 6 -3 8 -6 5 -4 -4 -3 -12 3 -19 16 -21 14 -58 -3 -58 -12 0 -11 -6
6 -27 l22 -28 -28 -11 c-29 -12 -40 -49 -17 -58 23 -9 14 -22 -24 -34 -43 -13
-51 -9 -32 14 18 22 22 144 5 144 -22 0 -58 32 -48 42 6 6 8 17 5 24 -3 8 1
21 8 30 19 23 21 94 3 94 -8 0 -14 10 -14 26 0 25 -24 31 -26 6 -1 -7 -2 -16
-3 -22 0 -5 -6 -10 -13 -10 -6 0 -19 -7 -29 -16 -18 -17 -79 -28 -79 -15 0 5
-10 11 -22 14 -18 5 -19 8 -8 22 10 12 16 13 27 3 17 -14 33 4 33 38 0 12 7
27 15 34 8 7 15 20 15 29 0 9 5 22 11 28 8 8 8 17 -1 33 -9 17 -14 19 -26 9
-19 -16 -114 -18 -114 -2 0 6 10 20 23 30 13 10 36 42 51 72 30 61 26 71 -32
71 l-33 0 28 43 c16 23 38 60 48 82 11 22 24 43 29 46 12 9 -6 34 -24 34 -8 0
-15 7 -15 15 0 23 -18 38 -41 35 -17 -1 -19 3 -16 25 5 35 -13 70 -37 70 -19
0 -46 52 -33 65 4 3 0 10 -8 15 -12 8 -12 10 3 16 9 3 17 14 17 24 0 10 6 20
14 23 14 6 28 77 14 77 -4 0 -8 -4 -8 -10 0 -5 -5 -10 -11 -10 -7 0 -8 16 -3
47 6 44 6 47 -9 34 -11 -9 -17 -10 -17 -2 0 6 -11 11 -25 11 -33 0 -76 21 -68
33 4 7 -1 8 -13 3 -10 -4 -40 -10 -65 -12 -25 -2 -85 -12 -133 -23 -48 -10
-89 -15 -91 -10 -7 10 0 14 65 32 47 13 124 25 207 32 12 1 28 6 35 12 7 6 38
14 68 18 81 10 160 31 247 67 54 22 103 34 158 38 44 4 88 8 98 8 9 1 25 -3
35 -9z m-4279 -25 c9 -8 -65 -2 -84 7 -13 6 -4 7 30 3 28 -4 52 -8 54 -10z
m1681 -4 c0 -12 -48 -25 -58 -16 -8 9 18 26 41 26 9 0 17 -4 17 -10z m-1557
-17 c-7 -2 -19 -2 -25 0 -7 3 -2 5 12 5 14 0 19 -2 13 -5z m-389 -22 c3 -5 0
-14 -8 -20 -11 -9 -15 -7 -19 9 -5 20 16 29 27 11z m1826 -11 c0 -5 -9 -10
-20 -10 -11 0 -20 5 -20 10 0 6 9 10 20 10 11 0 20 -4 20 -10z m-1610 -64 c0
-3 -4 -8 -10 -11 -5 -3 -10 -1 -10 4 0 6 5 11 10 11 6 0 10 -2 10 -4z m1175
-6 c3 -5 13 -6 22 -3 13 5 15 2 10 -18 -4 -13 -7 -37 -7 -53 0 -23 -4 -27 -19
-23 -11 3 -29 -2 -41 -10 -37 -26 -44 -2 -16 61 24 54 38 67 51 46z m-1295
-55 c0 -8 -4 -15 -10 -15 -5 0 -10 7 -10 15 0 8 5 15 10 15 6 0 10 -7 10 -15z
m-4 -95 c0 -27 -5 -51 -9 -52 -9 -3 -18 92 -10 105 11 18 21 -7 19 -53z m1544
-81 c0 -16 -7 -9 -25 25 -14 26 -25 52 -25 59 0 6 11 -5 25 -25 14 -20 25 -47
25 -59z m2130 45 c0 -6 -7 -31 -16 -55 -12 -32 -17 -81 -18 -182 l-1 -138 -29
5 c-34 7 -42 13 -32 23 4 4 15 2 25 -4 17 -11 18 -4 17 118 -1 121 -7 141 -19
55 -7 -55 -19 -58 -16 -3 2 25 1 49 -2 51 -3 3 -17 -1 -32 -9 -30 -15 -59 -14
-65 3 -2 8 8 12 28 12 30 0 32 2 28 31 -4 24 0 33 16 40 19 9 18 9 -4 4 -125
-25 -220 -50 -220 -57 0 -5 5 -6 10 -3 6 4 10 -5 10 -20 0 -19 -4 -26 -13 -22
-11 4 -10 -8 3 -56 22 -80 32 -179 18 -175 -5 2 -12 31 -14 63 -6 75 -18 119
-47 170 -22 38 -25 40 -82 45 -77 7 -63 12 120 45 83 15 164 32 180 40 71 30
155 41 155 19z m-3672 -95 c-2 -24 -7 -44 -12 -44 -9 0 -16 83 -8 98 10 20 23
-14 20 -54z m2620 4 c71 -112 146 -285 188 -433 6 -22 5 -23 -10 -11 -9 7 -16
24 -16 37 0 25 -12 56 -87 214 -65 138 -88 157 -121 100 -12 -21 -27 -31 -54
-35 -29 -5 -35 -10 -31 -23 4 -12 -2 -10 -20 7 -33 30 -34 41 -2 41 41 0 71
20 95 63 18 32 21 44 11 58 -14 24 -14 29 3 29 8 0 27 -21 44 -47z m-428 12
c16 -19 1 -19 -24 0 -16 12 -17 15 -4 15 8 0 21 -7 28 -15z m-870 -55 c0 -27
-4 -50 -10 -50 -5 0 -10 5 -10 11 0 7 -10 9 -25 5 -22 -6 -25 -3 -25 23 0 22
5 30 25 35 14 4 25 11 25 16 0 6 5 10 10 10 6 0 10 -22 10 -50z m850 10 c0 -5
-2 -10 -4 -10 -3 0 -8 5 -11 10 -3 6 -1 10 4 10 6 0 11 -4 11 -10z m-440 -15
c25 -14 25 -14 -16 -15 -51 0 -122 -21 -199 -60 -54 -27 -57 -30 -30 -30 29
-1 29 -1 11 -15 -37 -28 -110 -12 -138 29 -10 14 -10 18 1 35 8 13 12 13 26 1
24 -20 79 -13 138 16 39 20 137 49 177 53 3 0 16 -6 30 -14z m613 -36 c23 -22
33 -36 21 -30 -11 5 -26 17 -34 25 -18 22 -30 20 -30 -6 0 -28 -16 -13 -25 25
-11 41 17 35 68 -14z m1031 22 c3 -5 -1 -11 -9 -14 -9 -4 -12 -1 -8 9 6 16 10
17 17 5z m-1350 -87 c3 -8 2 -12 -4 -9 -6 3 -10 10 -10 16 0 14 7 11 14 -7z
m-148 -8 c8 -20 -27 -56 -54 -56 -13 0 -35 -9 -50 -20 l-25 -20 -24 22 c-31
29 -29 40 3 23 33 -17 60 -10 43 11 -14 17 -3 32 11 18 18 -18 70 -4 70 17 0
22 18 25 26 5z m1719 4 c3 -5 1 -10 -4 -10 -6 0 -11 5 -11 10 0 6 2 10 4 10 3
0 8 -4 11 -10z m450 -28 c-3 -3 -11 0 -18 7 -9 10 -8 11 6 5 10 -3 15 -9 12
-12z m-1595 -66 c0 -5 -11 1 -25 14 -14 13 -25 31 -25 39 1 11 9 6 25 -14 14
-16 25 -34 25 -39z m74 15 c-6 -6 -24 19 -24 34 1 6 7 1 15 -9 8 -11 12 -22 9
-25z m-870 4 c11 -8 30 -15 43 -15 34 0 28 -17 -12 -36 -44 -21 -91 -13 -128
22 -39 36 -27 41 20 10 37 -26 83 -35 83 -16 0 5 -9 14 -20 20 -11 6 -20 15
-20 20 0 14 12 12 34 -5z m-2461 -27 c9 -5 17 -13 17 -18 0 -18 -42 -59 -55
-54 -7 3 -16 -3 -19 -14 -4 -11 -16 -22 -26 -25 -12 -3 -18 -1 -14 5 4 6 0 14
-7 19 -11 6 -8 13 10 33 26 27 22 48 -4 26 -21 -18 -31 -5 -11 15 9 9 16 21
16 26 0 11 64 2 93 -13z m1637 -2 c63 -8 148 -18 189 -22 75 -6 74 -6 128 -71
15 -19 34 -24 113 -33 106 -11 614 -41 631 -37 7 1 14 -4 16 -10 6 -17 -53
-17 -282 2 -99 8 -233 15 -298 15 -135 0 -199 13 -242 48 l-29 24 -25 -31 -24
-31 -23 25 c-28 30 -50 32 -64 5 -15 -27 -29 -25 -66 11 l-31 30 -22 -27 -21
-27 -26 24 c-17 16 -27 20 -32 12 -4 -6 -7 -61 -7 -122 0 -82 -3 -111 -12
-111 -10 0 -13 39 -13 159 0 96 -4 162 -10 166 -19 12 -10 27 13 22 12 -3 74
-13 137 -21z m2497 -8 c-3 -7 -5 -2 -5 12 0 14 2 19 5 13 2 -7 2 -19 0 -25z
m282 -120 c-2 -77 -6 -69 -11 20 -2 28 0 52 5 52 4 0 6 -33 6 -72z m-1256 18
c-15 -25 -93 -106 -103 -106 -22 0 -8 30 23 49 18 11 43 31 56 45 27 29 36 33
24 12z m1072 4 c3 -5 -1 -10 -9 -10 -13 0 -16 -14 -16 -80 l0 -80 -28 0 c-15
0 -97 4 -182 10 -85 5 -202 11 -260 14 -80 3 -107 7 -114 19 -6 9 -8 18 -6 20
3 2 57 -2 120 -9 63 -8 184 -15 269 -16 l155 -3 7 25 c6 23 7 22 9 -10 l2 -35
10 35 c5 19 8 56 5 83 -3 40 -1 47 14 47 10 0 21 -4 24 -10z m1351 -67 c-10
-10 -19 5 -10 18 6 11 8 11 12 0 2 -7 1 -15 -2 -18z m-2568 -25 c-27 -35 -85
-72 -130 -83 -47 -12 -31 9 26 33 29 13 66 37 82 53 37 39 53 37 22 -3z m560
-96 c31 -138 -12 -58 -54 103 -3 11 5 5 18 -15 13 -19 30 -59 36 -88z m-3640
46 c-3 -7 -13 -15 -24 -17 -16 -3 -17 -1 -5 13 16 19 34 21 29 4z m1046 -13
c-6 -16 -24 -21 -24 -7 0 11 11 22 21 22 5 0 6 -7 3 -15z m2635 -34 c-7 -2
-18 4 -26 15 -22 30 -15 39 13 13 16 -15 21 -25 13 -28z m-3539 19 c8 0 22 -4
30 -10 12 -7 12 -12 -4 -29 -22 -25 -33 -26 -75 -8 l-31 13 22 26 c14 15 27
22 33 17 5 -5 16 -9 25 -9z m4388 5 c12 -3 22 -11 22 -16 0 -12 -37 -12 -61 1
-24 13 -25 33 -1 26 9 -2 27 -7 40 -11z m-1703 -122 c-24 -63 -30 -46 -8 23
10 33 19 50 21 40 2 -10 -4 -38 -13 -63z m1732 0 c-3 -10 -5 -4 -5 12 0 17 2
24 5 18 2 -7 2 -21 0 -30z m53 3 c0 -14 -24 -29 -33 -19 -3 3 -3 11 0 19 7 18
33 18 33 0z m-4450 -68 c-1 -25 -28 -48 -61 -52 -31 -4 -89 12 -89 24 0 14 64
31 95 26 19 -4 36 -2 40 4 8 14 15 13 15 -2z m1286 -47 c-4 -6 -14 -11 -22
-11 -12 0 -13 4 -3 21 7 14 14 18 21 11 6 -6 7 -15 4 -21z m1308 -45 c-10 -20
-21 -36 -26 -36 -5 0 1 18 12 41 26 50 38 46 14 -5z m-819 19 c28 -9 51 -15
53 -15 33 3 82 -2 82 -10 0 -17 -72 -11 -129 10 -83 30 -87 39 -6 15z m313
-87 c16 -29 44 -66 61 -82 31 -30 39 -46 22 -46 -24 0 -121 133 -121 168 0 21
7 13 38 -40z m682 49 c0 -2 -10 -12 -22 -23 l-23 -19 19 23 c18 21 26 27 26
19z m-58 -50 c-6 -7 -37 -24 -69 -36 -32 -13 -65 -29 -73 -36 -8 -7 -33 -18
-55 -25 -50 -16 -103 -49 -136 -86 -32 -37 -93 -124 -102 -146 -4 -11 -12 -15
-22 -12 -14 6 -14 9 -1 23 15 17 56 88 56 97 0 3 -4 3 -9 0 -14 -9 -43 18 -36
35 7 18 66 49 93 49 10 0 49 16 88 35 38 19 92 42 119 50 28 8 73 26 100 40
58 29 61 29 47 12z m1665 -13 c-3 -3 -12 -4 -19 -1 -8 3 -5 6 6 6 11 1 17 -2
13 -5z m515 -52 c-5 -15 -34 -12 -39 4 -2 7 6 11 20 10 16 0 23 -6 19 -14z
m-4968 -43 c-10 -11 -12 -19 -6 -19 7 0 12 -7 12 -15 0 -8 -4 -15 -9 -15 -5 0
-16 -3 -25 -6 -22 -8 -20 14 4 54 11 18 25 30 31 27 7 -5 4 -14 -7 -26z m1404
-3 c3 -27 -22 -59 -42 -53 -16 5 -17 47 -1 47 9 0 15 9 15 21 0 31 24 18 28
-15z m-1464 8 c3 -8 2 -12 -4 -9 -6 3 -10 10 -10 16 0 14 7 11 14 -7z m5307
-130 c0 -55 -5 -111 -10 -125 -8 -19 -10 -13 -8 34 1 42 -2 61 -13 68 -11 8
-12 12 -2 16 18 7 16 79 -3 87 -8 3 -15 15 -15 27 0 18 2 19 15 9 13 -10 15
-9 16 11 l0 24 10 -25 c6 -14 10 -70 10 -126z m-1121 125 c0 -6 7 -8 16 -5 12
5 15 2 11 -11 -26 -84 -39 -140 -48 -208 -6 -44 -13 -97 -16 -119 -4 -27 -2
-37 6 -32 6 4 11 1 11 -8 0 -9 -4 -16 -10 -16 -5 0 -10 -20 -10 -45 0 -42 -11
-58 -25 -35 -12 20 -25 -2 -25 -43 0 -38 -6 -48 -54 -96 -30 -29 -59 -51 -64
-47 -6 3 -14 1 -18 -5 -4 -8 -3 -9 4 -5 7 4 12 3 12 -2 0 -6 -7 -12 -15 -16
-8 -3 -15 -1 -15 5 0 6 -5 7 -10 4 -6 -4 -8 -14 -5 -24 3 -12 -26 -47 -100
-120 -58 -57 -105 -99 -105 -94 0 5 40 49 90 98 49 50 90 94 90 99 0 5 -45
-37 -100 -93 -56 -57 -97 -107 -94 -113 4 -6 3 -8 -3 -5 -16 10 -384 -368
-377 -387 3 -9 1 -16 -6 -16 -6 0 -8 5 -5 10 15 24 -12 7 -36 -22 l-27 -32
-102 97 c-57 54 -115 113 -129 131 -15 18 -167 173 -340 345 -221 220 -311
316 -307 327 3 9 6 58 6 109 l0 93 238 -241 c131 -133 325 -331 433 -440 l194
-198 225 227 c124 126 287 290 364 365 l138 138 -2 103 c-2 57 -2 119 -2 139
1 33 -1 37 -29 43 -17 3 -37 12 -45 20 -12 13 -7 17 39 32 28 9 90 36 137 60
88 45 110 52 110 33z m1180 -69 c0 -5 -4 -10 -10 -10 -5 0 -10 5 -10 10 0 6 5
10 10 10 6 0 10 -4 10 -10z m-4516 -95 c-6 -16 -24 -21 -24 -7 0 11 11 22 21
22 5 0 6 -7 3 -15z m2342 -19 c3 -8 -2 -28 -10 -45 -22 -42 -20 -54 13 -73 43
-24 64 -71 56 -123 -7 -51 -29 -74 -79 -82 -115 -18 -162 96 -95 230 18 34 38
72 47 84 16 26 60 31 68 9z m250 -11 c35 -23 50 -84 31 -122 -14 -27 -14 -31
0 -46 20 -20 20 -89 0 -120 -33 -50 -133 -40 -167 16 -23 38 -26 94 -6 123 10
13 11 25 5 35 -5 8 -9 33 -9 56 0 75 74 105 146 58z m1694 -17 c0 -12 -13 -9
-32 6 -10 7 -15 16 -12 19 7 7 44 -14 44 -25z m-4213 -20 c-4 -13 -20 -29 -36
-36 -16 -7 -32 -21 -34 -30 -4 -16 -4 -16 -11 0 -6 13 3 28 34 58 45 43 56 45
47 8z m341 -61 c-24 -34 -37 -22 -17 15 7 13 12 30 11 38 -2 11 2 10 12 -4 14
-17 13 -22 -6 -49z m4283 -40 c-13 -13 -26 -3 -16 12 3 6 11 8 17 5 6 -4 6
-10 -1 -17z m-3664 -39 c-3 -8 -6 -5 -6 6 -1 11 2 17 5 13 3 -3 4 -12 1 -19z
m-896 -11 c-10 -9 -11 -8 -5 6 3 10 9 15 12 12 3 -3 0 -11 -7 -18z m4418 -49
c-7 -13 -14 -18 -16 -11 -3 7 2 19 9 27 18 20 22 12 7 -16z m-4719 -17 c0 -10
-9 -21 -20 -24 -11 -3 -18 -2 -17 1 2 4 7 15 10 25 8 23 27 22 27 -2z m302
-33 c-9 -9 -12 -7 -12 12 0 19 3 21 12 12 9 -9 9 -15 0 -24z m2140 -193 c66
-69 123 -125 127 -125 4 0 62 54 129 121 103 102 125 119 138 109 17 -15 18
-146 1 -157 -6 -3 -7 -1 -3 5 13 22 -10 12 -32 -13 -25 -28 -28 -40 -9 -29 6
4 -17 -23 -52 -59 -36 -37 -67 -64 -70 -61 -3 2 -26 -16 -51 -41 l-47 -46
-118 121 c-66 66 -125 130 -132 142 -12 22 -19 158 -8 158 3 0 60 -56 127
-125z m1446 13 c-2 -6 9 -25 24 -42 45 -49 32 -54 -16 -7 -35 34 -42 46 -33
56 13 14 30 9 25 -7z m-3264 -60 c-9 -18 -22 -28 -37 -28 -21 1 -22 1 -3 15
13 10 15 15 6 15 -7 0 -21 -7 -31 -16 -12 -11 -25 -14 -36 -9 -43 19 -85 17
-109 -6 -23 -22 -74 -33 -74 -16 0 17 35 59 61 73 32 16 83 19 74 4 -3 -5 -2
-10 4 -10 5 0 17 -8 26 -17 16 -16 18 -15 34 5 22 28 61 42 83 29 15 -10 15
-14 2 -39z m-1819 23 c3 -5 1 -12 -5 -16 -5 -3 -10 1 -10 9 0 18 6 21 15 7z
m5050 -39 c21 5 19 -5 -24 -102 -11 -25 -11 -25 -8 5 3 17 7 39 11 50 6 17 5
17 -10 -2 -34 -47 -47 -19 -13 28 11 16 18 29 14 29 -3 0 -3 6 2 13 5 9 8 7
11 -6 2 -10 10 -16 17 -15z m-3868 -29 c-3 -10 -5 -4 -5 12 0 17 2 24 5 18 2
-7 2 -21 0 -30z m2142 -383 c233 -231 428 -420 433 -420 5 0 82 74 172 165 90
91 169 165 176 165 6 0 8 -4 5 -10 -11 -17 1 -11 21 12 18 20 18 21 1 15 -30
-11 52 82 218 248 83 82 163 165 178 183 27 32 47 41 47 21 0 -6 6 -9 13 -6
10 4 12 -18 12 -94 l0 -99 -129 -127 c-137 -137 -162 -147 -32 -13 42 44 74
80 69 80 -5 0 -37 -30 -72 -67 -35 -38 -102 -108 -150 -158 -47 -49 -72 -79
-56 -65 17 13 42 37 58 54 15 17 27 25 27 19 0 -6 -48 -61 -107 -123 -60 -62
-109 -118 -111 -124 -2 -7 39 -53 90 -102 199 -192 330 -344 296 -344 -6 0
-17 8 -24 17 -7 10 -16 14 -20 10 -5 -4 -2 -12 6 -17 11 -7 8 -10 -12 -10 -16
0 -28 5 -28 11 0 8 -5 7 -16 -2 -42 -35 -56 -25 -212 133 -82 84 -163 169
-180 188 l-31 35 -40 -40 c-37 -36 -55 -65 -31 -50 6 4 8 -5 4 -22 -5 -25 5
-39 95 -131 56 -57 108 -117 116 -133 14 -27 14 -32 -5 -70 -12 -22 -24 -39
-27 -36 -2 3 1 15 7 27 6 12 10 24 7 26 -2 3 -26 -36 -51 -87 -50 -96 -59
-135 -12 -48 16 28 30 48 32 46 3 -2 -26 -64 -62 -136 -49 -97 -69 -129 -76
-119 -7 10 -8 8 -4 -5 8 -24 -23 -99 -39 -93 -7 2 -34 -40 -69 -111 -32 -64
-61 -112 -65 -107 -4 5 -43 86 -88 179 -45 94 -116 242 -158 330 -107 223
-105 204 -37 269 31 30 59 52 62 49 3 -3 -20 -27 -50 -53 -30 -27 -52 -51 -49
-54 3 -3 39 29 80 72 40 42 67 71 60 64 -33 -27 -30 -9 6 33 33 40 65 63 47
33 -5 -7 -3 -8 7 -2 44 26 41 38 -29 120 l-42 49 -175 -175 c-146 -147 -173
-179 -168 -198 5 -21 3 -22 -66 -22 -57 0 -71 3 -71 15 0 10 -8 15 -22 14 -86
-7 -101 16 -45 67 17 17 45 45 62 64 16 18 31 27 33 21 6 -18 58 24 152 121
46 49 90 86 97 84 7 -3 15 0 19 6 4 7 3 8 -4 4 -16 -10 -15 3 1 17 35 32 60
51 53 40 -8 -15 10 -18 19 -3 11 18 -45 86 -172 208 -140 134 -150 143 -208
205 -22 23 -67 65 -100 94 l-60 51 -3 116 c-2 64 -2 116 0 116 1 0 194 -189
427 -420z m-1334 362 c-3 -3 -11 0 -18 7 -9 10 -8 11 6 5 10 -3 15 -9 12 -12z
m2988 -32 c22 -26 22 -33 -3 -25 -27 9 -25 -8 5 -41 35 -38 31 -47 -10 -23
-36 22 -65 59 -45 59 5 0 10 11 10 25 0 30 19 32 43 5z m-2821 -19 c4 -1 6
-17 5 -36 -3 -39 -22 -44 -22 -6 0 13 -6 26 -12 28 -20 7 -15 22 5 18 9 -2 20
-4 24 -4z m-522 -10 c0 -5 -6 -12 -12 -14 -7 -3 -4 -6 8 -6 11 -1 26 -7 32
-13 10 -10 18 -6 37 17 20 24 26 27 34 16 16 -24 -27 -48 -88 -49 -38 -1 -60
-7 -75 -20 -15 -14 -30 -18 -53 -15 -40 6 -41 16 -6 49 35 33 123 58 123 35z
m310 -1 c0 -5 -9 -10 -21 -10 -11 0 -17 5 -14 10 3 6 13 10 21 10 8 0 14 -4
14 -10z m3970 0 c0 -5 -4 -10 -10 -10 -5 0 -10 5 -10 10 0 6 5 10 10 10 6 0
10 -4 10 -10z m-3697 -7 c-7 -2 -19 -2 -25 0 -7 3 -2 5 12 5 14 0 19 -2 13 -5z
m-98 -13 c3 -5 1 -19 -5 -30 -9 -17 -14 -19 -26 -9 -19 15 -18 30 1 23 11 -5
13 -2 9 10 -7 17 11 22 21 6z m-187 -12 c-5 -15 -68 -24 -68 -9 0 12 18 19 48
20 15 1 22 -4 20 -11z m167 -56 c-6 -6 -34 11 -39 24 -4 11 0 10 18 -3 13 -10
23 -19 21 -21z m2086 -39 c-5 -10 -29 -36 -52 -58 -44 -40 -30 -18 25 43 34
36 41 40 27 15z m-2231 -7 c0 -3 -4 -8 -10 -11 -5 -3 -10 -1 -10 4 0 6 5 11
10 11 6 0 10 -2 10 -4z m297 -30 c-1 -6 6 -10 15 -10 9 1 14 -4 12 -11 -3 -7
-1 -16 4 -19 12 -7 25 22 16 35 -3 5 1 9 9 9 8 0 17 -7 21 -15 3 -8 10 -15 15
-15 6 0 27 -11 47 -25 36 -24 36 -25 10 -25 -14 0 -26 -4 -26 -10 0 -17 -64 2
-92 28 -15 13 -33 22 -41 19 -8 -3 -30 8 -48 23 -35 30 -30 41 5 15 11 -8 24
-15 30 -15 6 0 0 7 -12 16 -31 22 -27 34 7 21 16 -6 29 -16 28 -21z m-482 -5
c-3 -5 -18 -12 -34 -16 -16 -3 -35 -13 -42 -21 -13 -16 -29 -19 -29 -4 0 24
34 47 71 48 22 1 38 -2 34 -7z m185 0 c0 -12 -37 -21 -85 -20 l-40 1 40 13
c47 16 85 18 85 6z m-345 -11 c-4 -6 6 -11 22 -11 22 -1 23 -3 7 -6 -12 -2
-40 -20 -63 -39 -22 -20 -41 -31 -41 -25 0 6 -13 9 -30 7 -35 -4 -36 0 -12 32
24 31 135 71 117 42z m4425 -21 c0 -5 -7 -9 -15 -9 -15 0 -20 12 -9 23 8 8 24
-1 24 -14z m-185 -29 c3 -4 -6 -10 -20 -12 -19 -4 -25 -1 -25 12 0 13 6 17 20
13 11 -3 22 -9 25 -13z m-1022 -42 l18 -33 -30 35 c-17 19 -31 38 -31 43 0 16
24 -9 43 -45z m-78 31 c11 -17 -1 -21 -15 -4 -8 9 -8 15 -2 15 6 0 14 -5 17
-11z m-3555 -101 c0 -5 -4 -8 -10 -8 -5 0 -10 10 -10 23 0 18 2 19 10 7 5 -8
10 -18 10 -22z m3680 12 c0 -5 -2 -10 -4 -10 -3 0 -8 5 -11 10 -3 6 -1 10 4
10 6 0 11 -4 11 -10z m-4884 -15 c19 -15 19 -15 -5 -35 -32 -27 -41 -25 -41 8
0 44 13 52 46 27z m1959 5 c-8 -13 -86 -53 -92 -47 -5 5 77 57 90 57 5 0 5 -5
2 -10z m216 -33 c-10 -9 -11 -8 -5 6 3 10 9 15 12 12 3 -3 0 -11 -7 -18z
m-971 9 c0 -3 -4 -8 -10 -11 -5 -3 -10 -1 -10 4 0 6 5 11 10 11 6 0 10 -2 10
-4z m3696 -23 c-2 -16 -7 -35 -10 -44 -4 -8 -2 -28 3 -42 9 -22 8 -27 -6 -27
-13 0 -15 8 -8 58 4 31 7 63 8 70 0 6 4 12 8 12 5 0 7 -12 5 -27z m-3156 -18
c-13 -14 -25 -23 -27 -21 -8 8 22 46 36 46 10 0 7 -8 -9 -25z m-131 -55 c-24
-32 -39 -38 -39 -16 0 9 -7 12 -20 9 -11 -3 -20 -1 -20 4 0 29 92 73 98 47 2
-7 -7 -27 -19 -44z m553 8 c-4 -18 -23 -24 -35 -12 -3 4 1 21 10 38 14 28 17
29 23 11 4 -11 5 -28 2 -37z m-485 36 c-3 -3 -12 -4 -19 -1 -8 3 -5 6 6 6 11
1 17 -2 13 -5z m3337 -79 c11 -8 28 -15 38 -15 10 0 18 -3 18 -7 -1 -13 -27
-43 -32 -38 -2 3 -27 -6 -54 -20 -49 -25 -98 -32 -108 -16 -3 4 12 8 33 8 24
0 54 10 78 24 l38 24 -35 5 -35 5 24 17 23 16 -23 5 c-19 3 -20 4 -4 5 11 1
29 -5 39 -13z m-124 -67 c0 -13 -23 -5 -28 10 -2 7 2 10 12 6 9 -3 16 -11 16
-16z m-4563 -30 c-3 -8 -6 -5 -6 6 -1 11 2 17 5 13 3 -3 4 -12 1 -19z m4589
-63 c1 -15 -2 -25 -8 -23 -5 2 -9 7 -9 11 1 4 1 14 1 22 0 26 15 16 16 -10z
m-246 -89 c0 -2 -9 -6 -20 -9 -11 -3 -20 -1 -20 4 0 5 9 9 20 9 11 0 20 -2 20
-4z m140 -107 c0 -17 -18 -9 -34 16 -25 38 -18 53 9 22 14 -15 25 -32 25 -38z
m-56 16 c3 -8 1 -15 -4 -15 -6 0 -10 7 -10 15 0 8 2 15 4 15 2 0 6 -7 10 -15z
m-2429 -375 c-3 -5 -11 -10 -16 -10 -6 0 -7 5 -4 10 3 6 11 10 16 10 6 0 7 -4
4 -10z m5 -34 c0 -2 -7 -7 -16 -10 -8 -3 -12 -2 -9 4 6 10 25 14 25 6z m-140
-46 c0 -5 -9 -10 -20 -10 -11 0 -20 5 -20 10 0 6 9 10 20 10 11 0 20 -4 20
-10z m-10 -30 c0 -5 -5 -10 -11 -10 -5 0 -7 5 -4 10 3 6 8 10 11 10 2 0 4 -4
4 -10z m347 4 c-3 -3 -12 -4 -19 -1 -8 3 -5 6 6 6 11 1 17 -2 13 -5z m1982
-25 c-16 -10 -23 -4 -14 10 3 6 11 8 17 5 6 -4 5 -9 -3 -15z m-2169 -9 c0 -5
-2 -10 -4 -10 -3 0 -8 5 -11 10 -3 6 -1 10 4 10 6 0 11 -4 11 -10z m2015 -19
c3 -5 1 -12 -5 -16 -5 -3 -10 1 -10 9 0 18 6 21 15 7z m-2298 -26 c-4 -8 -17
-15 -29 -15 l-23 1 24 20 c26 21 37 19 28 -6z m2273 -21 c22 -51 24 -72 10
-94 -14 -22 -24 -5 -26 48 -1 26 -5 57 -9 70 -13 39 3 24 25 -24z m-4540 -309
c0 -226 -3 -335 -10 -335 -7 0 -11 95 -10 293 1 266 6 377 16 377 2 0 4 -151
4 -335z m2327 319 c-3 -3 -12 -4 -19 -1 -8 3 -5 6 6 6 11 1 17 -2 13 -5z
m2118 -64 c3 -5 1 -10 -4 -10 -6 0 -11 5 -11 10 0 6 2 10 4 10 3 0 8 -4 11
-10z m362 -18 c-10 -10 -17 -26 -17 -34 0 -9 -11 -23 -25 -32 -32 -21 -38 -20
-30 4 5 15 2 20 -13 20 -15 0 -18 -7 -17 -34 0 -19 -3 -32 -7 -30 -4 3 -8 -4
-8 -16 0 -15 -5 -20 -17 -18 -10 2 -17 11 -17 21 1 9 -4 17 -12 17 -8 0 -14 7
-14 15 0 8 7 15 15 15 9 0 12 6 8 15 -5 14 -8 14 -29 0 -23 -15 -24 -15 -24
10 0 21 3 24 18 17 9 -5 23 -7 30 -5 10 4 9 10 -5 26 -17 20 -17 20 2 12 38
-16 90 -16 130 -2 22 8 42 15 44 16 2 0 -3 -7 -12 -17z m-308 -94 c9 -13 21
-18 37 -15 13 2 24 0 24 -4 0 -5 7 -6 15 -3 8 4 15 1 15 -5 0 -6 9 -11 20 -11
18 0 19 -3 10 -20 -10 -18 -5 -27 34 -65 46 -44 60 -72 31 -61 -9 3 -18 -1
-21 -8 -6 -14 -49 -15 -62 -1 -4 4 3 4 16 1 12 -4 22 -4 22 -1 0 9 -57 65 -66
65 -5 0 -3 -5 4 -12 17 -17 15 -28 -4 -28 -11 0 -15 -6 -11 -20 8 -29 -6 -24
-25 10 -12 21 -24 29 -40 27 -18 -2 -24 3 -26 26 -3 25 -22 40 -22 17 0 -5 -6
-10 -14 -10 -11 0 -27 39 -30 75 -1 6 -7 14 -13 18 -19 12 -16 27 6 27 30 0
52 11 45 22 -12 19 41 -4 55 -24z m281 13 c0 -5 -7 -12 -16 -15 -14 -5 -15 -4
-4 9 14 17 20 19 20 6z m-2380 -21 c-20 -13 -33 -13 -25 0 3 6 14 10 23 10 15
0 15 -2 2 -10z m2210 0 c0 -5 -2 -10 -4 -10 -3 0 -8 5 -11 10 -3 6 -1 10 4 10
6 0 11 -4 11 -10z m-2039 -90 c5 0 9 -4 9 -10 0 -14 -13 -12 -36 6 -17 14 -17
15 -1 10 10 -3 23 -6 28 -6z m3 -74 c-7 -17 -34 -22 -34 -6 0 6 7 10 15 10 8
0 15 5 15 12 0 6 2 9 5 6 3 -3 3 -13 -1 -22z m1871 -116 c3 -5 -1 -10 -9 -10
-9 0 -16 5 -16 10 0 6 4 10 9 10 6 0 13 -4 16 -10z m1636 -75 c0 -6 -10 -12
-23 -15 -18 -5 -24 -14 -28 -45 -4 -32 -10 -41 -28 -43 -27 -4 -265 36 -342
58 -32 8 -30 9 15 4 28 -3 109 -16 182 -30 73 -13 137 -24 143 -24 5 0 10 15
10 33 0 18 6 40 13 49 20 26 59 34 58 13z m157 -35 c4 -59 -11 -39 -17 23 -1
4 -12 7 -26 7 -14 0 -25 5 -25 11 0 6 14 9 33 7 30 -3 32 -5 35 -48z m-2008
15 c-7 -9 -15 -13 -17 -11 -7 7 7 26 19 26 6 0 6 -6 -2 -15z m200 -44 c7 -11
17 -18 21 -15 9 5 69 -69 69 -87 1 -8 7 0 14 17 15 34 33 50 44 39 4 -4 1 -10
-5 -12 -18 -6 -16 -23 2 -23 20 0 20 -54 -1 -71 -14 -11 -18 -10 -33 10 l-18
24 -6 -22 c-11 -43 -57 -21 -57 28 0 9 -14 27 -30 40 l-31 22 -19 -23 c-11
-13 -19 -30 -19 -38 0 -8 4 -5 9 8 11 26 46 29 58 5 10 -21 -11 -72 -23 -53
-5 8 -10 7 -18 -3 -7 -8 -20 -17 -29 -20 -14 -5 -18 -1 -18 15 0 20 -2 19 -28
-10 -23 -25 -31 -29 -41 -19 -11 9 -14 9 -18 0 -6 -17 -33 -16 -33 1 0 7 3 34
6 59 6 45 7 45 37 36 20 -5 35 -5 41 1 6 6 18 10 27 10 32 0 30 19 -3 37 -32
17 -32 18 -9 21 13 2 28 -1 34 -7 18 -18 27 -12 27 19 0 36 27 41 50 11z m608
-79 c2 -18 -1 -32 -7 -32 -6 0 -11 6 -11 13 -1 7 -6 5 -14 -5 -12 -16 -13 -14
-14 14 -1 39 5 50 26 46 11 -2 18 -15 20 -36z m-198 -17 c0 -21 -6 -35 -16
-39 -37 -14 -46 23 -11 47 19 14 20 16 4 16 -10 1 -16 5 -12 11 12 20 35 -3
35 -35z m70 3 c-1 -38 -2 -41 -14 -25 -16 21 -26 22 -26 2 0 -8 -4 -15 -10
-15 -5 0 -10 16 -10 35 0 35 13 47 24 23 4 -10 9 -8 18 5 7 9 14 17 15 17 2 0
3 -19 3 -42z m60 5 c0 -30 -3 -35 -11 -23 -8 11 -12 12 -16 3 -9 -24 -23 -13
-23 17 0 17 5 30 10 30 6 0 10 -4 10 -10 0 -5 5 -10 10 -10 6 0 10 7 10 15 0
8 2 15 5 15 3 0 5 -17 5 -37z m-250 12 c13 -16 6 -65 -9 -65 -5 0 -17 -7 -25
-16 -15 -14 -16 -13 -16 17 0 27 2 30 16 18 13 -10 17 -10 25 2 12 18 11 26
-1 34 -6 4 -17 1 -25 -5 -12 -10 -15 -9 -15 3 0 14 12 24 31 26 4 1 12 -6 19
-14z m48 -5 c-9 -14 -14 -16 -20 -7 -13 20 -9 27 12 27 18 0 19 -3 8 -20z
m-110 -13 c2 -12 -4 -20 -17 -24 -11 -3 -18 -9 -15 -14 3 -5 10 -7 15 -4 5 4
9 1 9 -4 0 -6 -9 -11 -20 -11 -25 0 -38 44 -20 66 17 19 44 14 48 -9z m-998
-17 c28 -30 28 -33 28 -143 0 -92 -4 -118 -19 -144 -22 -35 -37 -43 -80 -43
-31 0 -78 37 -80 62 -1 21 -1 191 0 214 0 12 14 36 30 53 39 42 83 42 121 1z
m390 20 c0 -5 -7 -10 -17 -10 -9 0 -13 -3 -9 -7 4 -5 12 -8 18 -8 6 0 13 -18
15 -39 3 -30 -1 -44 -19 -63 -23 -25 -32 -53 -17 -53 4 0 6 -6 3 -14 -8 -21
14 -29 32 -11 13 12 14 19 4 30 -7 8 -10 22 -6 30 5 14 14 12 63 -13 32 -17
66 -32 76 -36 12 -4 17 -16 17 -41 0 -41 -17 -47 -23 -7 l-4 27 -8 -32 c-7
-31 -25 -46 -25 -22 0 6 -7 3 -16 -5 -18 -18 -70 -21 -80 -5 -4 8 -9 7 -15 -2
-8 -12 -11 -11 -19 1 -8 13 -10 12 -10 -2 0 -20 -16 -24 -22 -6 -2 6 -10 8
-17 4 -9 -6 -8 -11 6 -21 30 -22 9 -26 -25 -5 -40 24 -48 44 -34 76 15 31 39
31 54 -1 6 -14 19 -25 30 -25 25 0 24 44 -2 70 -27 27 -25 36 13 72 17 17 25
28 16 25 -9 -3 -21 -1 -27 5 -8 8 -13 7 -18 -5 -9 -25 -24 -10 -24 24 0 41
-24 33 -28 -9 -5 -49 -22 -38 -22 13 0 45 0 45 35 45 22 0 38 -6 41 -15 4 -8
10 -15 15 -15 6 0 5 8 -1 19 -8 16 -6 22 7 30 23 13 43 14 43 1z m-216 -9 c3
-5 -1 -11 -9 -15 -8 -3 -14 -13 -13 -23 3 -42 -2 -74 -13 -68 -6 4 -9 22 -8
40 2 18 -2 40 -9 48 -11 13 -10 16 5 20 30 8 42 7 47 -2z m321 -27 c34 -22 31
-59 -5 -59 -20 0 -25 5 -25 25 0 38 -20 40 -23 3 -4 -41 -22 -44 -22 -4 0 17
-5 33 -10 36 -6 4 -7 11 -4 17 8 13 57 3 89 -18z m-261 0 c16 -42 -1 -99 -18
-61 -5 10 -7 10 -12 0 -11 -24 -21 -13 -19 23 1 45 36 72 49 38z m2350 -42
c-6 -46 -14 -55 -50 -50 -28 4 -25 8 19 22 12 4 17 16 17 41 0 20 4 34 9 30 5
-3 7 -22 5 -43z m-181 -40 c15 -2 27 -8 27 -13 0 -6 -14 -9 -32 -7 -28 3 -33
8 -39 38 -4 19 -4 39 -1 45 4 5 9 -6 12 -25 4 -29 10 -36 33 -38z m-1897 -17
c20 -15 13 -18 -23 -9 -13 4 -23 10 -23 15 0 14 24 11 46 -6z m-2016 -5 c0 -5
-9 -10 -21 -10 -11 0 -17 5 -14 10 3 6 13 10 21 10 8 0 14 -4 14 -10z m-130
-10 c8 -5 12 -11 10 -14 -3 -2 -14 2 -24 10 -22 15 -10 19 14 4z m1904 1 c3
-5 -1 -12 -10 -15 -20 -8 -29 -1 -19 13 8 13 22 14 29 2z m46 -1 c0 -5 -4 -10
-10 -10 -5 0 -10 5 -10 10 0 6 5 10 10 10 6 0 10 -4 10 -10z m960 -50 c5 0 11
15 13 33 3 28 4 27 5 -9 2 -41 1 -42 -33 -46 -20 -2 -38 -2 -40 1 -10 9 -5 72
5 66 6 -3 10 -17 10 -31 0 -37 20 -19 22 19 l1 32 4 -32 c2 -18 8 -33 13 -33z
m-141 8 c0 -33 -2 -38 -9 -23 -7 17 -9 17 -9 3 -1 -21 -17 -24 -24 -5 -4 9 -8
8 -16 -3 -8 -12 -11 -7 -11 23 0 37 16 50 26 22 8 -21 21 -19 27 5 9 34 17 22
16 -22z m71 7 c0 -19 -5 -35 -11 -35 -5 0 -8 4 -4 9 3 5 1 12 -4 15 -5 3 -11
-4 -14 -15 -3 -12 -9 -19 -14 -16 -12 8 -15 67 -3 67 5 0 10 -6 10 -12 0 -7 5
-5 11 5 16 28 29 20 29 -18z m117 -12 c-3 -10 -5 -2 -5 17 0 19 2 27 5 18 2
-10 2 -26 0 -35z m-387 -3 c0 -31 -11 -50 -30 -50 -31 0 -40 48 -14 75 19 19
44 4 44 -25z m40 14 c0 -21 18 -17 25 7 9 27 20 15 20 -22 0 -19 -4 -28 -12
-24 -7 2 -13 0 -13 -5 0 -18 -20 -10 -21 8 -1 16 -2 16 -6 0 -2 -10 -9 -18
-14 -18 -10 0 -13 63 -3 73 10 9 24 -2 24 -19z m-2563 -6 c-3 -8 -6 -5 -6 6
-1 11 2 17 5 13 3 -3 4 -12 1 -19z m2388 13 c3 -5 1 -12 -5 -16 -5 -3 -7 -17
-4 -31 3 -13 2 -24 -4 -24 -10 0 -22 67 -13 75 7 8 19 6 26 -4z m60 -30 c0
-31 -2 -37 -12 -29 -9 8 -13 7 -13 -2 0 -21 -14 -1 -17 25 -2 13 1 26 7 30 5
3 10 0 10 -7 0 -8 5 -6 11 5 14 23 14 22 14 -22z m-625 4 c-8 -9 -8 -15 0 -20
16 -10 12 -61 -6 -76 -14 -11 -19 -10 -34 9 -17 21 -18 21 -23 2 -6 -24 -45
-27 -54 -4 -4 11 1 22 13 31 15 11 16 15 5 22 -19 12 3 24 29 16 14 -5 20 -2
20 10 0 16 38 36 53 28 4 -3 3 -11 -3 -18z m509 3 c5 -13 7 -30 6 -38 -2 -19
-33 -26 -49 -10 -8 8 -5 16 14 30 20 16 22 20 8 20 -10 0 -18 5 -18 10 0 20
31 10 39 -12z m-124 -46 c6 2 10 13 10 25 1 35 15 40 15 5 0 -42 20 -41 21 1
l1 32 8 -30 c15 -59 14 -60 -35 -57 l-45 4 1 42 c2 40 2 40 8 8 3 -18 11 -31
16 -30z m-35 13 c0 -19 -4 -35 -10 -35 -5 0 -10 16 -10 35 0 19 5 35 10 35 6
0 10 -16 10 -35z m-2283 -108 c-2 -23 -3 -1 -3 48 0 50 1 68 3 42 2 -26 2 -67
0 -90z m3880 127 c-3 -3 -12 -4 -19 -1 -8 3 -5 6 6 6 11 1 17 -2 13 -5z m33
-44 c0 -12 -28 -25 -36 -17 -9 9 6 27 22 27 8 0 14 -5 14 -10z m-5025 -10 c3
-5 2 -10 -4 -10 -5 0 -13 5 -16 10 -3 6 -2 10 4 10 5 0 13 -4 16 -10z m5035
-40 c0 -5 -11 -10 -25 -10 -14 0 -25 5 -25 10 0 6 11 10 25 10 14 0 25 -4 25
-10z m225 0 c17 -7 15 -9 -12 -9 -19 -1 -33 -6 -33 -13 0 -9 -3 -9 -12 0 -7 7
-25 12 -41 12 -16 0 -26 4 -22 10 7 12 92 12 120 0z m-305 -10 c0 -5 -10 -12
-22 -15 -86 -19 -109 -22 -114 -14 -7 11 9 16 129 38 4 0 7 -3 7 -9z m371 -10
c5 0 9 -4 9 -10 0 -16 -26 -12 -41 7 -12 15 -12 16 4 10 10 -4 23 -7 28 -7z
m-4164 -22 c-3 -8 -6 -5 -6 6 -1 11 2 17 5 13 3 -3 4 -12 1 -19z m1913 11 c0
-3 -13 -15 -30 -27 -21 -16 -28 -18 -23 -7 3 9 -2 21 -12 28 -14 11 -11 13 24
13 23 -1 41 -4 41 -7z m1608 -30 c-2 -7 -17 -13 -33 -14 -17 -2 -61 -6 -100
-10 -95 -8 -74 11 25 23 106 13 112 13 108 1z m-3967 -106 c1 -97 3 -104 34
-121 20 -11 20 -11 -2 -12 -18 0 -23 -8 -31 -52 l-10 -53 -1 47 c-1 33 -6 50
-18 57 -16 9 -16 12 -3 20 18 12 17 8 19 123 1 117 11 110 12 -9z m-1411 77
l25 -8 -25 -1 c-14 0 -32 4 -40 9 -13 9 -13 10 0 9 8 -1 26 -5 40 -9z m1813
-59 c-4 -6 -43 30 -43 40 0 5 10 -2 23 -14 13 -12 22 -24 20 -26z m3737 33 c0
-2 -7 -4 -15 -4 -8 0 -15 4 -15 10 0 5 7 7 15 4 8 -4 15 -8 15 -10z m-3550 -8
c0 -9 -40 -13 -46 -5 -3 5 6 9 20 9 14 0 26 -2 26 -4z m-470 -56 c0 -5 -5 -10
-11 -10 -5 0 -7 5 -4 10 3 6 8 10 11 10 2 0 4 -4 4 -10z m4050 0 c0 -5 -4 -10
-10 -10 -5 0 -10 5 -10 10 0 6 5 10 10 10 6 0 10 -4 10 -10z m-4398 -29 c130
-34 168 -47 168 -59 0 -4 -27 -8 -60 -8 -34 1 -58 5 -57 11 4 11 -75 50 -124
60 -37 8 -71 24 -52 25 6 0 63 -13 125 -29z m525 -3 c-3 -8 -6 -5 -6 6 -1 11
2 17 5 13 3 -3 4 -12 1 -19z m3263 -17 c0 -12 -51 -20 -135 -21 -96 -2 -100 0
-25 15 79 15 160 18 160 6z m-3336 -118 l1 -58 55 -1 c75 -2 77 -3 60 -14 -8
-5 -41 -10 -72 -10 l-58 0 0 77 c0 88 12 93 14 6z m-104 27 c0 -5 -4 -10 -10
-10 -5 0 -10 5 -10 10 0 6 5 10 10 10 6 0 10 -4 10 -10z m2548 5 c-6 -6 -393
-41 -528 -49 l-95 -5 85 14 c47 8 146 19 220 26 74 6 136 12 137 13 5 4 185 5
181 1z m-948 -35 c0 -5 -2 -10 -4 -10 -3 0 -8 5 -11 10 -3 6 -1 10 4 10 6 0
11 -4 11 -10z m230 -31 c-41 -5 -114 -13 -161 -19 -82 -10 -239 -12 -190 -3
46 9 307 30 366 30 l60 0 -75 -8z m-1827 -78 c-3 -27 1 -42 15 -54 16 -15 32
-15 180 -4 89 7 162 9 162 5 0 -10 -20 -14 -197 -34 -115 -14 -157 -15 -175
-7 -18 9 -19 12 -5 12 19 1 23 16 7 26 -11 7 -14 98 -3 108 12 13 20 -13 16
-52z m3167 38 c0 -5 -7 -9 -15 -9 -8 0 -15 7 -15 15 0 9 6 12 15 9 8 -4 15
-10 15 -15z m-1742 4 c-10 -2 -28 -2 -40 0 -13 2 -5 4 17 4 22 1 32 -1 23 -4z
m-1342 -29 c34 9 40 -12 7 -25 -24 -9 -30 -7 -45 11 -23 28 -24 47 -2 25 11
-10 25 -14 40 -11z m1211 20 c-3 -3 -12 -4 -19 -1 -8 3 -5 6 6 6 11 1 17 -2
13 -5z m-1410 -72 c2 -26 8 -48 13 -50 5 -2 3 -11 -6 -19 -8 -9 -13 -22 -10
-29 3 -7 1 -16 -4 -19 -6 -4 -10 30 -10 86 0 94 12 116 17 31z m3298 38 c-28
-12 -57 -12 -50 0 3 6 21 10 38 9 27 0 29 -2 12 -9z m-2297 -7 c-10 -2 -26 -2
-35 0 -10 3 -2 5 17 5 19 0 27 -2 18 -5z m2172 -15 c-13 -5 -31 -6 -39 -2 -12
5 -8 9 14 14 38 8 56 0 25 -12z m-2287 5 c-13 -2 -33 -2 -45 0 -13 2 -3 4 22
4 25 0 35 -2 23 -4z m-719 -18 c3 3 2 0 -3 -6 -10 -12 -31 -4 -31 13 0 7 4 7
13 -1 8 -6 17 -9 21 -6z m601 5 c-119 -17 -175 -21 -175 -11 0 10 61 17 165
18 l60 1 -50 -8z m2318 3 c-7 -2 -21 -2 -30 0 -10 3 -4 5 12 5 17 0 24 -2 18
-5z m-793 -17 c0 -2 -7 -6 -15 -10 -8 -3 -15 -1 -15 4 0 6 7 10 15 10 8 0 15
-2 15 -4z m-2253 -12 c-3 -3 -12 -4 -19 -1 -8 3 -5 6 6 6 11 1 17 -2 13 -5z
m1623 -94 c0 -5 -4 -10 -10 -10 -5 0 -10 5 -10 10 0 6 5 10 10 10 6 0 10 -4
10 -10z"/>
<path d="M3266 7644 c-26 -9 -46 -17 -44 -19 6 -6 81 15 93 26 11 11 11 11
-49 -7z"/>
<path d="M3115 7597 c-104 -35 -116 -40 -111 -44 7 -7 174 46 181 57 8 13 3
12 -70 -13z"/>
<path d="M2905 7525 c-16 -7 -23 -14 -15 -14 8 0 29 6 45 14 17 7 23 14 15 14
-8 0 -28 -6 -45 -14z"/>
<path d="M1995 7234 l-30 -15 30 6 c17 4 34 11 40 16 13 13 -5 10 -40 -7z"/>
<path d="M1760 7090 c0 -17 7 -33 18 -40 16 -10 15 -10 -3 -8 -13 2 -21 -4
-23 -17 -3 -16 -1 -18 9 -7 7 6 17 12 21 12 14 0 8 -28 -7 -34 -13 -5 -15 -54
-13 -373 1 -202 4 -341 7 -308 7 73 16 55 20 -40 5 -143 11 -71 11 146 2 574
3 599 27 618 l22 18 -45 31 -44 32 0 -30z"/>
<path d="M7988 6793 c6 -2 9 -10 6 -15 -4 -7 -2 -8 4 -4 18 11 14 26 -5 25
-11 0 -13 -3 -5 -6z"/>
<path d="M7681 6724 c-70 -19 -77 -25 -20 -21 41 4 89 21 89 32 0 7 -8 6 -69
-11z"/>
<path d="M7841 6721 c-7 -5 -28 -7 -45 -4 -23 3 -37 -1 -47 -13 -12 -16 -12
-17 1 -12 9 3 24 0 35 -8 22 -16 49 -19 40 -4 -3 6 0 13 9 16 8 3 17 12 20 20
6 16 6 17 -13 5z"/>
<path d="M7658 6683 c7 -3 16 -2 19 1 4 3 -2 6 -13 5 -11 0 -14 -3 -6 -6z"/>
<path d="M8280 5499 c0 -5 5 -7 10 -4 6 3 10 8 10 11 0 2 -4 4 -10 4 -5 0 -10
-5 -10 -11z"/>
<path d="M8277 5474 c-4 -4 -7 -18 -7 -30 0 -13 -5 -26 -10 -29 -12 -7 -9
-185 2 -185 13 0 9 -38 -4 -43 -10 -3 -10 -11 1 -38 7 -19 14 -45 13 -59 0
-14 2 -41 5 -60 l5 -35 13 25 c25 48 33 268 13 375 -12 67 -21 89 -31 79z"/>
<path d="M1861 4664 c0 -11 3 -14 6 -6 3 7 2 16 -1 19 -3 4 -6 -2 -5 -13z"/>
<path d="M8432 2340 c0 -14 2 -19 5 -12 2 6 2 18 0 25 -3 6 -5 1 -5 -13z"/>
<path d="M7375 1560 l-30 -8 30 0 c17 0 44 4 60 8 l30 8 -30 0 c-16 0 -43 -4
-60 -8z"/>
<path d="M5481 6584 c9 -11 19 -27 22 -37 4 -9 18 -22 32 -29 21 -9 28 -8 45
7 11 10 20 22 20 26 0 15 -44 37 -90 44 -43 7 -44 7 -29 -11z"/>
<path d="M5407 6422 c-10 -10 -17 -24 -17 -30 0 -7 -9 -12 -20 -12 -27 0 -43
-34 -36 -80 4 -30 2 -39 -10 -42 -10 -2 -2 -9 20 -19 34 -15 36 -15 36 0 0 10
11 28 25 41 14 13 25 29 25 37 0 7 4 13 9 13 5 0 0 -23 -11 -52 -15 -40 -16
-53 -7 -59 21 -12 29 -1 29 40 0 49 14 66 74 89 l50 19 -27 17 c-16 11 -34 15
-48 11 -12 -4 -24 -3 -28 1 -3 5 -15 17 -27 27 -20 16 -21 16 -37 -1z"/>
<path d="M3193 5705 c0 -27 2 -38 4 -22 2 15 2 37 0 50 -2 12 -4 0 -4 -28z"/>
<path d="M3191 5094 c0 -11 3 -14 6 -6 3 7 2 16 -1 19 -3 4 -6 -2 -5 -13z"/>
<path d="M3197 5063 c-11 -10 -8 -55 3 -48 5 3 9 17 8 30 -3 28 -2 27 -11 18z"/>
<path d="M3190 4903 c0 -22 2 -25 10 -13 13 20 13 40 0 40 -5 0 -10 -12 -10
-27z"/>
<path d="M4796 6422 c-4 -7 -14 -11 -22 -8 -23 9 -16 -21 11 -50 29 -31 39
-19 27 36 -5 24 -10 31 -16 22z"/>
<path d="M7421 6044 c0 -11 3 -14 6 -6 3 7 2 16 -1 19 -3 4 -6 -2 -5 -13z"/>
<path d="M7504 5650 c1 -16 5 -32 9 -37 5 -4 5 0 2 9 -4 9 -2 19 4 23 15 9 14
22 -3 28 -10 4 -13 -3 -12 -23z"/>
<path d="M7800 5498 c0 -23 3 -29 9 -19 8 12 4 51 -5 51 -2 0 -4 -15 -4 -32z"/>
<path d="M7801 5430 c-6 -17 -17 -30 -27 -30 -13 0 -14 -3 -5 -14 8 -9 8 -16
2 -20 -14 -9 7 -66 25 -66 8 0 14 -7 14 -16 0 -8 5 -12 10 -9 14 8 13 98 -1
112 -8 8 -9 20 -1 42 6 17 7 31 2 31 -4 0 -13 -13 -19 -30z"/>
<path d="M5662 4818 c-7 -7 -12 -21 -12 -33 0 -47 62 -63 81 -21 22 47 -33 90
-69 54z"/>
<path d="M5912 4938 c-15 -15 -15 -41 0 -56 15 -15 48 3 48 26 0 17 -18 42
-30 42 -3 0 -11 -5 -18 -12z"/>
<path d="M5913 4807 c-43 -19 -19 -87 26 -72 23 7 34 31 26 55 -8 24 -25 29
-52 17z"/>
<path d="M5974 4378 l-29 -33 33 29 c17 17 32 31 32 33 0 8 -8 1 -36 -29z"/>
<path d="M5914 4318 l-19 -23 23 19 c12 11 22 21 22 23 0 8 -8 2 -26 -19z"/>
<path d="M6130 3728 c-12 -22 -12 -22 6 -6 10 10 15 20 12 24 -4 3 -12 -5 -18
-18z"/>
<path d="M5265 3462 c-5 -4 -21 -21 -35 -37 -22 -27 -21 -26 13 4 33 32 42 41
35 41 -2 0 -7 -4 -13 -8z"/>
<path d="M5708 3305 c-86 -90 -86 -90 -79 -130 11 -57 172 -370 182 -354 4 8
4 16 -2 20 -10 6 41 114 63 134 8 7 9 6 3 -4 -6 -10 -4 -12 4 -7 6 4 34 52 61
106 59 117 59 117 -49 224 -67 67 -71 69 -97 57 -26 -11 -26 -11 -13 6 8 10
18 21 23 24 4 4 4 8 0 11 -5 2 -48 -37 -96 -87z"/>
<path d="M5153 3233 c15 -2 39 -2 55 0 15 2 2 4 -28 4 -30 0 -43 -2 -27 -4z"/>
<path d="M6442 2605 c24 -36 38 -44 38 -22 0 14 -41 57 -53 57 -4 0 3 -16 15
-35z"/>
<path d="M6315 2620 c3 -5 8 -10 11 -10 2 0 4 5 4 10 0 6 -5 10 -11 10 -5 0
-7 -4 -4 -10z"/>
<path d="M6230 2290 c0 -6 7 -10 15 -10 8 0 15 2 15 4 0 2 -7 6 -15 10 -8 3
-15 1 -15 -4z"/>
<path d="M6370 2205 c0 -17 5 -25 13 -22 6 2 12 12 12 22 0 10 -6 20 -12 23
-8 2 -13 -6 -13 -23z"/>
<path d="M6070 2200 c0 -5 5 -10 10 -10 6 0 10 5 10 10 0 6 -4 10 -10 10 -5 0
-10 -4 -10 -10z"/>
<path d="M6111 2201 c-8 -6 -11 -16 -7 -27 5 -12 10 -14 17 -7 16 16 7 45 -10
34z"/>
<path d="M6303 2196 c5 -16 27 -19 27 -3 0 7 -7 14 -15 14 -9 0 -14 -5 -12
-11z"/>
<path d="M6181 2174 c0 -11 3 -14 6 -6 3 7 2 16 -1 19 -3 4 -6 -2 -5 -13z"/>
<path d="M6075 2170 c-3 -5 -1 -10 4 -10 6 0 11 5 11 10 0 6 -2 10 -4 10 -3 0
-8 -4 -11 -10z"/>
<path d="M6630 2210 c0 -5 5 -10 10 -10 6 0 10 5 10 10 0 6 -4 10 -10 10 -5 0
-10 -4 -10 -10z"/>
<path d="M6440 2230 c0 -5 5 -10 10 -10 6 0 10 5 10 10 0 6 -4 10 -10 10 -5 0
-10 -4 -10 -10z"/>
<path d="M5367 2190 c-23 -27 -25 -36 -25 -135 1 -88 4 -110 20 -130 35 -45
80 -41 114 10 13 20 16 48 15 132 -2 99 -4 110 -25 132 -33 32 -50 20 -30 -22
14 -29 14 -36 -1 -71 l-16 -39 -15 29 c-15 28 -14 52 1 102 10 31 -8 28 -38
-8z m63 -234 c0 -11 -19 -15 -25 -6 -3 5 1 10 9 10 9 0 16 -2 16 -4z"/>
<path d="M5404 2155 c-3 -8 -3 -19 1 -25 11 -18 25 -11 25 15 0 27 -17 34 -26
10z"/>
<path d="M5905 2060 c10 -11 20 -18 23 -15 7 6 -18 35 -31 35 -5 0 -2 -9 8
-20z"/>
<path d="M5960 2019 c0 -5 5 -7 10 -4 6 3 10 8 10 11 0 2 -4 4 -10 4 -5 0 -10
-5 -10 -11z"/>
<path d="M5927 1989 c4 -13 8 -18 11 -10 2 7 -1 18 -6 23 -8 8 -9 4 -5 -13z"/>
<path d="M5754 1986 c-8 -22 3 -33 18 -18 9 9 9 15 0 24 -9 9 -13 7 -18 -6z"/>
<path d="M5680 2169 c0 -5 5 -7 10 -4 6 3 10 8 10 11 0 2 -4 4 -10 4 -5 0 -10
-5 -10 -11z"/>
<path d="M6366 2033 c-4 -9 0 -23 8 -32 14 -13 16 -13 22 2 7 20 -1 47 -15 47
-5 0 -12 -8 -15 -17z"/>
<path d="M5680 1965 c0 -17 5 -25 13 -22 6 2 12 12 12 22 0 10 -6 20 -12 23
-8 2 -13 -6 -13 -23z"/>
<path d="M5615 1950 c-3 -5 -1 -10 4 -10 6 0 11 5 11 10 0 6 -2 10 -4 10 -3 0
-8 -4 -11 -10z"/>
<path d="M6190 1989 c0 -5 5 -7 10 -4 6 3 10 8 10 11 0 2 -4 4 -10 4 -5 0 -10
-5 -10 -11z"/>
</g>
</svg>
