<?xml version="1.0" standalone="no"?>
<!DOCTYPE svg PUBLIC "-//W3C//DTD SVG 20010904//EN"
 "http://www.w3.org/TR/2001/REC-SVG-20010904/DTD/svg10.dtd">
<svg version="1.0" xmlns="http://www.w3.org/2000/svg"
 width="877.000000pt" height="1024.000000pt" viewBox="0 0 877.000000 1024.000000"
 preserveAspectRatio="xMidYMid meet">
<metadata>
Created by potrace 1.16, written by Peter Selinger 2001-2019
</metadata>
<g transform="translate(0.000000,1024.000000) scale(0.100000,-0.100000)"
fill="#000000" stroke="none">
<path d="M0 5120 l0 -5120 4385 0 4385 0 0 5120 0 5120 -4385 0 -4385 0 0
-5120z m5687 4943 c11 -4 194 134 208 158 14 22 25 5 25 -38 l0 -48 -110 -88
c-69 -54 -115 -85 -123 -80 -7 4 -56 43 -109 86 l-98 79 0 49 0 49 98 -81 c53
-44 102 -83 109 -86z m-2162 -98 c69 -43 107 -114 113 -212 l5 -74 -79 3 -79
3 -5 50 c-7 65 -23 91 -62 104 -49 16 -90 1 -111 -40 -14 -28 -17 -55 -15
-154 l3 -120 93 -3 92 -3 0 -64 0 -64 -92 -3 -93 -3 -3 -115 c-5 -185 10 -220
92 -220 66 0 88 23 94 99 l4 61 80 0 80 0 -4 -67 c-3 -38 -8 -76 -13 -85 -6
-15 -2 -18 28 -18 31 0 36 4 51 39 8 22 25 84 37 138 19 86 22 138 26 436 l5
337 224 0 224 0 0 -474 0 -474 50 -4 50 -3 0 478 0 477 75 0 75 0 2 -232 3
-233 95 0 95 0 3 233 2 232 75 0 75 0 0 -545 0 -545 -75 0 -75 0 -2 243 -3
242 -95 0 -95 0 -3 -242 -2 -243 -80 0 -80 0 0 -85 0 -85 -65 0 -65 0 0 85 0
85 -217 -2 -218 -3 -3 -82 -3 -83 -64 0 -65 0 0 135 c0 74 -4 135 -8 135 -5 0
-18 -13 -30 -29 -30 -42 -115 -81 -175 -81 -112 0 -194 47 -239 138 -23 46
-23 54 -26 384 -2 227 0 356 8 393 15 74 61 133 130 168 49 25 64 28 131 25
63 -2 83 -8 124 -33z m1901 6 c-3 -9 -46 -164 -95 -346 -123 -451 -157 -568
-180 -612 -40 -79 -113 -123 -201 -123 l-51 0 3 78 3 77 44 6 c54 7 74 31 102
120 l20 67 -34 113 c-19 63 -69 224 -112 359 -42 135 -79 253 -82 263 -4 16 3
18 78 15 l82 -3 69 -240 c38 -132 72 -243 76 -247 4 -4 32 105 61 242 l55 249
55 3 c84 4 113 -1 107 -21z m960 10 c84 -38 144 -144 144 -253 l0 -48 -80 0
-80 0 0 50 c0 40 -5 55 -27 80 -44 47 -114 46 -143 -2 -19 -32 -20 -48 -18
-374 3 -320 4 -343 22 -363 19 -21 83 -29 121 -15 25 10 45 58 45 109 l0 45
80 0 80 0 0 -43 c0 -111 -56 -209 -144 -252 -48 -23 -65 -27 -123 -23 -124 7
-206 70 -233 179 -7 29 -10 164 -8 399 3 342 4 356 25 395 27 50 77 99 123
118 51 22 165 21 216 -2z m672 -533 l2 -548 -80 0 -80 0 0 230 c0 249 0 250
-53 236 -19 -5 -30 -32 -87 -233 l-65 -228 -78 -3 c-50 -2 -77 1 -77 8 0 6 31
115 70 243 40 134 65 233 59 235 -24 9 -71 58 -90 93 -29 58 -43 182 -30 269
23 146 87 219 210 240 25 4 102 7 171 6 l125 -1 3 -547z m-5128 -3 l0 -545
-75 0 -75 0 0 475 0 475 -95 0 -95 0 0 -475 0 -475 -80 0 -80 0 0 545 0 545
250 0 250 0 0 -545z m435 526 c50 -22 108 -86 126 -137 10 -26 14 -85 14 -179
-1 -155 -9 -185 -66 -250 -47 -53 -83 -68 -184 -74 l-90 -6 -3 -212 -2 -213
-80 0 -80 0 0 545 0 545 163 0 c135 0 169 -3 202 -19z m347 -328 l3 -348 93
323 c51 178 97 335 102 348 9 22 14 24 85 24 l75 0 0 -545 0 -545 -75 0 -75 0
-2 353 c-2 279 -5 345 -14 317 -7 -19 -44 -147 -84 -285 -39 -137 -80 -280
-91 -317 l-20 -68 -79 0 -80 0 0 545 0 545 80 0 80 0 2 -347z m2878 2 c0 -190
3 -345 8 -345 4 0 17 37 30 83 12 45 57 200 99 345 l76 262 79 0 78 0 0 -545
0 -546 -77 3 -78 3 -5 340 -5 340 -62 -210 c-34 -115 -79 -270 -99 -342 l-37
-133 -78 0 -79 0 0 545 0 545 75 0 75 0 0 -345z m460 -791 c0 -8 -5 -58 -12
-110 l-11 -94 -95 0 -94 0 6 43 c3 23 8 67 12 97 9 84 3 80 104 80 75 0 90 -3
90 -16z m251 11 c4 -3 -10 -139 -21 -212 0 -2 -43 -3 -96 -3 -86 0 -95 2 -90
18 2 9 7 44 11 77 3 33 9 75 12 93 l5 32 87 0 c48 0 90 -2 92 -5z m-4321 -790
l0 -585 55 0 55 0 -2 -187 -3 -188 -80 0 -80 0 -3 103 -3 102 -264 0 -264 0
-3 -102 -3 -103 -80 0 -80 0 0 185 0 185 50 5 50 5 22 62 c59 166 83 402 83
826 l0 277 275 0 275 0 0 -585z m438 478 l3 -92 -39 -10 c-39 -11 -87 -52 -81
-69 2 -5 31 -31 64 -57 33 -27 94 -76 135 -110 155 -127 242 -195 248 -195 4
1 19 11 33 23 14 12 84 69 155 127 102 82 217 177 263 217 11 9 -56 63 -86 69
l-33 6 0 94 0 94 33 0 c67 0 129 -31 194 -95 94 -94 93 -89 93 -580 0 -463 -2
-477 -70 -564 -45 -57 -140 -110 -205 -114 l-40 -2 -3 92 -3 92 40 11 c45 12
78 47 86 94 3 17 5 149 3 294 l-3 263 -103 -85 c-56 -46 -125 -101 -152 -122
-34 -26 -46 -41 -40 -49 5 -7 55 -47 110 -91 l100 -79 -50 -3 c-48 -3 -52 -1
-136 67 -84 67 -88 69 -110 54 -13 -8 -24 -19 -24 -24 0 -5 24 -26 53 -47 28
-21 58 -46 65 -55 14 -17 8 -29 -134 -259 l-41 -67 -76 127 c-42 70 -85 141
-96 157 l-20 31 69 54 c39 30 70 58 70 62 0 9 -34 28 -49 28 -6 0 -47 -29 -91
-65 -76 -62 -83 -65 -133 -65 -46 1 -50 2 -34 14 76 58 197 163 197 171 0 6
-8 15 -17 21 -10 6 -74 58 -143 114 l-125 103 -3 -282 c-2 -239 0 -286 13
-312 14 -27 45 -47 98 -63 15 -5 17 -18 17 -97 l0 -92 -54 6 c-99 10 -188 74
-235 169 l-31 61 0 432 c0 493 1 501 77 585 56 63 156 112 218 107 18 -2 20
-10 23 -94z m1971 -36 c81 -53 95 -132 66 -347 -8 -58 -15 -108 -15 -112 0 -5
-54 -8 -121 -8 l-121 0 6 28 c13 66 28 223 23 237 -8 20 -109 21 -126 1 -7 -8
-32 -182 -57 -386 -24 -205 -51 -420 -58 -478 -8 -58 -12 -111 -9 -119 3 -9
24 -13 64 -13 45 0 60 4 67 18 5 9 15 70 22 135 l13 117 120 0 119 0 -7 -67
c-24 -227 -42 -290 -102 -348 -50 -49 -98 -68 -183 -74 -73 -6 -75 -7 -78 -34
-2 -15 5 -39 16 -55 41 -60 72 -139 72 -185 0 -25 4 -48 9 -51 4 -3 11 -21 14
-40 3 -18 15 -53 26 -77 12 -23 21 -50 21 -60 0 -9 7 -22 15 -29 8 -7 15 -24
15 -39 0 -14 9 -41 20 -59 13 -20 20 -50 20 -80 0 -27 4 -52 9 -58 13 -14 22
-62 12 -68 -12 -8 -34 20 -27 33 4 5 0 29 -9 53 -8 24 -15 53 -15 66 0 12 -4
22 -9 22 -5 0 -13 9 -16 20 -11 34 -56 80 -94 96 -23 10 -31 18 -24 22 9 6 7
13 -8 26 -16 13 -39 18 -95 18 -40 1 -79 -4 -86 -9 -7 -6 -29 -13 -48 -16 -36
-5 -86 -18 -174 -43 -50 -13 -73 -11 -46 6 8 5 11 13 6 17 -5 4 -10 4 -13 -2
-10 -28 -24 -37 -61 -38 -22 -1 -39 -5 -39 -9 1 -5 -15 -23 -36 -40 -27 -24
-39 -43 -42 -68 -2 -19 -10 -58 -16 -86 -10 -41 -10 -69 -1 -130 7 -44 15 -95
18 -114 3 -19 9 -44 14 -55 11 -24 30 -106 37 -158 3 -20 9 -40 14 -43 5 -3 9
-16 9 -29 0 -13 4 -26 8 -29 4 -2 9 -22 10 -43 2 -21 7 -42 12 -47 6 -6 10
-20 10 -32 0 -12 7 -24 15 -28 10 -3 15 -19 15 -44 0 -22 6 -55 14 -73 7 -19
11 -40 9 -46 -3 -7 2 -13 10 -13 9 0 18 -6 21 -12 5 -10 7 -10 12 0 9 19 32
14 39 -8 9 -30 30 -24 49 13 l17 32 -5 -47 c-5 -43 -3 -50 19 -64 14 -9 32
-13 44 -9 18 5 21 2 19 -19 -2 -28 -13 -34 -21 -13 -4 7 -6 6 -6 -5 -2 -29 11
-48 30 -48 17 0 19 -8 19 -80 0 -64 3 -80 15 -80 17 0 20 21 4 37 -13 13 -8
55 7 60 6 2 14 -11 18 -29 6 -30 8 -31 20 -15 15 19 50 23 44 5 -4 -12 69 -87
85 -88 14 0 7 -20 -8 -20 -8 0 -15 4 -15 10 0 5 -6 7 -14 4 -9 -3 -17 3 -21
15 -7 24 -37 28 -54 8 -8 -10 -7 -19 4 -33 8 -10 15 -33 15 -49 0 -17 5 -36
10 -41 8 -8 6 -15 -4 -24 -14 -10 -19 -6 -36 34 -22 52 -40 60 -40 17 0 -42
19 -90 41 -102 23 -12 25 -35 3 -47 -13 -7 -14 -15 -5 -48 16 -56 14 -64 -13
-64 -29 0 -39 -20 -17 -37 15 -11 14 -12 -1 -13 -9 0 -20 5 -23 10 -4 6 -12 5
-21 -4 -20 -21 -18 -26 15 -26 17 0 33 -4 36 -10 3 -5 -3 -10 -14 -10 -28 0
-28 -34 -1 -53 l21 -14 -21 -6 c-11 -3 -20 -1 -20 4 0 6 -5 16 -12 23 -15 15
-24 7 -50 -43 -23 -42 -23 -51 3 -51 11 0 27 -7 35 -15 14 -13 13 -15 -5 -15
-14 0 -21 -6 -21 -18 0 -10 -6 -24 -12 -31 -9 -10 -10 -12 -1 -7 14 8 33 -23
33 -53 0 -10 -6 -22 -12 -25 -10 -5 -10 -7 0 -12 19 -9 14 -38 -8 -52 -16 -10
-20 -24 -21 -70 l-1 -57 -8 46 c-4 26 -12 55 -18 65 -5 11 -13 50 -17 87 -4
37 -11 82 -17 100 -9 31 -23 110 -34 207 -3 25 -10 49 -15 55 -5 5 -9 28 -9
52 0 31 -4 43 -14 43 -19 0 -143 -58 -151 -70 -3 -6 -17 -10 -30 -10 -13 0
-25 -5 -27 -11 -2 -7 -10 -10 -17 -8 -7 3 21 23 63 44 42 22 76 43 76 48 0 4
7 7 16 7 15 0 44 23 44 34 0 3 -7 6 -16 6 -9 0 -12 5 -8 13 6 9 4 9 -8 -1 -9
-7 -29 -15 -44 -17 -16 -3 -41 -8 -56 -11 -22 -5 -28 -3 -28 10 0 20 -2 20
-47 1 -19 -8 -46 -15 -59 -15 -12 0 -26 -4 -29 -10 -4 -6 -13 -5 -26 3 -13 8
-22 9 -27 2 -10 -15 -49 -35 -67 -35 -9 0 -18 -7 -21 -15 -4 -8 -12 -15 -19
-15 -17 0 -157 -70 -174 -88 -10 -10 -11 -16 -3 -21 6 -4 -21 -5 -61 -4 -50 2
-67 0 -57 -7 13 -9 13 -11 0 -19 -17 -11 -30 -5 -30 13 0 19 44 46 74 46 14 0
28 5 31 10 4 6 11 8 16 5 5 -3 6 0 4 7 -5 13 51 48 76 48 5 0 19 9 31 20 12
11 30 20 40 20 10 0 18 5 18 11 0 7 10 9 24 7 17 -4 23 -1 19 8 -3 8 3 16 13
20 11 3 27 10 36 15 10 5 23 9 29 9 5 0 25 11 43 25 18 14 40 25 49 25 10 0
17 4 17 9 0 5 8 11 18 14 9 3 28 12 42 20 14 8 42 23 63 33 20 10 37 22 37 26
0 5 8 8 18 8 10 0 30 6 45 13 23 10 27 18 27 52 0 22 8 62 17 88 14 39 15 52
5 67 -7 11 -12 30 -12 44 0 13 -6 28 -12 33 -7 5 -65 10 -128 12 -63 2 -133 5
-155 7 -22 2 -58 5 -80 7 -22 2 -79 4 -127 5 -49 1 -88 5 -88 10 0 4 93 6 207
5 144 -1 210 1 214 9 4 6 25 12 47 12 46 1 47 2 56 39 5 20 3 27 -9 27 -8 0
-15 -9 -15 -20 0 -11 -7 -20 -15 -20 -17 0 -21 36 -5 42 7 2 5 11 -4 23 -14
20 -15 20 -36 -5 -21 -23 -22 -23 -16 -3 6 20 3 21 -91 29 -54 4 -123 8 -153
9 -120 4 -209 17 -203 31 6 16 39 19 48 4 9 -14 49 -12 63 2 9 9 15 10 20 2 5
-8 75 -13 208 -16 l202 -5 -5 41 c-3 23 -9 45 -14 50 -5 6 -9 25 -9 43 0 18
-4 33 -10 33 -5 0 -10 11 -10 24 0 14 -4 28 -10 31 -5 3 -10 19 -10 36 0 23
-4 29 -21 29 -11 0 -29 -5 -40 -10 -16 -9 -19 -7 -19 8 0 15 6 18 30 14 18 -3
30 0 30 7 0 6 -10 11 -22 11 -21 1 -21 2 -5 11 17 10 25 78 10 93 -10 9 -42
136 -42 168 -1 15 -10 43 -21 63 -16 28 -20 54 -20 118 0 50 -5 88 -12 95 -6
6 -11 36 -10 69 1 31 -2 61 -7 67 -11 14 -31 97 -40 166 -3 30 -10 60 -14 67
-4 6 -3 22 2 36 7 17 5 51 -4 103 -8 44 -14 103 -15 131 0 56 27 133 46 133 7
0 22 13 35 30 19 24 32 30 62 30 20 0 37 5 37 10 0 6 14 10 30 10 17 0 30 5
30 10 0 6 -3 10 -8 10 -10 0 -32 118 -25 136 3 8 12 14 19 14 8 0 26 7 39 16
17 11 36 14 56 10 48 -9 59 -27 59 -96 0 -55 2 -61 18 -55 9 3 29 9 45 12 15
3 27 9 27 13 0 14 60 512 95 780 18 146 41 282 49 302 30 70 91 125 166 149
14 4 88 7 166 6 136 -2 142 -3 183 -30z m585 23 c79 -13 132 -49 159 -108 l21
-47 -24 -185 c-12 -102 -27 -196 -32 -210 -15 -42 -56 -95 -88 -113 l-30 -18
30 -26 c67 -56 71 -94 40 -365 -23 -194 -44 -256 -105 -302 -66 -50 -99 -56
-336 -56 -199 0 -219 2 -219 17 0 9 29 251 65 537 35 287 74 599 85 695 11 96
23 178 26 182 7 12 335 11 408 -1z m741 -9 c51 -23 91 -70 106 -124 11 -37 4
-110 -54 -576 -71 -564 -77 -593 -135 -654 -57 -60 -94 -71 -248 -75 -163 -4
-211 9 -257 70 -46 60 -49 102 -22 313 14 105 43 343 65 529 45 373 51 398
120 464 60 59 102 70 255 71 106 0 138 -3 170 -18z m445 -5 c0 -26 -53 -471
-125 -1041 -25 -198 -45 -363 -45 -367 0 -5 -54 -8 -120 -8 l-119 0 4 28 c3
15 32 250 65 522 32 272 69 574 80 670 12 96 25 185 30 198 9 21 15 22 120 22
110 0 110 0 110 -24z m268 -81 c7 -55 16 -147 20 -205 l8 -105 13 45 c17 64
122 343 133 357 12 15 434 18 442 4 3 -4 -21 -199 -54 -432 -33 -233 -65 -461
-71 -506 l-11 -83 -89 0 c-86 0 -89 1 -89 23 0 12 22 238 49 502 27 264 48
481 46 483 -2 2 -17 -32 -33 -75 -17 -43 -80 -198 -140 -344 l-109 -266 57
-344 c58 -356 60 -361 76 -211 l7 62 108 0 c97 0 109 -2 109 -17 0 -10 -5 -64
-12 -120 l-12 -103 -221 0 -221 0 -22 173 c-12 94 -23 197 -23 227 l0 55 -24
-80 c-14 -44 -49 -145 -78 -225 l-54 -145 -116 -3 -116 -3 23 58 c13 32 30 74
39 93 8 19 65 158 127 309 l113 275 -58 342 c-31 188 -54 347 -50 353 4 8 42
11 113 9 l107 -3 13 -100z m-3723 -84 c-4 -14 0 -23 15 -31 24 -13 25 -20 7
-44 -10 -13 -20 -16 -35 -12 -26 9 -28 35 -7 76 17 34 29 40 20 11z m117 -26
c7 -33 6 -42 -9 -53 -30 -21 -48 -10 -51 32 -4 51 3 68 30 64 17 -2 24 -13 30
-43z m-131 -137 c26 -21 49 -38 52 -38 4 0 30 19 59 43 76 62 78 63 78 30 0
-23 -13 -38 -67 -81 l-66 -52 -36 27 c-68 49 -101 86 -101 111 0 27 -4 30 81
-40z m3824 -1279 c10 -15 -24 -49 -49 -49 -29 0 -66 11 -66 19 0 7 75 38 97
40 6 0 15 -4 18 -10z m-87 -54 c9 -9 -16 -23 -63 -36 -22 -6 -58 -20 -79 -30
-44 -21 -77 -24 -92 -9 -6 6 -15 6 -24 0 -12 -8 -10 -10 8 -10 36 0 25 -16
-20 -29 -24 -7 -55 -19 -70 -27 -14 -8 -33 -14 -40 -14 -8 0 -37 -11 -64 -25
-27 -14 -57 -25 -67 -25 -11 0 -30 -9 -44 -20 -14 -11 -36 -20 -49 -20 -13 0
-43 -11 -68 -25 -25 -14 -54 -25 -65 -25 -10 0 -21 -5 -23 -11 -2 -7 -10 -10
-17 -8 -13 5 39 33 119 64 25 10 59 23 75 30 17 7 55 23 85 35 58 23 75 30
128 52 36 15 42 28 12 28 -11 0 -20 -4 -20 -10 0 -5 -9 -10 -20 -10 -11 0 -28
-4 -38 -9 -23 -13 -117 -41 -134 -41 -25 1 37 29 65 30 15 0 27 5 27 10 0 6 7
10 15 10 8 0 23 4 33 9 9 5 42 17 72 26 30 9 64 19 75 24 44 18 121 41 138 41
9 0 17 3 17 8 0 24 107 39 128 17z m-618 -195 c-36 -11 -52 -11 -45 0 3 6 21
10 38 9 31 -1 31 -1 7 -9z m-104 -35 c-39 -20 -67 -21 -40 0 10 8 30 14 44 15
25 0 25 0 -4 -15z m-215 -61 c14 -13 21 -11 62 12 26 14 55 23 64 21 14 -4 13
-5 -4 -6 -13 0 -23 -5 -23 -11 0 -5 -9 -10 -20 -10 -11 0 -20 -4 -20 -10 0 -5
-7 -10 -15 -10 -9 0 -21 -11 -27 -25 -13 -30 -32 -32 -54 -7 -14 17 -20 18
-52 7 -19 -7 -41 -20 -47 -29 -16 -21 -42 -20 -54 2 -8 15 -32 18 -183 23
-169 5 -124 11 85 10 95 0 99 1 125 29 41 42 118 44 163 4z m-1441 16 c0 -5
-7 -10 -15 -10 -8 0 -15 5 -15 10 0 6 7 10 15 10 8 0 15 -4 15 -10z m878 -62
c-3 -7 -45 -18 -104 -25 -202 -27 -267 -39 -301 -55 -33 -16 -28 -33 10 -38
72 -10 584 -5 629 6 51 12 57 10 76 -24 9 -17 10 -27 3 -36 -17 -21 20 -186
42 -186 10 0 -34 -44 -53 -53 -19 -9 -47 -26 -87 -55 -18 -12 -63 -39 -100
-58 -37 -20 -70 -39 -73 -43 -10 -12 -129 -71 -144 -71 -9 0 -16 -4 -16 -9 0
-5 -8 -11 -17 -14 -24 -8 -124 -66 -144 -83 -8 -8 -23 -14 -32 -14 -9 0 -17
-4 -17 -10 0 -5 -9 -10 -19 -10 -11 0 -23 -4 -26 -10 -3 -5 3 -10 15 -10 21 0
21 0 1 -21 -11 -12 -24 -18 -30 -14 -6 3 -11 1 -11 -4 0 -6 -7 -11 -15 -11 -8
0 -15 -3 -15 -8 0 -4 -12 -15 -27 -24 l-28 -17 32 -1 c17 0 33 -5 35 -11 2 -7
18 -3 43 11 26 15 60 24 95 25 41 2 73 12 125 40 39 20 74 41 80 46 5 5 17 9
27 9 10 0 18 4 18 8 0 5 20 17 45 28 25 10 45 22 45 26 0 4 7 8 16 8 23 0 11
-24 -14 -28 -12 -2 -22 -8 -22 -13 0 -5 -9 -9 -20 -9 -11 0 -20 -4 -20 -10 0
-5 -7 -10 -15 -10 -8 0 -15 -4 -15 -8 0 -4 -20 -16 -45 -26 -25 -11 -50 -25
-56 -32 -6 -7 -27 -18 -47 -25 -20 -6 -46 -19 -57 -28 -29 -23 -63 -41 -78
-41 -8 0 -22 -9 -32 -20 -10 -11 -22 -20 -28 -20 -17 0 -82 -34 -90 -47 -4 -7
-17 -13 -27 -13 -24 0 -24 -7 -1 -93 21 -83 61 -127 113 -127 19 0 40 -6 47
-12 11 -10 14 -10 18 0 6 14 63 17 63 2 0 -14 36 -12 61 3 17 10 23 10 26 0 4
-10 48 -13 174 -13 106 0 169 -4 169 -10 0 -6 53 -10 139 -10 102 0 141 -3
144 -12 4 -10 7 -10 18 0 17 15 93 17 83 1 -3 -6 -19 -9 -35 -5 -16 3 -29 1
-31 -6 -2 -6 -24 -12 -49 -14 -24 -1 -53 -3 -64 -5 -13 -3 -19 1 -18 11 2 12
-8 15 -50 14 -28 0 -59 -4 -67 -8 -8 -3 -92 -8 -185 -10 -202 -5 -194 -4 -175
-16 11 -7 5 -10 -25 -10 -22 0 -47 -5 -55 -10 -12 -8 -11 -10 8 -10 12 0 22
-2 22 -4 0 -2 3 -11 6 -20 4 -12 0 -16 -15 -16 -13 0 -21 6 -21 16 0 11 -5 14
-16 10 -9 -3 -20 -6 -25 -6 -6 0 -7 -4 -4 -10 4 -6 -5 -10 -19 -10 -17 0 -26
-5 -26 -16 0 -13 -6 -15 -32 -9 -18 4 -42 6 -53 5 -63 -7 -78 -4 -89 15 -6 11
-11 21 -11 21 0 1 -10 5 -22 8 -21 7 -23 4 -23 -26 0 -40 23 -80 32 -56 5 12
29 14 134 11 71 -1 140 -6 154 -10 33 -9 48 -10 159 -13 52 -1 88 -6 80 -9 -8
-4 -90 -4 -184 -1 -93 4 -172 5 -174 3 -3 -2 3 -19 12 -38 9 -20 17 -47 17
-61 0 -13 6 -35 14 -47 24 -39 28 -74 9 -93 -16 -16 -16 -16 4 -10 16 5 23 1
31 -21 15 -42 50 -163 57 -200 4 -18 11 -33 16 -33 5 0 9 -18 9 -40 0 -22 5
-40 10 -40 6 0 10 -16 10 -35 0 -19 -4 -35 -10 -35 -5 0 -10 12 -10 26 0 18
-4 25 -14 21 -21 -8 -28 4 -9 18 15 11 14 15 -11 48 -26 34 -61 42 -49 11 7
-18 -4 -18 -23 0 -18 19 -18 26 1 26 8 0 15 5 15 10 0 14 -13 13 -28 -2 -19
-19 -50 15 -32 36 10 13 10 16 -4 16 -8 0 -22 14 -31 30 -17 33 -25 36 -43 18
-15 -15 -22 -7 -25 31 -1 23 -7 31 -21 31 -15 0 -17 5 -11 28 3 15 11 29 16
30 17 7 9 32 -11 32 -11 0 -20 3 -20 6 0 8 23 30 37 35 8 3 9 9 3 19 -8 12
-11 12 -28 -3 -25 -23 -42 -22 -42 3 0 13 -7 20 -18 20 -13 0 -23 15 -36 50
-13 36 -23 50 -37 50 -25 0 -25 30 0 37 19 5 19 6 -1 64 -26 77 -57 78 -58 1
-1 -23 -3 -21 -14 13 -8 22 -17 57 -20 78 -6 32 -10 36 -29 32 -17 -4 -26 1
-39 24 -24 43 -4 57 32 21 15 -15 20 -16 20 -6 0 8 -5 16 -10 18 -10 3 -11 19
-9 91 1 15 -5 42 -12 58 -11 28 -16 31 -47 25 -33 -5 -34 -4 -18 13 16 17 15
19 -6 24 -18 5 -20 9 -11 18 10 10 18 10 38 1 31 -14 45 -8 45 19 0 11 4 17
10 14 5 -3 18 -1 29 4 16 9 18 18 14 51 -6 45 3 50 35 19 19 -17 24 -18 36 -6
10 9 11 18 4 31 -5 10 -9 58 -9 107 1 53 -3 89 -9 89 -5 0 -10 17 -10 39 0 21
-7 52 -15 67 -8 16 -15 39 -15 52 0 13 -5 32 -10 43 -10 17 -7 19 30 19 29 0
40 4 37 13 -2 7 -16 11 -32 9 -33 -4 -45 10 -45 60 0 20 -4 40 -10 43 -12 7
-14 75 -2 75 5 0 15 -26 22 -57 16 -77 23 -87 57 -88 23 0 29 -5 31 -27 3 -22
-2 -30 -22 -38 -24 -9 -26 -15 -26 -65 0 -30 4 -55 9 -55 9 0 12 -10 34 -125
12 -66 15 -70 38 -67 13 2 26 8 27 13 2 5 8 9 14 9 5 0 22 8 36 19 15 10 38
22 52 26 14 4 32 14 41 21 13 12 72 42 169 87 14 7 31 18 38 25 7 6 20 12 27
12 14 0 102 45 120 61 5 5 19 9 32 9 13 0 23 5 23 10 0 6 6 10 14 10 7 0 19 7
26 15 7 9 29 22 49 31 20 9 43 20 51 24 8 5 39 21 67 36 48 24 52 29 47 53 -4
14 -11 34 -15 43 -5 9 -9 32 -9 51 0 19 -9 55 -20 81 l-21 46 -100 0 c-62 0
-107 -5 -119 -12 -16 -10 -24 -10 -40 0 -24 15 -57 16 -65 2 -3 -5 -15 -10
-26 -10 -10 0 -19 5 -19 10 0 6 -15 10 -34 10 -19 0 -38 -4 -41 -10 -8 -12
-45 -13 -45 -1 0 5 -59 9 -130 10 -128 1 -170 10 -170 37 0 6 10 16 23 23 23
12 193 43 337 62 47 6 99 14 115 19 45 12 67 11 63 -2z m695 5 c-20 -7 -15
-23 6 -23 26 0 30 -7 36 -76 10 -99 24 -133 62 -149 30 -13 33 -18 33 -55 0
-31 -6 -47 -26 -67 -14 -14 -28 -22 -32 -18 -4 4 1 12 11 19 9 7 17 18 17 25
0 6 5 11 10 11 6 0 10 12 10 26 0 24 -2 26 -34 20 -29 -6 -35 -3 -41 14 -3 11
-3 25 0 30 4 6 2 16 -3 23 -6 7 -13 38 -17 70 -4 31 -12 60 -17 63 -5 3 -13
17 -18 30 -6 14 -18 24 -30 24 -11 0 -20 6 -20 13 0 20 10 27 39 26 14 0 20
-3 14 -6z m-187 -47 c8 -8 14 -19 14 -23 0 -5 14 -22 31 -39 17 -16 40 -46 52
-66 11 -21 29 -40 39 -44 14 -4 18 -16 18 -60 0 -30 -4 -54 -10 -54 -5 0 -10
-13 -10 -30 0 -18 -5 -30 -13 -30 -28 0 -76 78 -80 128 -2 34 -38 71 -74 78
-26 5 -33 3 -33 -9 0 -31 -20 -27 -33 5 -10 24 -11 37 -4 46 6 8 10 27 9 42
-2 29 23 65 38 55 5 -3 11 -1 15 5 9 14 24 12 41 -4z m14 -261 c0 -8 -7 -15
-15 -15 -9 0 -12 6 -9 15 4 8 10 15 15 15 5 0 9 -7 9 -15z m-2200 -93 c0 -19
-42 -62 -60 -62 -6 0 -10 -4 -10 -9 0 -12 -56 -34 -72 -29 -11 4 -30 -8 -63
-39 -8 -7 -24 -13 -36 -13 -12 0 -37 -11 -55 -25 -18 -14 -42 -25 -53 -25 -12
0 -21 -4 -21 -10 0 -5 -9 -10 -19 -10 -11 0 -21 -4 -23 -9 -1 -5 -21 -12 -43
-16 l-40 -7 29 16 c15 9 33 16 40 16 6 0 28 11 48 25 20 14 46 25 57 25 12 0
21 3 21 8 0 4 20 15 45 25 25 11 45 23 45 28 0 5 8 9 18 10 29 1 117 54 120
72 3 14 -5 17 -49 17 -52 0 -66 -3 -164 -34 -27 -9 -62 -16 -77 -16 -16 0 -28
-4 -28 -10 0 -5 -7 -10 -15 -10 -8 0 -23 -4 -33 -9 -9 -5 -48 -21 -87 -36 -38
-15 -78 -31 -88 -36 -11 -6 -22 -8 -25 -5 -3 4 9 12 26 18 18 7 32 16 32 20 0
4 11 8 24 8 13 0 26 4 28 10 4 12 132 60 159 60 11 0 19 5 19 10 0 6 13 10 29
10 17 0 33 5 36 10 3 6 21 10 38 10 18 1 43 7 57 15 16 9 55 14 108 15 73 0
82 -2 82 -18z m2413 -19 c-7 -2 -21 -2 -30 0 -10 3 -4 5 12 5 17 0 24 -2 18
-5z m-68 -20 c-11 -3 -27 -14 -36 -24 -9 -11 -21 -19 -27 -19 -6 0 -32 -7 -57
-16 -26 -8 -58 -14 -73 -12 -21 3 -15 6 28 17 62 14 116 37 125 51 3 6 18 9
33 9 21 -1 23 -2 7 -6z m-237 -96 c-28 -26 -68 -47 -90 -46 -21 1 -21 2 -3 6
11 3 22 8 25 12 7 9 64 40 73 41 5 0 2 -6 -5 -13z m-2768 -52 c-7 -8 -19 -15
-27 -15 -19 0 -63 -45 -63 -64 0 -9 -9 -20 -20 -26 -21 -11 -21 -11 2 -40 51
-63 58 -75 54 -90 -3 -8 -8 -33 -12 -55 l-7 -40 -9 32 c-5 20 -19 37 -38 47
-32 15 -44 8 -34 -19 4 -10 -1 -22 -15 -31 -27 -19 -27 -37 -1 -29 16 5 20 2
20 -19 0 -14 -4 -26 -10 -26 -5 0 -10 -11 -10 -25 0 -14 5 -25 11 -25 6 0 9
-6 6 -12 -2 -7 -11 -12 -21 -10 -11 2 -16 -4 -16 -23 0 -18 5 -25 20 -25 27 0
25 -13 -4 -26 -21 -10 -26 -7 -53 35 -16 25 -32 53 -36 62 -7 20 23 142 47
187 11 21 15 44 11 62 -5 24 -2 31 24 46 17 10 31 22 31 26 0 21 -66 -3 -83
-29 -9 -15 -49 -17 -62 -4 -9 8 -202 -3 -233 -14 -8 -3 -11 -13 -7 -25 5 -16
2 -20 -14 -20 -12 0 -21 5 -21 10 0 6 -18 10 -40 10 -22 0 -40 -4 -40 -9 0 -5
-44 -11 -97 -14 -54 -3 -129 -8 -168 -11 -38 -3 -122 -10 -185 -15 -63 -5
-126 -11 -140 -14 -14 -4 -31 -2 -39 3 -22 13 1 35 39 38 18 1 45 9 60 17 16
8 42 15 59 15 16 0 32 4 35 9 4 5 78 10 165 10 88 1 186 6 218 12 32 5 101 12
153 15 52 2 116 10 142 16 37 9 50 9 62 -1 18 -15 34 -7 91 43 27 24 36 26 95
22 48 -3 69 0 83 12 41 36 102 57 77 27z m2646 -20 c-8 -8 -22 -15 -30 -15 -9
0 -16 -4 -16 -9 0 -5 -10 -11 -23 -15 -12 -3 -32 -14 -44 -26 -12 -11 -31 -20
-42 -20 -11 0 -23 -4 -26 -10 -8 -13 -25 -13 -25 -1 0 5 9 13 20 16 11 4 55
26 98 51 79 45 117 58 88 29z m-2500 -70 c-11 -8 -32 -15 -48 -15 -26 0 -28
-3 -28 -39 0 -22 5 -43 10 -46 6 -3 10 -25 9 -48 l-1 -42 -16 53 c-11 34 -22
52 -32 52 -12 0 -15 8 -12 34 4 31 8 35 43 41 21 4 41 11 45 16 3 5 15 9 27 9
22 -1 22 -1 3 -15z m4449 -69 c12 -11 10 -17 -11 -35 -13 -11 -32 -21 -42 -21
-10 0 -26 -6 -37 -14 -11 -7 -45 -19 -75 -26 -30 -7 -65 -18 -77 -26 -12 -8
-33 -14 -45 -14 -16 0 -6 8 32 26 30 15 66 29 80 33 14 4 25 14 25 22 0 11
-23 14 -120 14 -140 -1 -315 -12 -365 -24 -64 -16 -207 -41 -231 -41 -23 0
-23 1 5 15 15 8 41 15 57 15 16 0 29 5 29 10 0 6 23 10 50 10 28 0 58 4 68 9
9 5 62 14 117 21 174 20 214 25 221 33 4 4 74 7 156 7 113 0 153 -3 163 -14z
m-2500 -6 c3 -5 1 -10 -4 -10 -6 0 -11 5 -11 10 0 6 2 10 4 10 3 0 8 -4 11
-10z m-2425 -26 c0 -8 -6 -22 -14 -29 -14 -14 -12 -94 4 -125 4 -8 11 -34 15
-57 4 -24 11 -45 16 -49 5 -3 9 -14 9 -25 0 -10 5 -19 10 -19 6 0 10 -4 10
-10 0 -14 -27 -12 -33 3 -3 9 -9 8 -21 -3 -14 -13 -14 -20 -4 -43 7 -15 24
-31 38 -36 22 -8 20 -10 -18 -10 -42 -1 -44 0 -64 46 l-21 47 31 24 c25 19 29
27 22 43 -6 10 -14 28 -20 39 -5 11 -10 31 -10 45 0 14 -7 39 -15 56 -14 27
-14 33 0 61 8 17 15 33 15 35 0 1 -29 3 -65 3 -37 0 -65 4 -65 10 0 6 37 10
90 10 75 0 90 -3 90 -16z m3010 -84 c47 -12 101 -24 120 -26 19 -3 37 -8 40
-13 5 -8 38 -23 55 -26 44 -6 85 -19 85 -26 0 -5 9 -9 20 -9 11 0 20 -4 20
-10 0 -5 13 -10 29 -10 17 0 33 -5 37 -11 4 -8 16 -1 34 20 21 24 36 31 63 31
20 0 39 -4 42 -10 3 -5 21 -10 40 -10 18 0 36 -6 38 -12 4 -10 8 -10 15 0 5 8
18 12 28 9 15 -4 13 -7 -13 -18 -25 -10 -32 -18 -27 -31 4 -13 0 -18 -15 -18
-10 0 -26 -3 -35 -6 -11 -4 -16 -1 -16 10 0 17 -14 19 -72 10 -24 -4 -38 -13
-41 -25 -7 -27 -32 -24 -51 6 -10 15 -26 25 -41 25 -13 0 -34 4 -47 9 -13 5
-50 17 -83 26 -33 9 -69 20 -80 25 -76 29 -129 40 -187 40 -74 0 -84 -15 -25
-38 17 -7 40 -18 49 -23 10 -5 33 -9 51 -9 19 0 37 -3 41 -7 3 -4 14 -8 24 -9
9 -2 37 -6 62 -9 68 -9 85 -16 69 -25 -7 -5 -21 -4 -30 1 -10 5 -51 13 -91 18
-113 15 -140 20 -178 30 -19 6 -56 13 -82 16 -26 3 -50 10 -53 16 -4 5 -16 9
-27 9 -30 0 -49 29 -34 55 17 30 36 39 96 46 63 6 58 7 170 -21z m965 -15
c-77 -18 -84 -17 -61 0 12 9 40 15 70 14 l51 -1 -60 -13z m-3535 -15 c0 -11 5
-20 10 -20 6 0 10 -16 10 -35 0 -24 -5 -35 -14 -35 -21 0 -30 19 -16 35 7 9 8
15 0 20 -13 8 -13 55 0 55 6 0 10 -9 10 -20z m3430 -7 c-14 -3 -29 -9 -34 -14
-6 -5 -21 -9 -35 -9 l-26 0 25 14 c14 8 41 14 60 14 26 -1 28 -2 10 -5z m724
-8 c-10 -8 -32 -14 -49 -14 -21 1 -24 3 -10 6 11 3 24 9 30 14 5 5 18 9 29 9
20 0 20 0 0 -15z m-84 -25 c0 -5 -7 -10 -16 -10 -8 0 -12 5 -9 10 3 6 10 10
16 10 5 0 9 -4 9 -10z m-764 -15 c-30 -16 -43 -14 -31 4 3 6 18 11 33 11 l27
0 -29 -15z m-1766 1 c0 -3 -4 -8 -10 -11 -5 -3 -10 -1 -10 4 0 6 5 11 10 11 6
0 10 -2 10 -4z m2490 -5 c0 -11 -78 -26 -87 -17 -4 3 5 6 20 6 14 0 29 5 32
10 8 13 35 13 35 1z m-3770 -40 c0 -9 -209 -4 -219 5 -2 2 46 4 107 4 64 0
112 -4 112 -9z m3640 -6 c-46 -18 -61 -18 -30 0 14 8 34 14 45 14 13 0 8 -5
-15 -14z m-83 -21 c-3 -3 -12 -4 -19 -1 -8 3 -5 6 6 6 11 1 17 -2 13 -5z m-47
-14 c0 -5 -15 -9 -32 -9 l-33 1 30 8 c17 4 31 8 33 9 1 0 2 -3 2 -9z m-874
-15 c17 -9 22 -15 13 -15 -9 0 -30 7 -45 15 -17 9 -22 15 -13 15 9 0 30 -7 45
-15z m792 -12 c-10 -2 -26 -2 -35 0 -10 3 -2 5 17 5 19 0 27 -2 18 -5z m-58
-13 c0 -5 -13 -10 -29 -10 -17 0 -33 -4 -36 -10 -3 -5 -42 -10 -86 -10 l-80 0
2 -75 c1 -42 -1 -78 -5 -82 -3 -3 -6 10 -6 30 0 20 -4 39 -10 42 -5 3 -10 17
-10 31 0 17 -5 24 -20 24 -11 0 -20 5 -20 11 0 26 29 36 106 38 44 1 93 6 110
10 40 13 84 13 84 1z m-696 -15 c-7 -16 -24 -21 -24 -6 0 8 7 13 27 20 1 1 0
-6 -3 -14z m116 -15 c0 -11 -4 -20 -9 -20 -5 0 -11 -9 -14 -19 -2 -10 -15 -24
-27 -31 -20 -11 -22 -10 -17 5 4 9 7 23 7 30 0 15 38 55 52 55 4 0 8 -9 8 -20z
m-165 -20 c-10 -11 -20 -18 -23 -16 -5 6 21 35 32 36 5 0 1 -9 -9 -20z m-1732
-15 c4 -8 2 -17 -3 -20 -6 -4 -10 3 -10 14 0 25 6 27 13 6z m-1193 -16 c0 -7
-9 -9 -22 -6 -12 4 -27 2 -32 -2 -6 -5 -38 -12 -71 -15 -59 -5 -59 -5 -15 5
25 6 54 15 65 19 29 13 75 12 75 -1z m2901 -19 c5 0 9 -7 9 -15 0 -8 -4 -15
-10 -15 -17 0 -11 -37 7 -44 14 -6 12 -10 -12 -26 -38 -25 -55 -26 -27 -2 18
16 20 24 12 52 -5 18 -6 45 -3 59 5 19 8 22 11 9 2 -10 8 -18 13 -18z m-2808
13 c-7 -2 -21 -2 -30 0 -10 3 -4 5 12 5 17 0 24 -2 18 -5z m-313 -13 c-8 -5
-22 -10 -30 -10 -13 0 -13 1 0 10 8 5 22 10 30 10 13 0 13 -1 0 -10z m378 3
c-10 -2 -26 -2 -35 0 -10 3 -2 5 17 5 19 0 27 -2 18 -5z m85 0 c-13 -2 -33 -2
-45 0 -13 2 -3 4 22 4 25 0 35 -2 23 -4z m102 -3 c-8 -13 -35 -13 -55 0 -11 7
-5 10 23 10 23 0 36 -4 32 -10z m3119 -126 c3 -8 1 -24 -4 -34 -15 -27 -12
-40 8 -41 9 0 42 -8 72 -18 l55 -18 6 -54 c3 -30 4 -56 2 -59 -8 -10 -23 26
-21 50 3 24 1 25 -49 25 -37 -1 -53 3 -53 12 0 7 -7 13 -15 13 -10 0 -15 7
-13 18 2 11 -4 18 -19 20 -28 4 -30 23 -4 39 13 8 17 19 14 37 -6 28 11 36 21
10z m-3154 -21 c0 -54 -55 -130 -130 -182 -19 -14 -41 -33 -48 -43 -7 -10 -19
-18 -26 -18 -7 0 -22 -9 -33 -19 -12 -11 -23 -17 -26 -14 -7 6 30 43 59 59 10
6 24 20 29 30 6 11 20 34 33 52 61 84 -66 -13 -243 -185 -36 -35 -67 -63 -71
-63 -3 0 -14 -10 -23 -22 -15 -17 -16 -27 -7 -49 5 -16 6 -32 2 -36 -5 -4 -11
-2 -13 5 -4 9 -8 10 -18 2 -10 -8 -17 -6 -27 9 -13 19 -16 19 -37 5 -15 -11
-20 -22 -16 -35 5 -14 0 -20 -19 -25 -14 -3 -30 -3 -36 1 -16 10 -50 -4 -50
-21 0 -8 -4 -14 -8 -14 -4 0 -8 12 -7 27 0 18 -5 28 -15 29 -8 0 -53 3 -100 4
l-85 4 105 5 104 6 29 43 28 42 65 0 65 0 87 88 c101 103 182 193 182 204 0 5
8 8 18 8 10 0 24 9 32 21 20 28 134 80 193 88 4 1 7 -2 7 -6z m1248 -55 c-2
-13 -10 -24 -19 -26 -21 -4 -34 28 -17 40 24 15 39 9 36 -14z m-118 -38 c0 -5
-4 -10 -10 -10 -5 0 -10 5 -10 10 0 6 5 10 10 10 6 0 10 -4 10 -10z m90 -25
c0 -8 -4 -15 -10 -15 -5 0 -10 7 -10 15 0 8 5 15 10 15 6 0 10 -7 10 -15z
m-13 -39 c15 -8 36 -17 46 -20 9 -3 17 -13 17 -22 0 -12 -7 -15 -25 -12 -14 3
-28 1 -31 -3 -3 -5 -14 -9 -25 -9 -10 0 -19 -4 -19 -10 0 -5 -24 -10 -54 -10
-34 0 -56 -5 -59 -12 -3 -7 -6 -3 -6 8 -1 12 6 24 14 28 8 3 15 12 15 20 0 16
57 56 82 56 9 0 29 -7 45 -14z m893 -36 c0 -5 -4 -10 -9 -10 -6 0 -13 5 -16
10 -3 6 1 10 9 10 9 0 16 -4 16 -10z m245 -42 c-3 -23 -10 -47 -15 -52 -6 -6
-10 -14 -10 -18 0 -15 21 -8 54 17 18 14 36 25 40 25 4 0 16 9 28 20 12 11 24
17 27 14 3 -3 -5 -14 -19 -23 -14 -9 -34 -25 -45 -36 -11 -11 -37 -29 -58 -39
-32 -16 -40 -17 -47 -6 -9 15 -2 80 11 95 24 26 7 34 -73 38 l-83 3 98 2 97 2
-5 -42z m213 17 c3 -3 -15 -5 -39 -4 -32 0 -39 3 -24 8 20 8 53 6 63 -4z m100
-2 c-10 -2 -28 -2 -40 0 -13 2 -5 4 17 4 22 1 32 -1 23 -4z m596 -8 c-21 -16
-95 -21 -78 -6 8 8 34 14 83 20 10 1 8 -4 -5 -14z m-411 -12 c-7 -2 -19 -2
-25 0 -7 3 -2 5 12 5 14 0 19 -2 13 -5z m-53 -7 c0 -8 -61 -12 -66 -4 -3 4 11
8 30 8 20 0 36 -2 36 -4z m130 -6 c0 -5 -13 -10 -30 -10 -16 0 -30 5 -30 10 0
6 14 10 30 10 17 0 30 -4 30 -10z m210 0 c0 -10 -148 -4 -159 6 -2 2 32 4 77
4 50 0 82 -4 82 -10z m-3435 -60 c-3 -5 -11 -10 -16 -10 -6 0 -7 5 -4 10 3 6
11 10 16 10 6 0 7 -4 4 -10z m-95 -75 c0 -2 -11 -15 -25 -29 -31 -31 -31 -34
-2 -46 21 -8 21 -9 -5 -9 -37 -1 -37 27 -2 63 26 25 34 31 34 21z m90 -146 c0
-22 5 -29 20 -29 11 0 20 -4 20 -10 0 -6 26 -10 59 -10 55 0 59 -2 65 -25 4
-14 4 -30 1 -34 -6 -10 -94 14 -109 29 -6 6 -23 10 -38 10 -30 0 -111 18 -143
31 -11 5 -39 13 -63 18 -51 11 -56 15 -49 36 9 21 43 19 67 -5 11 -11 31 -20
44 -20 14 0 28 -4 31 -10 3 -5 18 -10 32 -10 18 0 24 4 20 15 -4 8 -2 17 3 20
6 4 10 15 10 27 0 17 2 18 15 8 8 -7 15 -25 15 -41z m-662 14 c-10 -2 -28 -2
-40 0 -13 2 -5 4 17 4 22 1 32 -1 23 -4z m1397 -2 c-9 -16 -67 -41 -77 -35 -6
4 7 15 28 24 45 21 58 24 49 11z m-1510 -23 c-27 -5 -68 -11 -90 -14 -22 -3
-44 -10 -49 -15 -13 -12 -66 -11 -66 1 0 6 11 10 24 10 14 0 27 4 31 10 3 5
11 7 18 5 7 -3 26 -1 42 4 17 5 55 9 85 9 l55 -1 -50 -9z m1410 -27 c-5 -9
-62 -41 -72 -41 -3 0 2 7 11 15 8 8 22 15 30 15 9 0 16 5 16 10 0 6 5 10 11
10 5 0 8 -4 4 -9z m1235 -1 c0 -5 -4 -10 -10 -10 -5 0 -10 5 -10 10 0 6 5 10
10 10 6 0 10 -4 10 -10z m-2877 -17 c-7 -2 -21 -2 -30 0 -10 3 -4 5 12 5 17 0
24 -2 18 -5z m-53 -17 c0 -2 -13 -6 -30 -8 -16 -3 -30 -1 -30 4 0 4 14 8 30 8
17 0 30 -2 30 -4z m710 -6 c0 -5 -2 -10 -4 -10 -3 0 -8 5 -11 10 -3 6 -1 10 4
10 6 0 11 -4 11 -10z m885 -15 c-11 -8 -26 -19 -33 -25 -7 -6 -20 -10 -30 -8
-11 2 -2 11 28 26 51 25 64 28 35 7z m-975 -19 c0 -8 -4 -18 -10 -21 -14 -9
-12 -45 6 -112 9 -32 18 -69 21 -83 3 -14 11 -29 17 -35 7 -6 10 -32 8 -67
l-4 -57 -35 -3 c-43 -4 -64 -29 -42 -49 28 -27 67 -42 94 -35 17 4 24 3 20 -4
-3 -5 -19 -10 -34 -10 -15 0 -32 -5 -39 -12 -20 -20 -55 8 -76 59 l-19 46 24
19 c13 10 30 23 37 29 7 5 17 7 24 3 7 -4 8 -3 4 4 -4 6 3 21 14 32 l20 20
-24 11 c-24 11 -28 20 -46 109 -16 77 -40 120 -66 120 -12 0 -24 -4 -26 -9 -1
-5 -25 -12 -53 -15 -49 -6 -48 -6 21 16 39 13 77 28 85 34 32 26 79 31 79 10z
m1630 -28 c0 -10 -4 -18 -9 -18 -15 0 -26 23 -13 28 6 2 8 11 5 20 -4 15 -3
15 6 2 6 -8 11 -23 11 -32z m730 32 c0 -5 -4 -10 -10 -10 -5 0 -10 5 -10 10 0
6 5 10 10 10 6 0 10 -4 10 -10z m-3150 -10 c-8 -5 -19 -10 -25 -10 -5 0 -3 5
5 10 8 5 20 10 25 10 6 0 3 -5 -5 -10z m-40 -20 c0 -5 -10 -10 -23 -10 -13 0
-27 -3 -31 -7 -3 -4 -16 -8 -29 -10 -37 -6 -6 15 38 26 22 5 41 9 43 10 1 1 2
-3 2 -9z m910 -20 c0 -5 -4 -10 -10 -10 -5 0 -10 5 -10 10 0 6 5 10 10 10 6 0
10 -4 10 -10z m796 -37 c7 -7 16 -13 21 -13 20 0 63 -26 63 -37 0 -7 -12 -15
-27 -18 -16 -4 -36 -10 -45 -16 -23 -12 -98 -12 -98 1 0 6 -13 10 -29 10 -16
0 -42 7 -57 15 -27 15 -23 15 64 9 56 -4 92 -3 92 3 0 12 -38 53 -50 53 -18 0
-10 17 13 27 17 8 24 7 31 -6 5 -9 15 -22 22 -28z m-1849 1 c-3 -3 -12 -4 -19
-1 -8 3 -5 6 6 6 11 1 17 -2 13 -5z m698 -1 c-11 -3 -24 -9 -29 -14 -6 -5 -31
-9 -56 -9 -25 0 -51 -5 -56 -10 -7 -7 -19 -7 -35 -1 -21 8 -18 9 26 15 28 4
61 10 75 15 14 5 41 9 60 9 19 0 26 -2 15 -5z m-240 -43 c-3 -5 -23 -10 -43
-9 -30 0 -33 2 -17 9 28 12 67 12 60 0z m-122 -7 c-13 -2 -33 -2 -45 0 -13 2
-3 4 22 4 25 0 35 -2 23 -4z m3142 -12 c7 -12 -12 -24 -25 -16 -11 7 -4 25 10
25 5 0 11 -4 15 -9z m-1905 -41 c0 -5 -8 -10 -17 -10 -15 0 -16 2 -3 10 19 12
20 12 20 0z m2001 -56 c6 -7 4 -16 -5 -23 -11 -9 -14 -5 -18 24 -4 37 4 60 11
28 2 -10 7 -23 12 -29z m-2136 -44 c-3 -5 -12 -10 -18 -10 -7 0 -6 4 3 10 19
12 23 12 15 0z m2125 -70 c0 -16 -4 -30 -8 -30 -5 0 -7 14 -4 30 2 17 6 30 8
30 2 0 4 -13 4 -30z m-2322 -47 c-10 -2 -28 -2 -40 0 -13 2 -5 4 17 4 22 1 32
-1 23 -4z m2299 -35 c-3 -7 -5 -2 -5 12 0 14 2 19 5 13 2 -7 2 -19 0 -25z
m-1577 -63 c13 -16 6 -35 -15 -35 -18 0 -26 15 -19 34 8 20 18 20 34 1z m1418
-185 c-23 -22 -49 -40 -55 -40 -7 0 -13 -4 -13 -10 0 -5 -7 -10 -16 -10 -14 0
-14 3 -4 15 7 8 16 15 21 15 5 0 17 7 26 14 55 46 69 55 76 56 5 0 -11 -18
-35 -40z m-581 -56 c-3 -3 -12 -4 -19 -1 -8 3 -5 6 6 6 11 1 17 -2 13 -5z
m473 -14 c0 -5 -2 -10 -4 -10 -3 0 -8 5 -11 10 -3 6 -1 10 4 10 6 0 11 -4 11
-10z m-46 -22 c-15 -7 -28 -7 -40 1 -16 9 -12 10 21 10 35 0 37 -2 19 -11z
m-271 -15 c-7 -2 -21 -2 -30 0 -10 3 -4 5 12 5 17 0 24 -2 18 -5z m170 0 c-7
-2 -21 -2 -30 0 -10 3 -4 5 12 5 17 0 24 -2 18 -5z m251 -610 c8 -19 -17 -48
-33 -39 -6 4 -11 18 -11 32 0 28 34 34 44 7z"/>
<path d="M3954 9852 l-31 -3 -6 -217 c-8 -275 -23 -396 -73 -569 -6 -23 -6
-23 110 -23 l116 0 0 404 0 404 -42 3 c-24 2 -57 3 -74 1z"/>
<path d="M6785 9842 c-60 -20 -84 -67 -85 -167 0 -130 29 -165 140 -165 l60 0
-2 168 -3 167 -45 2 c-25 1 -54 -2 -65 -5z"/>
<path d="M2160 9666 c0 -158 2 -188 15 -192 31 -12 125 7 153 31 27 23 27 24
27 154 0 128 -1 131 -26 157 -23 22 -38 27 -98 32 l-71 5 0 -187z"/>
<path d="M1610 8348 c0 -155 -13 -371 -31 -511 -10 -80 -56 -286 -74 -329 -7
-17 4 -18 139 -18 l146 0 -2 498 -3 497 -87 3 -88 3 0 -143z"/>
<path d="M2290 8261 c0 -40 1 -40 187 -193 270 -221 261 -215 289 -197 13 8
111 86 219 174 108 88 203 165 211 171 13 10 21 84 9 84 -3 0 -106 -81 -229
-180 -123 -99 -227 -180 -232 -180 -13 1 -39 21 -351 278 l-103 84 0 -41z"/>
<path d="M2688 7722 c-26 -20 -45 -42 -43 -48 7 -22 95 -154 102 -154 5 0 29
35 55 78 l46 77 -43 43 c-24 23 -50 42 -57 42 -7 -1 -34 -18 -60 -38z"/>
<path d="M3523 7387 c-24 -12 -32 -60 -13 -72 6 -3 10 -14 10 -24 0 -17 39
-52 57 -51 4 1 17 16 29 33 18 29 19 39 10 78 -10 39 -14 44 -41 46 -16 0 -40
-4 -52 -10z"/>
<path d="M3648 7243 c6 -2 18 -2 25 0 6 3 1 5 -13 5 -14 0 -19 -2 -12 -5z"/>
<path d="M3620 7210 c0 -5 -13 -10 -30 -10 -31 0 -38 -13 -20 -40 8 -13 11
-11 16 8 7 24 20 29 27 10 3 -8 6 -6 6 5 1 9 8 17 17 17 8 0 12 5 9 10 -3 6
-10 10 -16 10 -5 0 -9 -4 -9 -10z"/>
<path d="M3458 7193 c7 -3 16 -2 19 1 4 3 -2 6 -13 5 -11 0 -14 -3 -6 -6z"/>
<path d="M3817 7034 c-6 -6 -142 -40 -232 -57 -33 -6 -62 -14 -65 -18 -3 -4
-19 -7 -36 -7 -27 1 -100 -37 -130 -67 -21 -20 -43 -225 -25 -225 6 0 11 7 11
16 0 9 23 38 51 64 45 42 57 48 107 53 62 7 124 19 187 37 22 6 51 13 65 14
14 1 32 5 40 8 87 32 118 37 168 29 31 -5 62 -17 75 -30 50 -46 50 -14 0 62
-22 33 -45 57 -55 57 -10 0 -18 5 -18 10 0 6 -7 10 -16 10 -9 0 -14 6 -12 12
9 25 -94 53 -115 32z"/>
<path d="M3870 6830 c0 -5 5 -10 10 -10 6 0 10 5 10 10 0 6 -4 10 -10 10 -5 0
-10 -4 -10 -10z"/>
<path d="M3706 6814 c-5 -12 -1 -14 17 -9 35 11 44 25 15 25 -14 0 -29 -7 -32
-16z"/>
<path d="M3636 6793 c-13 -13 -5 -23 19 -23 16 0 25 -6 25 -15 0 -8 7 -15 15
-15 20 0 19 10 -2 27 -31 23 -50 33 -57 26z"/>
<path d="M3795 6789 c-19 -7 -19 -8 1 -8 12 -1 28 -10 35 -21 14 -20 14 -19
36 5 l21 25 -24 -6 c-13 -3 -30 -2 -37 4 -7 5 -21 6 -32 1z"/>
<path d="M3780 6741 c0 -5 7 -11 14 -14 10 -4 13 -1 9 9 -6 15 -23 19 -23 5z"/>
<path d="M3900 6702 c0 -48 6 -55 30 -34 17 14 17 18 4 44 -20 39 -34 35 -34
-10z"/>
<path d="M3471 6714 c0 -11 3 -14 6 -6 3 7 2 16 -1 19 -3 4 -6 -2 -5 -13z"/>
<path d="M3528 6603 c6 -2 18 -2 25 0 6 3 1 5 -13 5 -14 0 -19 -2 -12 -5z"/>
<path d="M3525 5470 c-3 -5 1 -10 9 -10 9 0 16 5 16 10 0 6 -4 10 -9 10 -6 0
-13 -4 -16 -10z"/>
<path d="M3915 5141 c-3 -5 -2 -12 3 -15 5 -3 9 1 9 9 0 17 -3 19 -12 6z"/>
<path d="M3776 4985 c-3 -8 -15 -15 -26 -15 -18 0 -19 -3 -10 -20 13 -23 6
-40 -17 -40 -8 0 -26 -9 -40 -20 -25 -19 -25 -20 -4 -20 12 0 40 10 62 23 37
20 41 21 53 5 7 -10 17 -14 25 -8 11 6 10 17 -5 59 -19 53 -28 62 -38 36z"/>
<path d="M3800 4761 c0 -29 24 -49 36 -30 10 17 -5 59 -21 59 -10 0 -15 -10
-15 -29z"/>
<path d="M3770 4731 c0 -17 12 -41 20 -41 5 0 7 8 5 18 -2 9 -4 20 -4 25 -1
10 -21 9 -21 -2z"/>
<path d="M3770 4641 c0 -10 19 -25 25 -20 1 2 -3 10 -11 17 -8 7 -14 8 -14 3z"/>
<path d="M4752 8158 c-12 -101 -22 -189 -22 -195 0 -9 17 -13 50 -13 78 0 83
9 105 197 10 88 15 168 12 177 -5 12 -20 16 -65 16 l-58 0 -22 -182z"/>
<path d="M4681 7568 c-12 -101 -25 -200 -28 -220 l-6 -38 65 0 c40 0 69 5 76
13 13 16 58 388 49 410 -5 14 -19 17 -70 17 l-64 0 -22 -182z"/>
<path d="M5450 8308 c-8 -20 -39 -262 -105 -821 -9 -76 -14 -145 -11 -153 8
-20 109 -19 126 1 7 8 31 175 56 387 24 205 50 420 58 478 9 71 10 109 4 118
-6 7 -33 12 -64 12 -47 0 -56 -3 -64 -22z"/>
<path d="M2687 8314 c-13 -13 -7 -24 14 -24 11 0 19 5 17 12 -5 14 -22 21 -31
12z"/>
<path d="M2770 8355 c0 -8 9 -15 20 -15 11 0 20 7 20 15 0 8 -9 15 -20 15 -11
0 -20 -7 -20 -15z"/>
<path d="M2770 8305 c0 -8 9 -15 20 -15 11 0 20 7 20 15 0 8 -9 15 -20 15 -11
0 -20 -7 -20 -15z"/>
<path d="M6208 6803 c6 -2 18 -2 25 0 6 3 1 5 -13 5 -14 0 -19 -2 -12 -5z"/>
<path d="M6110 6770 c0 -5 9 -10 21 -10 11 0 17 5 14 10 -3 6 -13 10 -21 10
-8 0 -14 -4 -14 -10z"/>
<path d="M4520 5720 c0 -5 5 -10 10 -10 6 0 10 5 10 10 0 6 -4 10 -10 10 -5 0
-10 -4 -10 -10z"/>
<path d="M5401 6404 c0 -11 3 -14 6 -6 3 7 2 16 -1 19 -3 4 -6 -2 -5 -13z"/>
<path d="M5523 6264 c1 -30 27 -70 27 -41 0 7 -4 17 -9 23 -5 5 -11 18 -14 29
-3 12 -5 8 -4 -11z"/>
<path d="M2440 5757 c0 -8 7 -17 15 -21 8 -3 15 -2 15 3 0 5 -7 14 -15 21 -12
10 -15 10 -15 -3z"/>
</g>
</svg>
