<?xml version="1.0" standalone="no"?>
<!DOCTYPE svg PUBLIC "-//W3C//DTD SVG 20010904//EN"
 "http://www.w3.org/TR/2001/REC-SVG-20010904/DTD/svg10.dtd">
<svg version="1.0" xmlns="http://www.w3.org/2000/svg"
 width="920.000000pt" height="470.000000pt" viewBox="0 0 920.000000 470.000000"
 preserveAspectRatio="xMidYMid meet">
<metadata>
Created by potrace 1.16, written by Peter Selinger 2001-2019
</metadata>
<g transform="translate(0.000000,470.000000) scale(0.100000,-0.100000)"
fill="#000000" stroke="none">
<path d="M0 2350 l0 -2350 1060 0 c841 0 1060 3 1060 13 0 7 3 8 8 2 4 -5 36
-12 71 -13 51 -3 62 -1 55 10 -5 9 -2 9 11 -2 10 -8 19 -15 19 -15 6 0 33 31
31 35 -2 3 10 5 26 5 25 1 32 -8 8 -11 -5 -1 -13 -2 -19 -3 -5 0 -10 -5 -10
-10 0 -5 52 -8 115 -8 63 0 115 5 115 10 0 5 8 6 18 1 27 -12 242 -12 242 0 0
7 3 8 8 1 4 -6 30 -11 57 -12 38 -1 44 0 25 7 l-25 8 28 1 c15 1 27 -3 27 -7
0 -13 93 -12 107 0 9 7 13 7 13 -1 0 -6 9 -11 20 -11 11 0 20 7 20 15 0 8 4
15 10 15 5 0 7 -7 4 -15 -5 -11 1 -15 20 -15 26 0 35 13 17 24 -5 4 -12 0 -14
-6 -4 -9 -6 -10 -6 -1 -2 22 18 23 33 2 13 -19 18 -20 31 -9 9 7 15 8 15 2 0
-6 36 -10 95 -10 80 1 95 3 95 17 1 14 2 13 11 -2 9 -16 26 -17 169 -16 88 1
157 6 154 11 -3 4 0 8 5 8 6 0 11 -4 11 -9 0 -5 59 -10 130 -10 112 -1 130 1
130 15 0 14 1 14 16 0 20 -20 50 -21 58 -1 3 8 11 15 18 14 10 0 10 -2 1 -6
-27 -10 -11 -20 37 -20 28 -1 50 3 50 8 0 6 8 5 19 -1 28 -14 54 -13 45 2 -6
10 -5 10 7 1 8 -6 31 -11 52 -11 35 0 37 1 20 15 -14 12 -12 11 9 -1 31 -18
52 -21 43 -6 -4 7 2 7 19 0 33 -12 96 -10 96 4 0 6 5 4 10 -4 8 -13 10 -12 10
3 0 21 14 22 34 2 18 -18 57 -20 74 -3 9 9 12 9 12 1 0 -7 9 -11 19 -10 11 0
17 5 15 9 -3 4 2 8 10 8 9 0 16 -3 16 -7 0 -5 30 -9 66 -11 52 -2 64 0 58 10
-5 8 -1 8 11 -2 20 -17 20 -17 41 5 9 8 21 15 27 14 9 0 8 -2 -1 -6 -35 -14
-1 -21 103 -20 63 0 115 5 115 10 0 5 8 6 18 1 27 -12 242 -12 242 0 0 7 3 8
8 1 4 -6 30 -11 57 -13 36 -2 46 1 35 8 -13 8 -13 10 3 10 9 0 17 -4 17 -8 0
-13 93 -12 108 0 8 7 12 7 12 -1 0 -6 9 -11 20 -11 11 0 20 7 20 15 0 8 4 15
10 15 5 0 7 -7 4 -15 -5 -11 1 -15 20 -15 26 0 35 13 17 24 -5 4 -12 0 -14 -6
-4 -9 -6 -10 -6 -1 -2 22 18 23 33 2 13 -19 18 -20 31 -9 9 7 15 8 15 2 0 -6
36 -10 95 -10 80 1 95 3 95 17 1 14 2 13 11 -2 9 -16 26 -17 169 -16 140 2
158 4 153 18 -4 13 -2 13 10 -2 16 -20 77 -23 95 -5 9 9 12 9 12 0 0 -8 24
-12 80 -12 63 0 80 3 80 14 0 8 4 17 9 20 5 3 8 -2 7 -12 -1 -16 72 -17 1312
-20 l1312 -2 0 2350 0 2350 -1316 0 c-809 0 -1313 -4 -1309 -9 3 -5 1 -12 -5
-16 -5 -3 -10 1 -10 9 0 14 -52 16 -479 16 l-480 0 -5 -52 c-15 -151 -20 -468
-25 -1812 l-6 -1468 -130 -49 c-147 -56 -493 -183 -818 -300 -121 -44 -227
-79 -238 -79 -10 0 -169 56 -351 124 -387 144 -724 267 -788 288 l-45 15 -6
1394 c-5 1272 -12 1622 -35 1877 l-6 62 -464 0 c-268 0 -463 -4 -460 -9 9 -13
-37 -22 -49 -9 -7 8 -6 9 3 4 6 -4 12 -2 12 3 0 15 -13 14 -29 -1 -11 -10 -13
-10 -7 0 6 9 -212 12 -1073 12 l-1081 0 0 -2350z m2147 2302 c1 -10 -5 -19
-12 -19 -10 0 -11 5 -4 19 5 10 11 18 12 18 2 0 3 -8 4 -18z m69 -4 c-2 -13 2
-30 8 -38 10 -13 9 -13 -6 -1 -10 7 -15 17 -12 22 3 5 0 9 -7 9 -8 0 -8 4 1
15 17 20 21 19 16 -7z m4281 -7 c0 -11 -5 -18 -9 -15 -4 3 -5 11 -1 19 7 21
12 19 10 -4z m80 -11 c-2 -23 -10 -17 -12 10 -1 10 2 17 6 14 4 -2 7 -13 6
-24z m-4437 -34 c0 -3 -4 -8 -10 -11 -5 -3 -10 -1 -10 4 0 6 5 11 10 11 6 0
10 -2 10 -4z m4428 -17 c-10 -7 -10 -9 0 -9 6 0 12 -4 12 -10 0 -5 -7 -6 -17
-3 -12 5 -14 3 -8 -7 5 -9 4 -11 -3 -6 -8 5 -9 13 -2 25 5 10 6 21 2 25 -3 4
2 4 12 0 14 -5 15 -9 4 -15z m-4378 1 c0 -5 -2 -10 -4 -10 -3 0 -8 5 -11 10
-3 6 -1 10 4 10 6 0 11 -4 11 -10z m27 -5 c0 -8 -4 -12 -9 -9 -4 3 -8 9 -8 15
0 5 4 9 8 9 5 0 9 -7 9 -15z m4289 -28 c-3 -11 0 -30 6 -41 6 -12 7 -18 3 -14
-5 4 -13 4 -19 -2 -9 -6 -12 0 -11 21 0 16 3 29 7 29 5 0 8 7 8 16 0 9 -5 12
-12 8 -7 -4 -8 -3 -4 5 11 18 28 1 22 -22z m-4362 2 c-3 -5 -10 -7 -15 -3 -5
3 -7 10 -3 15 3 5 10 7 15 3 5 -3 7 -10 3 -15z m-10 -45 c3 -8 2 -12 -4 -9 -6
3 -10 10 -10 16 0 14 7 11 14 -7z m4440 -1 c-5 -5 -12 -12 -16 -18 -4 -6 -8
-2 -8 8 0 9 7 17 17 17 9 0 12 -3 7 -7z m-34 -38 c11 -13 10 -14 -5 -8 -14 5
-17 3 -13 -9 5 -11 1 -14 -18 -10 -13 2 -21 8 -18 13 3 5 10 7 15 4 5 -4 12 1
15 9 8 20 9 20 24 1z m-4407 -36 c-5 -5 -9 3 -11 19 -1 24 0 25 9 9 7 -11 7
-23 2 -28z m4444 1 c-1 -12 -5 -16 -10 -11 -5 5 -6 14 -3 20 11 16 15 13 13
-9z m-51 -41 c3 -5 0 -9 -6 -9 -6 0 -9 -4 -5 -9 3 -5 1 -12 -4 -15 -5 -4 -8 2
-7 11 2 10 -4 23 -13 30 -14 10 -13 11 7 6 12 -3 25 -9 28 -14z m44 -4 c11
-13 10 -14 -4 -9 -9 3 -16 10 -16 15 0 13 6 11 20 -6z m-4422 -19 c0 -16 -5
-23 -13 -20 -11 4 -13 19 -6 42 1 1 5 2 10 2 5 0 9 -11 9 -24z m4417 -36 c10
-11 14 -20 9 -20 -5 0 -15 9 -22 20 -7 11 -11 20 -9 20 2 0 12 -9 22 -20z
m-4400 0 c-3 -5 -13 -10 -21 -10 -8 0 -13 -4 -9 -9 5 -9 49 -6 67 5 4 3 8 0 8
-5 0 -6 -3 -11 -7 -12 -5 0 -19 -2 -32 -5 -23 -4 -51 10 -51 27 0 4 10 10 23
12 12 2 23 5 25 6 2 0 0 -3 -3 -9z m-29 -69 c-3 -5 1 -11 8 -14 8 -3 16 -1 19
6 2 6 6 4 10 -6 7 -19 -5 -22 -34 -7 -20 11 -26 30 -8 30 5 0 8 -4 5 -9z m69
-10 c3 -5 2 -12 -3 -15 -5 -3 -9 1 -9 9 0 17 3 19 12 6z m4297 -19 c-9 -3 -9
-9 -1 -25 9 -21 9 -21 -5 -4 -16 21 -11 51 7 40 8 -5 7 -8 -1 -11z m-4312 -64
c0 -5 -4 -8 -10 -8 -5 0 -10 10 -10 23 0 18 2 19 10 7 5 -8 10 -18 10 -22z
m30 8 c0 -3 -4 -8 -10 -11 -5 -3 -10 -1 -10 4 0 6 5 11 10 11 6 0 10 -2 10 -4z
m4296 -42 c0 -12 -4 -20 -8 -18 -5 3 -6 10 -3 15 4 5 1 9 -4 9 -6 0 -11 4 -11
8 0 5 6 9 13 9 7 0 13 -11 13 -23z m-4326 -5 c0 -5 -4 -9 -8 -9 -5 0 -9 7 -9
15 0 8 4 12 9 9 4 -3 8 -9 8 -15z m4337 -44 c0 -17 -13 -20 -21 -6 -4 5 0 12
6 14 7 3 13 6 14 6 0 1 1 -6 1 -14z m-4323 -31 c10 -25 -1 -29 -14 -5 -6 12
-7 21 -1 21 5 0 12 -7 15 -16z m4316 0 c0 -2 -7 -4 -15 -4 -8 0 -15 4 -15 10
0 5 7 7 15 4 8 -4 15 -8 15 -10z m1 -21 c0 -5 2 -16 4 -25 2 -10 -2 -21 -7
-25 -7 -4 -8 -1 -3 7 6 10 4 12 -10 6 -15 -5 -16 -4 -6 8 7 8 10 20 6 26 -3 5
-1 10 4 10 6 0 11 -3 12 -7z m-4324 -19 c-3 -3 -12 -4 -19 -1 -8 3 -5 6 6 6
11 1 17 -2 13 -5z m-9 -39 c-3 -3 -9 2 -12 12 -6 14 -5 15 5 6 7 -7 10 -15 7
-18z m-43 -53 c-8 -8 -25 10 -25 26 0 13 2 13 14 -4 8 -10 13 -21 11 -22z m50
28 c-3 -5 -1 -10 4 -10 6 0 11 -5 11 -11 0 -8 -5 -8 -15 1 -13 11 -12 30 1 30
3 0 2 -4 -1 -10z m4326 -10 c-11 -6 -10 -9 5 -12 17 -3 17 -4 -3 -10 -18 -5
-23 -2 -23 12 0 10 6 20 13 23 18 6 24 -3 8 -13z m43 -45 c-4 -8 -10 -15 -16
-15 -5 0 -6 -5 -2 -12 5 -7 3 -8 -6 -3 -7 4 -15 3 -19 -3 -4 -7 -11 -4 -19 8
-7 12 -8 20 -2 20 5 0 10 -5 10 -11 0 -6 12 -1 28 10 33 25 33 25 26 6z
m-4362 -13 c-10 -3 -10 -7 0 -19 18 -22 18 -39 -2 -39 -9 0 -17 6 -17 13 0 7
4 10 9 7 14 -9 9 9 -9 29 -10 11 -12 17 -5 13 6 -4 12 -2 12 4 0 6 5 8 12 4 9
-6 9 -9 0 -12z m-75 -64 c-3 -8 -6 -5 -6 6 -1 11 2 17 5 13 3 -3 4 -12 1 -19z
m4423 -18 c13 -8 13 -10 -2 -10 -9 0 -20 5 -23 10 -8 13 5 13 25 0z m-4405
-38 c-3 -3 -11 0 -18 7 -9 10 -8 11 6 5 10 -3 15 -9 12 -12z m4427 -9 c-6 -3
-9 -10 -6 -15 4 -7 2 -8 -5 -4 -9 6 -9 11 0 22 6 8 15 12 18 8 3 -4 0 -9 -7
-11z m-4367 -5 c4 -3 2 -9 -3 -12 -5 -3 -15 1 -21 8 -10 11 -9 14 3 12 9 -1
18 -5 21 -8z m-65 -93 c0 -5 -5 -3 -10 5 -5 8 -10 20 -10 25 0 6 5 3 10 -5 5
-8 10 -19 10 -25z m45 15 c3 -5 1 -10 -4 -10 -6 0 -11 5 -11 10 0 6 2 10 4 10
3 0 8 -4 11 -10z m29 -33 c4 4 4 0 1 -9 -6 -16 -40 -14 -51 3 -3 5 3 6 12 2
13 -5 15 -3 9 8 -7 11 -6 12 7 2 8 -7 18 -10 22 -6z m4343 -43 c-2 -2 -11 -2
-20 2 -13 4 -14 9 -4 19 10 11 14 10 20 -2 5 -8 7 -17 4 -19z m-35 -18 c7 4 8
2 4 -5 -4 -6 -12 -9 -17 -6 -5 4 -9 1 -9 -4 0 -6 -4 -11 -9 -11 -5 0 -4 11 2
25 8 17 13 20 15 10 2 -8 8 -12 14 -9z m43 -26 c-3 -4 0 -11 5 -13 6 -3 5 -4
-2 -3 -7 1 -15 11 -16 21 -3 11 0 15 7 10 6 -3 9 -10 6 -15z m-4430 -29 c2
-12 0 -19 -6 -16 -5 4 -9 16 -9 27 0 26 9 19 15 -11z m4403 4 c-3 -3 -9 2 -12
12 -6 14 -5 15 5 6 7 -7 10 -15 7 -18z m-18 -5 c0 -5 -2 -10 -4 -10 -3 0 -8 5
-11 10 -3 6 -1 10 4 10 6 0 11 -4 11 -10z m-4303 -26 c-3 -3 -12 -4 -19 -1 -8
3 -5 6 6 6 11 1 17 -2 13 -5z m4358 -4 c3 -5 1 -10 -4 -10 -6 0 -11 5 -11 10
0 6 2 10 4 10 3 0 8 -4 11 -10z m-4437 -25 c-3 -3 -9 2 -12 12 -6 14 -5 15 5
6 7 -7 10 -15 7 -18z m4367 15 c-3 -5 -12 -10 -18 -10 -7 0 -6 4 3 10 19 12
23 12 15 0z m-4310 -22 c5 4 5 1 1 -6 -6 -10 -11 -10 -22 -1 -8 6 -14 14 -14
16 0 3 6 0 13 -6 8 -6 18 -7 22 -3z m4370 -26 c-3 -3 -11 0 -18 7 -9 10 -8 11
6 5 10 -3 15 -9 12 -12z m-4425 -11 c0 -6 -4 -12 -8 -15 -5 -3 -9 1 -9 9 0 8
4 15 9 15 4 0 8 -4 8 -9z m71 -8 c12 -16 12 -17 -2 -6 -9 7 -19 10 -22 6 -4
-3 -7 -1 -7 5 0 17 16 15 31 -5z m4349 -3 c0 -5 -5 -10 -11 -10 -5 0 -7 5 -4
10 3 6 8 10 11 10 2 0 4 -4 4 -10z m-54 -37 c-6 -15 -8 -15 -16 -3 -6 9 -6 16
0 18 6 2 7 9 4 15 -5 9 -4 9 6 0 7 -7 10 -19 6 -30z m-4372 -33 c-6 -6 -10 -3
-10 10 0 13 4 16 10 10 7 -7 7 -13 0 -20z m66 24 c0 -14 -14 -33 -21 -28 -6 3
-16 2 -22 -3 -7 -4 -5 -1 5 8 9 9 15 19 13 21 -3 3 2 5 10 5 8 0 15 -1 15 -3z
m4325 -14 c-3 -5 -12 -10 -18 -10 -7 0 -6 4 3 10 19 12 23 12 15 0z m49 2 c3
-5 -1 -9 -9 -9 -8 0 -12 4 -9 9 3 4 7 8 9 8 2 0 6 -4 9 -8z m-59 -31 c3 -5 2
-12 -3 -15 -5 -3 -9 1 -9 9 0 17 3 19 12 6z m21 -29 c-17 -16 -18 -16 -5 5 7
12 15 20 18 17 3 -2 -3 -12 -13 -22z m-4332 -7 c-4 -8 -10 -15 -15 -15 -4 0
-6 7 -3 15 4 8 10 15 15 15 4 0 6 -7 3 -15z m-60 -17 c-3 -4 -9 -8 -15 -8 -5
0 -9 4 -9 8 0 5 7 9 15 9 8 0 12 -4 9 -9z m4386 -12 c0 -2 -7 -7 -16 -10 -8
-3 -12 -2 -9 4 6 10 25 14 25 6z m-4371 -38 c-5 -10 -15 -18 -22 -18 -8 0 -8
3 2 9 7 5 11 13 8 18 -3 5 0 10 8 10 10 0 11 -5 4 -19z m4414 7 c4 -8 3 -16
-1 -19 -4 -3 -9 4 -9 15 -2 23 3 25 10 4z m-4373 -15 c0 -5 -7 -7 -15 -4 -8 4
-15 8 -15 10 0 2 7 4 15 4 8 0 15 -4 15 -10z m-1740 -295 l0 -265 50 0 50 0 0
265 0 265 45 0 45 0 0 -265 0 -265 45 0 45 0 0 265 0 265 45 0 45 0 0 -295 0
-295 -230 0 -230 0 0 295 0 295 45 0 45 0 0 -265z m680 230 l0 -35 -70 0 -70
0 0 -95 0 -95 60 0 60 0 0 -30 0 -30 -60 0 -60 0 0 -105 0 -105 70 0 70 0 0
-30 0 -30 -115 0 -115 0 0 295 0 295 115 0 115 0 0 -35z m286 16 c54 -25 80
-84 71 -165 -10 -96 -54 -136 -152 -136 l-55 0 0 -135 0 -135 -45 0 -45 0 0
295 0 295 93 0 c68 0 103 -5 133 -19z m214 -246 l0 -265 45 0 45 0 0 265 0
265 45 0 45 0 0 -265 0 -265 50 0 50 0 0 265 0 265 45 0 45 0 0 -295 0 -295
-230 0 -230 0 0 295 0 295 45 0 45 0 0 -265z m541 233 c0 -18 1 -64 1 -101 0
-50 3 -70 14 -74 8 -3 14 -10 14 -15 0 -6 -6 -6 -14 2 -12 9 -15 8 -13 -9 1
-19 8 -21 69 -21 l68 0 0 125 0 125 45 0 45 0 0 -295 0 -295 -45 0 -45 0 0
135 0 135 -70 0 -69 0 1 -65 c0 -36 5 -65 9 -65 5 0 9 -5 9 -11 0 -5 -4 -7
-10 -4 -5 3 -10 -3 -10 -14 0 -12 6 -21 13 -21 9 0 8 -3 -2 -9 -16 -10 -5 -34
12 -25 7 3 4 -1 -5 -9 -20 -16 -24 -38 -7 -35 6 2 13 -5 14 -16 3 -14 1 -16
-8 -7 -6 6 -33 11 -59 11 l-48 0 0 295 0 295 45 0 c44 0 45 -1 46 -32z m399
-263 l0 -295 -40 0 -40 0 0 295 0 295 40 0 40 0 0 -295z m3860 30 l0 -265 30
0 c23 0 30 -4 30 -20 0 -11 6 -20 13 -20 9 0 8 -3 -2 -9 -9 -6 -12 -25 -10
-65 l4 -56 -36 0 -37 0 -7 55 -6 55 -140 0 -139 0 0 -42 c0 -56 -11 -70 -46
-66 l-29 3 -3 83 c-3 76 -1 82 17 82 23 0 54 40 69 90 17 55 30 163 38 308 l7
132 123 0 124 0 0 -265z m357 245 c60 -36 68 -65 71 -260 4 -197 -8 -254 -61
-294 -42 -31 -163 -30 -206 2 -17 13 -36 20 -41 17 -6 -3 -10 0 -10 7 0 10 -3
9 -11 -2 -9 -13 -10 -13 -6 0 2 8 11 14 20 14 9 -1 13 4 10 12 -3 8 -8 14 -12
14 -7 0 -7 5 -10 210 -2 169 0 183 24 229 24 48 70 71 140 71 42 0 70 -6 92
-20z m347 9 c51 -14 84 -51 92 -105 9 -60 -3 -112 -31 -140 -23 -23 -23 -24
-5 -34 33 -18 50 -64 50 -138 0 -55 -5 -76 -23 -103 -34 -51 -59 -59 -179 -59
l-108 0 0 295 0 295 83 0 c45 0 99 -5 121 -11z m436 -24 l0 -35 -85 0 -85 0 0
-90 0 -90 45 0 c107 0 155 -51 155 -165 0 -134 -46 -175 -197 -175 l-93 0 0
295 0 295 130 0 130 0 0 -35z m180 -137 c17 -95 34 -184 38 -198 l6 -25 3 25
c12 83 55 338 59 353 7 21 84 25 84 4 0 -31 -111 -566 -126 -604 -21 -57 -55
-83 -110 -83 -44 0 -44 0 -44 35 0 30 3 35 23 35 37 0 67 27 67 61 0 23 -74
374 -115 547 -5 20 -2 22 39 22 l44 0 32 -172z m330 -93 l0 -265 50 0 50 0 0
265 0 265 45 0 45 0 0 -265 0 -265 45 0 45 0 0 265 0 265 45 0 45 0 0 -295 0
-295 -230 0 -230 0 0 295 0 295 45 0 45 0 0 -265z m630 260 c0 -2 27 -131 60
-285 33 -154 60 -285 60 -291 0 -6 -18 -9 -42 -7 -42 3 -43 4 -50 48 -15 93
-13 90 -72 90 l-55 0 -11 -57 c-6 -32 -13 -64 -15 -70 -5 -14 -85 -19 -85 -5
0 4 27 133 60 287 33 154 60 283 60 288 0 4 20 7 45 7 25 0 45 -2 45 -5z
m-2150 -15 c0 -5 -2 -10 -4 -10 -3 0 -8 5 -11 10 -3 6 -1 10 4 10 6 0 11 -4
11 -10z m-56 -34 c-3 -8 -12 -17 -20 -20 -12 -4 -12 -2 -4 14 12 23 32 27 24
6z m2 -47 c3 -6 1 -16 -6 -22 -10 -9 -11 -9 -5 2 4 8 2 17 -6 22 -9 6 -10 9
-2 9 6 0 15 -5 19 -11z m-9 -53 c-3 -7 0 -19 6 -25 8 -8 7 -11 -4 -11 -9 0
-15 9 -15 25 0 14 4 25 9 25 5 0 7 -6 4 -14z m-6392 -185 l-26 -39 26 -40 c22
-33 26 -49 23 -93 l-3 -54 -57 82 c-32 44 -58 92 -58 105 0 14 26 61 58 106
l57 81 3 -54 c2 -45 -2 -61 -23 -94z m140 0 l-26 -39 26 -40 c21 -33 26 -49
23 -92 l-3 -53 -57 80 c-33 46 -58 91 -58 105 0 14 25 60 58 106 l57 81 3 -54
c2 -45 -2 -61 -23 -94z m8709 60 c34 -46 56 -85 56 -100 0 -17 -23 -55 -63
-106 l-62 -80 -3 53 c-3 47 1 57 29 93 l32 40 -32 44 c-25 35 -31 53 -31 96 0
61 -2 62 74 -40z m140 0 c34 -46 56 -85 56 -100 0 -17 -23 -55 -63 -106 l-62
-80 -3 49 c-3 42 1 55 29 93 l31 44 -31 44 c-25 35 -31 53 -31 96 0 61 -2 62
74 -40z m-2593 50 c-11 -7 -10 -11 5 -20 11 -6 14 -11 9 -11 -19 0 -33 21 -28
42 4 14 9 16 17 8 8 -8 7 -13 -3 -19z m-3 -55 c-7 -8 -15 -12 -17 -11 -5 6 10
25 20 25 5 0 4 -6 -3 -14z m19 -118 c-3 -8 -6 -5 -6 6 -1 11 2 17 5 13 3 -3 4
-12 1 -19z m-7 -133 c0 -5 -5 -3 -10 5 -5 8 -10 20 -10 25 0 6 5 3 10 -5 5 -8
10 -19 10 -25z m56 -64 c0 -10 -8 -24 -17 -29 -16 -10 -16 -9 -2 19 17 34 19
35 19 10z m-4442 -41 c-5 -5 -10 3 -11 18 -1 22 0 24 9 8 6 -10 6 -22 2 -26z
m36 6 c0 -2 -8 -10 -17 -17 -16 -13 -17 -12 -4 4 13 16 21 21 21 13z m35 -6
c-3 -5 -12 -10 -18 -10 -7 0 -6 4 3 10 19 12 23 12 15 0z m4326 -7 c13 -16 12
-17 -3 -4 -10 7 -18 15 -18 17 0 8 8 3 21 -13z m46 -8 c0 -8 -4 -15 -9 -15
-10 0 -11 14 -1 23 9 10 10 9 10 -8z m-4376 -25 c4 0 5 -7 2 -17 -4 -11 -3
-14 5 -9 8 5 10 1 5 -10 -4 -11 -8 -13 -11 -6 -2 7 -9 9 -14 6 -7 -5 -8 -2 -3
6 5 8 1 19 -11 28 -18 14 -18 14 -1 8 10 -3 23 -6 28 -6z m4376 -15 c0 -8 -4
-12 -9 -9 -5 3 -6 10 -3 15 9 13 12 11 12 -6z m-4372 -55 c3 -5 1 -10 -4 -10
-6 0 -11 5 -11 10 0 6 2 10 4 10 3 0 8 -4 11 -10z m-28 -22 c-3 -8 -6 -5 -6 6
-1 11 2 17 5 13 3 -3 4 -12 1 -19z m4380 -60 c-3 -7 -5 -2 -5 12 0 14 2 19 5
13 2 -7 2 -19 0 -25z m-44 -4 c-7 -19 -10 -18 -16 5 -3 13 -1 18 9 14 7 -2 10
-11 7 -19z m-4328 -45 c-5 -14 -3 -19 3 -15 6 3 14 1 18 -5 4 -8 3 -9 -4 -5
-7 4 -12 1 -13 -6 0 -10 -2 -10 -6 0 -2 6 -9 10 -14 6 -5 -3 -4 6 3 20 14 31
22 34 13 5z m4350 -9 c3 -6 -1 -7 -9 -4 -18 7 -21 14 -7 14 6 0 13 -4 16 -10z
m41 -10 c0 -12 -4 -16 -9 -11 -5 5 -6 14 -3 20 10 15 12 14 12 -9z m-4361 -40
c-3 -5 -10 -10 -16 -10 -5 0 -9 5 -9 10 0 6 7 10 16 10 8 0 12 -4 9 -10z m-1
-35 c-4 -8 -10 -15 -15 -15 -4 0 -6 7 -3 15 4 8 10 15 15 15 4 0 6 -7 3 -15z
m-74 -35 c0 -5 -2 -10 -4 -10 -3 0 -8 5 -11 10 -3 6 -1 10 4 10 6 0 11 -4 11
-10z m4390 -10 c6 -11 7 -20 2 -20 -6 0 -12 9 -15 20 -3 11 -3 20 -1 20 2 0 8
-9 14 -20z m-4330 -10 c0 -11 6 -20 13 -20 6 0 4 -5 -6 -11 -13 -7 -22 -7 -31
0 -7 6 -17 7 -21 3 -5 -4 -5 -1 -1 6 6 11 11 11 24 0 13 -11 15 -10 10 15 -3
15 -1 27 3 27 5 0 9 -9 9 -20z m4375 -19 c3 -5 1 -12 -5 -16 -5 -3 -10 1 -10
9 0 18 6 21 15 7z m-4428 -39 c1 -10 -5 -19 -12 -19 -10 0 -11 5 -4 19 5 10
11 18 12 18 2 0 3 -8 4 -18z m4403 14 c0 -2 -7 -6 -15 -10 -8 -3 -15 -1 -15 4
0 6 7 10 15 10 8 0 15 -2 15 -4z m-59 -29 c-10 -9 -11 -8 -5 6 3 10 9 15 12
12 3 -3 0 -11 -7 -18z m86 -7 c-2 -23 -10 -17 -12 10 -1 10 2 17 6 14 4 -2 7
-13 6 -24z m-9 -51 c-10 -7 -10 -9 0 -9 6 0 12 -4 12 -10 0 -5 -7 -6 -17 -3
-12 5 -14 3 -8 -7 5 -9 4 -11 -3 -6 -8 5 -9 13 -2 25 5 10 6 21 2 25 -3 4 2 4
12 0 14 -5 15 -9 4 -15z m-4378 1 c0 -5 -2 -10 -4 -10 -3 0 -8 5 -11 10 -3 6
-1 10 4 10 6 0 11 -4 11 -10z m4316 -33 c-3 -11 0 -30 6 -41 6 -12 7 -18 3
-14 -5 4 -15 2 -24 -4 -13 -10 -14 -10 -4 2 8 9 9 19 2 32 -6 12 -6 18 1 18 5
0 10 7 10 16 0 9 -5 12 -12 8 -7 -4 -8 -3 -4 5 11 18 28 1 22 -22z m-4362 2
c-3 -5 -10 -7 -15 -3 -5 3 -7 10 -3 15 3 5 10 7 15 3 5 -3 7 -10 3 -15z m-10
-45 c3 -8 2 -12 -4 -9 -6 3 -10 10 -10 16 0 14 7 11 14 -7z m4440 -1 c-5 -5
-12 -12 -16 -18 -4 -6 -8 -2 -8 8 0 9 7 17 17 17 9 0 12 -3 7 -7z m-34 -38
c11 -13 10 -14 -5 -8 -14 5 -17 3 -13 -9 5 -11 1 -14 -18 -10 -13 2 -21 8 -18
13 3 5 10 7 15 4 5 -4 12 1 15 9 8 20 9 20 24 1z m-4407 -36 c-5 -5 -9 3 -11
19 -1 24 0 25 9 9 7 -11 7 -23 2 -28z m4444 1 c-1 -12 -5 -16 -10 -11 -5 5 -6
14 -3 20 11 16 15 13 13 -9z m-51 -41 c3 -5 0 -9 -6 -9 -6 0 -9 -4 -5 -9 3 -5
1 -12 -4 -15 -5 -4 -8 2 -7 11 2 10 -4 23 -13 30 -14 10 -13 11 7 6 12 -3 25
-9 28 -14z m44 -4 c11 -13 10 -14 -4 -9 -9 3 -16 10 -16 15 0 13 6 11 20 -6z
m-4422 -19 c0 -16 -5 -23 -13 -20 -11 4 -13 19 -6 42 1 1 5 2 10 2 5 0 9 -11
9 -24z m4417 -36 c10 -11 14 -20 9 -20 -5 0 -15 9 -22 20 -7 11 -11 20 -9 20
2 0 12 -9 22 -20z m-4400 0 c-3 -5 -13 -10 -21 -10 -8 0 -13 -4 -10 -9 3 -5
21 -5 41 -1 20 4 35 4 35 -1 0 -5 -3 -9 -7 -10 -5 0 -19 -2 -32 -5 -23 -4 -51
10 -51 27 0 4 10 10 23 12 12 2 23 5 25 6 2 0 0 -3 -3 -9z m-29 -69 c-3 -5 1
-11 8 -14 8 -3 16 -1 19 6 2 6 6 4 10 -6 7 -19 -5 -22 -34 -7 -20 11 -26 30
-8 30 5 0 8 -4 5 -9z m69 -10 c3 -5 2 -12 -3 -15 -5 -3 -9 1 -9 9 0 17 3 19
12 6z m4297 -19 c-9 -3 -9 -9 -1 -25 9 -21 9 -21 -5 -4 -16 21 -11 51 7 40 8
-5 7 -8 -1 -11z m-4312 -64 c0 -5 -4 -8 -10 -8 -5 0 -10 10 -10 23 0 18 2 19
10 7 5 -8 10 -18 10 -22z m30 8 c0 -3 -4 -8 -10 -11 -5 -3 -10 -1 -10 4 0 6 5
11 10 11 6 0 10 -2 10 -4z m4296 -42 c0 -12 -4 -20 -8 -18 -5 3 -6 10 -3 15 4
5 1 9 -4 9 -6 0 -11 4 -11 8 0 5 6 9 13 9 7 0 13 -11 13 -23z m-4326 -5 c0 -5
-4 -9 -8 -9 -5 0 -9 7 -9 15 0 8 4 12 9 9 4 -3 8 -9 8 -15z m4337 -44 c0 -17
-13 -20 -21 -6 -4 5 0 12 6 14 7 3 13 6 14 6 0 1 1 -6 1 -14z m-4323 -31 c10
-25 -1 -29 -14 -5 -6 12 -7 21 -1 21 5 0 12 -7 15 -16z m4316 0 c0 -2 -7 -4
-15 -4 -8 0 -15 4 -15 10 0 5 7 7 15 4 8 -4 15 -8 15 -10z m1 -21 c0 -5 2 -16
4 -25 2 -10 -2 -21 -7 -25 -7 -4 -8 -1 -3 7 6 10 4 12 -10 6 -15 -5 -16 -4 -6
8 7 8 10 20 6 26 -3 5 -1 10 4 10 6 0 11 -3 12 -7z m-4324 -19 c-3 -3 -12 -4
-19 -1 -8 3 -5 6 6 6 11 1 17 -2 13 -5z m-9 -39 c-3 -3 -9 2 -12 12 -6 14 -5
15 5 6 7 -7 10 -15 7 -18z m-43 -53 c-8 -8 -25 10 -25 26 0 13 2 13 14 -4 8
-10 13 -21 11 -22z m50 28 c-3 -5 -1 -10 4 -10 6 0 11 -5 11 -11 0 -8 -5 -8
-15 1 -13 11 -12 30 1 30 3 0 2 -4 -1 -10z m4326 -10 c-11 -6 -10 -9 5 -12 17
-3 17 -4 -3 -10 -18 -5 -23 -2 -23 12 0 10 6 20 13 23 18 6 24 -3 8 -13z m43
-45 c-4 -8 -10 -15 -16 -15 -5 0 -6 -5 -2 -12 5 -7 3 -8 -6 -3 -7 4 -15 3 -19
-3 -4 -7 -11 -4 -19 8 -7 12 -8 20 -2 20 5 0 10 -5 10 -11 0 -6 12 -1 28 10
33 25 33 25 26 6z m-4362 -13 c-10 -3 -10 -7 0 -19 18 -22 18 -39 -2 -39 -9 0
-17 6 -17 13 0 7 4 10 9 7 14 -9 9 9 -9 29 -10 11 -12 17 -5 13 6 -4 12 -2 12
4 0 6 5 8 12 4 9 -6 9 -9 0 -12z m-75 -64 c-3 -8 -6 -5 -6 6 -1 11 2 17 5 13
3 -3 4 -12 1 -19z m4423 -18 c13 -8 13 -10 -2 -10 -9 0 -20 5 -23 10 -8 13 5
13 25 0z m-4405 -38 c-3 -3 -11 0 -18 7 -9 10 -8 11 6 5 10 -3 15 -9 12 -12z
m4427 -9 c-6 -3 -9 -10 -6 -15 4 -7 2 -8 -5 -4 -9 6 -9 11 0 22 6 8 15 12 18
8 3 -4 0 -9 -7 -11z m-4367 -5 c4 -3 2 -9 -3 -12 -5 -3 -15 1 -21 8 -10 11 -9
14 3 12 9 -1 18 -5 21 -8z m-65 -93 c0 -5 -5 -3 -10 5 -5 8 -10 20 -10 25 0 6
5 3 10 -5 5 -8 10 -19 10 -25z m45 15 c3 -5 1 -10 -4 -10 -6 0 -11 5 -11 10 0
6 2 10 4 10 3 0 8 -4 11 -10z m26 -35 c3 2 5 -4 5 -14 0 -15 -4 -16 -16 -8 -9
5 -17 16 -17 23 0 9 4 11 12 4 7 -5 14 -8 16 -5z m4343 -37 c-3 -4 -11 -5 -19
-2 -11 5 -12 9 -2 19 12 13 31 -1 21 -17z m-32 -22 c7 4 8 2 4 -5 -4 -6 -12
-9 -17 -6 -5 4 -9 1 -9 -4 0 -6 -4 -11 -9 -11 -5 0 -4 11 2 25 8 17 13 20 15
10 2 -8 8 -12 14 -9z m43 -26 c-3 -4 0 -11 5 -13 6 -3 5 -4 -2 -3 -7 1 -15 11
-16 21 -3 11 0 15 7 10 6 -3 9 -10 6 -15z m-4430 -29 c2 -12 0 -19 -6 -16 -5
4 -9 16 -9 27 0 26 9 19 15 -11z m79 17 c-3 -4 -9 -8 -15 -8 -5 0 -9 4 -9 8 0
5 7 9 15 9 8 0 12 -4 9 -9z m4306 -18 c0 -5 -2 -10 -4 -10 -3 0 -8 5 -11 10
-3 6 -1 10 4 10 6 0 11 -4 11 -10z m-4300 -20 c0 -5 -7 -10 -16 -10 -8 0 -12
5 -9 10 3 6 10 10 16 10 5 0 9 -4 9 -10z m4355 -10 c3 -5 1 -10 -4 -10 -6 0
-11 5 -11 10 0 6 2 10 4 10 3 0 8 -4 11 -10z m-4435 -25 c0 -8 -3 -16 -7 -18
-5 -3 -8 5 -8 18 0 13 3 21 8 18 4 -2 7 -10 7 -18z m4365 15 c-3 -5 -12 -10
-18 -10 -7 0 -6 4 3 10 19 12 23 12 15 0z m-4307 -26 c8 -2 17 -5 20 -8 3 -4
-4 -5 -16 -3 -12 2 -28 9 -35 17 -10 10 -9 11 3 4 8 -5 21 -9 28 -10z m4367
-22 c-3 -3 -11 0 -18 7 -9 10 -8 11 6 5 10 -3 15 -9 12 -12z m-4421 -11 c3 -5
0 -11 -7 -14 -8 -3 -14 1 -14 9 0 16 13 19 21 5z m76 -16 c-1 -18 -1 -19 -11
-2 -6 9 -14 15 -20 12 -5 -4 -9 -2 -9 4 0 5 9 9 20 8 13 -1 20 -8 20 -22z
m4340 5 c0 -5 -4 -10 -10 -10 -5 0 -10 5 -10 10 0 6 5 10 10 10 6 0 10 -4 10
-10z m-53 -34 c-4 -10 -13 -13 -23 -9 -15 6 -16 7 -1 18 9 7 15 14 13 17 -1 3
2 2 7 -3 5 -4 7 -15 4 -23z m-4373 -36 c-6 -6 -10 -3 -10 10 0 13 4 16 10 10
7 -7 7 -13 0 -20z m60 6 c-3 -9 -10 -13 -15 -10 -6 3 -17 0 -25 -7 -12 -9 -13
-9 -9 2 5 13 45 38 53 33 1 0 0 -9 -4 -18z m4382 2 c4 -7 4 -10 -1 -6 -4 4
-15 2 -24 -5 -14 -11 -14 -10 -2 6 16 20 18 21 27 5z m-90 -20 c0 -7 4 -13 9
-13 6 0 9 4 7 8 -1 5 3 5 9 2 7 -5 6 -12 -6 -24 -13 -12 -18 -13 -22 -3 -4 10
-8 10 -21 0 -12 -10 -12 -7 2 15 20 30 24 33 22 15z m-4341 -28 c3 -5 1 -10
-4 -10 -6 0 -11 5 -11 10 0 6 2 10 4 10 3 0 8 -4 11 -10z m71 -12 c4 -6 3 -8
-4 -4 -5 3 -13 0 -15 -6 -3 -8 -6 -6 -6 5 -1 19 14 23 25 5z m21 -20 c-3 -8
-6 -5 -6 6 -1 11 2 17 5 13 3 -3 4 -12 1 -19z m-93 0 c-3 -4 -9 -8 -15 -8 -5
0 -9 4 -9 8 0 5 7 9 15 9 8 0 12 -4 9 -9z m4350 -11 c-3 -8 -11 -14 -19 -14
-21 0 -19 15 3 20 9 3 18 5 19 6 1 0 0 -5 -3 -12z m-4338 -46 c-4 -6 -13 -11
-19 -11 -8 0 -7 3 2 9 8 5 10 14 6 22 -6 11 -5 11 5 2 7 -6 9 -16 6 -22z
m4418 -5 c2 -14 0 -23 -4 -21 -4 3 -7 16 -7 30 0 32 8 26 11 -9z m-4369 4 c3
-5 2 -10 -4 -10 -5 0 -13 5 -16 10 -3 6 -2 10 4 10 5 0 13 -4 16 -10z m4282
-25 c-13 -10 -15 -14 -5 -18 10 -4 10 -7 -1 -18 -8 -8 -11 -9 -7 -2 3 6 -1 16
-10 21 -15 9 -15 10 4 16 12 4 22 12 22 18 0 6 3 8 7 4 5 -4 0 -14 -10 -21z
m-4251 -27 c4 -7 3 -8 -4 -4 -7 4 -12 1 -12 -8 0 -9 -4 -16 -10 -16 -14 0 -13
13 2 28 15 15 15 15 24 0z m4334 4 c0 -5 -7 -9 -15 -9 -8 0 -12 4 -9 9 3 4 9
8 15 8 5 0 9 -4 9 -8z m-4405 -22 c-3 -5 -12 -10 -18 -10 -7 0 -6 4 3 10 19
12 23 12 15 0z m4280 -10 c-3 -5 -12 -10 -18 -10 -7 0 -6 4 3 10 19 12 23 12
15 0z m-4300 -18 c-3 -3 -11 0 -18 7 -9 10 -8 11 6 5 10 -3 15 -9 12 -12z
m4355 11 c0 -5 -5 -15 -10 -23 -7 -12 -9 -10 -7 8 1 19 17 33 17 15z m71 -16
c-10 -9 -11 -8 -5 6 3 10 9 15 12 12 3 -3 0 -11 -7 -18z m-4301 3 c0 -5 -5
-10 -11 -10 -5 0 -7 5 -4 10 3 6 8 10 11 10 2 0 4 -4 4 -10z m4214 -40 c10
-13 9 -13 -6 -1 -10 7 -18 21 -17 30 0 13 1 14 6 1 3 -8 11 -22 17 -30z
m-4240 21 c3 -5 -1 -12 -10 -15 -20 -8 -29 -1 -19 13 8 13 22 14 29 2z m-109
-21 c3 -5 1 -10 -4 -10 -6 0 -11 5 -11 10 0 6 2 10 4 10 3 0 8 -4 11 -10z
m151 -15 c1 -8 -1 -17 -5 -19 -4 -3 -7 6 -7 19 0 25 8 25 12 0z m4169 -5 c3
-5 2 -10 -4 -10 -5 0 -13 5 -16 10 -3 6 -2 10 4 10 5 0 13 -4 16 -10z m86 -23
c-10 -9 -11 -8 -5 6 3 10 9 15 12 12 3 -3 0 -11 -7 -18z m-4398 -4 c-3 -7 -9
-13 -14 -13 -5 0 -9 6 -9 13 0 8 6 14 14 14 8 0 12 -6 9 -14z m113 5 c4 -7 3
-8 -4 -4 -7 4 -12 1 -12 -8 0 -9 -5 -16 -10 -16 -7 0 -7 6 0 20 12 23 16 24
26 8z m4270 -21 c10 3 12 0 8 -10 -7 -19 -30 -12 -39 11 -5 13 -3 14 6 5 6 -6
18 -9 25 -6z m-71 -15 c-3 -3 -11 0 -18 7 -9 10 -8 11 6 5 10 -3 15 -9 12 -12z
m-4305 -3 c0 -5 5 -7 12 -3 7 4 8 3 4 -5 -6 -9 -11 -9 -22 0 -17 14 -18 19 -4
19 6 0 10 -5 10 -11z m140 -15 c0 -8 -5 -12 -10 -9 -6 4 -8 11 -5 16 9 14 15
11 15 -7z m-157 -19 c-3 -9 -8 -14 -10 -11 -3 3 -2 9 2 15 9 16 15 13 8 -4z
m117 -17 c0 -6 -6 -5 -15 2 -8 7 -15 14 -15 16 0 2 7 1 15 -2 8 -4 15 -11 15
-16z m4162 -13 c4 -19 2 -23 -7 -15 -6 5 -15 6 -20 2 -4 -4 -1 3 6 16 8 12 14
22 15 22 1 0 4 -11 6 -25z m150 10 c2 3 5 -2 5 -10 0 -10 -4 -12 -12 -5 -7 6
-19 8 -28 4 -8 -3 -18 -1 -22 5 -3 7 0 8 9 5 9 -4 16 -1 16 6 0 9 3 10 13 1 8
-6 16 -9 19 -6z m-4207 -23 c-3 -3 0 -11 6 -18 6 -7 6 -14 1 -18 -6 -3 -15 1
-21 8 -9 10 -9 16 -1 21 8 5 7 12 -2 23 -12 15 -11 16 5 3 9 -8 15 -16 12 -19z
m-55 4 c-1 -5 4 -13 12 -18 10 -8 10 -9 -2 -5 -8 2 -14 10 -12 17 2 8 -3 10
-13 6 -10 -3 -14 -2 -10 5 8 12 27 8 25 -5z m-158 -28 c-7 -7 -12 -8 -12 -2 0
14 12 26 19 19 2 -3 -1 -11 -7 -17z m121 -9 c-8 -8 -13 -7 -18 2 -5 8 -4 10 3
5 7 -4 12 -2 12 5 0 7 3 9 7 6 4 -4 2 -12 -4 -18z m4118 12 c-8 -5 -10 -14 -6
-22 6 -11 5 -11 -5 -2 -14 12 -6 33 13 33 8 0 7 -3 -2 -9z m59 -5 c0 -8 -14
-21 -31 -30 -26 -13 -29 -13 -19 -1 7 8 20 15 29 16 12 0 12 2 2 6 -11 5 -11
7 0 14 18 11 19 11 19 -5z m-4240 -16 c0 -5 -2 -10 -4 -10 -3 0 -8 5 -11 10
-3 6 -1 10 4 10 6 0 11 -4 11 -10z m205 -11 c-4 -5 -12 -9 -18 -8 -9 0 -8 2 1
6 6 2 9 10 6 15 -4 7 -2 8 5 4 6 -4 9 -12 6 -17z m4149 6 c-4 -8 -8 -15 -10
-15 -2 0 -4 7 -4 15 0 8 4 15 10 15 5 0 7 -7 4 -15z m-4400 -7 c-3 -4 -12 -8
-20 -8 -8 0 -13 4 -10 8 3 5 12 9 20 9 8 0 13 -4 10 -9z m205 -19 c-22 -13
-31 -11 -17 5 7 8 17 12 22 9 4 -3 2 -9 -5 -14z m3976 11 c3 -5 1 -10 -4 -10
-6 0 -11 5 -11 10 0 6 2 10 4 10 3 0 8 -4 11 -10z m238 -15 c-7 -21 -12 -19
-10 4 0 11 5 18 9 15 4 -3 5 -11 1 -19z m-46 -7 c-3 -8 -6 -5 -6 6 -1 11 2 17
5 13 3 -3 4 -12 1 -19z m-4363 3 c3 -5 -1 -11 -9 -15 -8 -3 -17 0 -21 6 -4 7
-3 8 4 4 7 -4 12 -2 12 3 0 13 7 14 14 2z m116 -6 c-7 -8 -16 -12 -21 -9 -13
8 -1 24 18 24 13 0 13 -3 3 -15z m3970 -5 c-8 -5 -17 -7 -19 -4 -3 3 1 9 9 14
8 5 17 7 19 4 3 -3 -1 -9 -9 -14z m110 10 c0 -5 -5 -10 -11 -10 -5 0 -7 5 -4
10 3 6 8 10 11 10 2 0 4 -4 4 -10z m-3933 -6 c-3 -3 -12 -4 -19 -1 -8 3 -5 6
6 6 11 1 17 -2 13 -5z m48 -25 c-10 -15 -22 -10 -28 11 -4 17 -2 18 14 9 11
-5 17 -14 14 -20z m3814 9 c-1 -1 2 -12 8 -23 8 -15 7 -23 -3 -33 -13 -11 -14
-9 -10 13 4 22 2 26 -12 21 -16 -6 -16 -5 0 7 10 8 16 17 13 20 -3 4 -2 5 1 3
3 -2 5 -6 3 -8z m-4126 -10 c-2 -5 -10 -8 -18 -8 -8 0 -16 3 -18 8 -3 4 5 7
18 7 13 0 21 -3 18 -7z m4257 8 c0 -2 -6 -9 -14 -15 -11 -9 -16 -9 -22 0 -4 8
-3 9 4 5 7 -4 12 -2 12 3 0 6 5 11 10 11 6 0 10 -2 10 -4z m155 -6 c3 -6 -1
-7 -9 -4 -18 7 -21 14 -7 14 6 0 13 -4 16 -10z m-4225 -15 c0 -8 -4 -15 -10
-15 -5 0 -7 7 -4 15 4 8 8 15 10 15 2 0 4 -7 4 -15z m3995 -12 c-2 -10 -4 -19
-4 -21 -1 -2 -6 0 -11 3 -8 5 -7 11 1 21 15 18 18 18 14 -3z m190 7 c3 -5 1
-10 -4 -10 -6 0 -11 5 -11 10 0 6 2 10 4 10 3 0 8 -4 11 -10z m-4355 -20 c0
-5 -5 -10 -11 -10 -5 0 -7 5 -4 10 3 6 8 10 11 10 2 0 4 -4 4 -10z m4075 -6
c-9 -9 -19 -13 -23 -10 -3 4 0 11 8 16 24 15 33 11 15 -6z m155 12 c0 -2 -7
-7 -16 -10 -8 -3 -12 -2 -9 4 6 10 25 14 25 6z m54 -12 c3 -8 2 -12 -4 -9 -6
3 -10 10 -10 16 0 14 7 11 14 -7z m-3994 -4 c-12 -8 -12 -10 -1 -10 8 0 12 -3
8 -6 -9 -9 -28 6 -22 17 4 5 12 9 18 9 7 0 6 -4 -3 -10z m4080 -27 c0 -32 -7
-27 -14 10 -3 16 -1 25 5 22 5 -4 9 -18 9 -32z m-4019 10 c13 -15 12 -15 -8
-4 -24 12 -29 21 -14 21 5 0 15 -7 22 -17z m4036 -5 c-3 -8 -6 -5 -6 6 -1 11
2 17 5 13 3 -3 4 -12 1 -19z m-4363 -10 c-3 -5 -12 -4 -20 3 -19 16 -18 18 6
12 11 -3 17 -9 14 -15z m3931 12 c3 -5 -1 -10 -10 -10 -9 0 -13 5 -10 10 3 6
8 10 10 10 2 0 7 -4 10 -10z m310 0 c3 -6 -1 -7 -9 -4 -18 7 -21 14 -7 14 6 0
13 -4 16 -10z m-3998 -15 c0 -8 -6 -16 -13 -19 -7 -3 -10 2 -7 15 6 22 20 26
20 4z m123 -16 c0 -6 -4 -7 -10 -4 -5 3 -10 11 -10 16 0 6 5 7 10 4 6 -3 10
-11 10 -16z m3504 6 c3 -8 1 -15 -4 -15 -6 0 -10 7 -10 15 0 8 2 15 4 15 2 0
6 -7 10 -15z m139 0 c4 -8 3 -16 -1 -19 -4 -3 -9 4 -9 15 -2 23 3 25 10 4z
m-4041 -18 c-2 -10 -5 -16 -6 -15 -1 2 -7 10 -13 18 -10 13 -8 16 6 16 13 0
17 -6 13 -19z m129 0 c-10 -9 -11 -8 -5 6 3 10 9 15 12 12 3 -3 0 -11 -7 -18z
m329 19 c0 -11 -19 -15 -25 -6 -3 5 1 10 9 10 9 0 16 -2 16 -4z m3504 -15 c4
-5 -3 -7 -14 -4 -23 6 -26 13 -6 13 8 0 17 -4 20 -9z m316 -8 c0 -16 2 -16 11
-3 9 12 10 12 7 1 -7 -23 -25 -24 -31 -1 -3 11 -1 20 4 20 5 0 9 -8 9 -17z
m123 -1 c4 9 6 9 6 1 2 -22 -17 -23 -40 -2 l-24 20 27 -16 c20 -13 27 -13 31
-3z m-4068 -2 c3 -6 -1 -7 -9 -4 -18 7 -21 14 -7 14 6 0 13 -4 16 -10z m3442
-12 c-3 -8 -6 -5 -6 6 -1 11 2 17 5 13 3 -3 4 -12 1 -19z m23 -15 c-11 -17
-11 -17 -6 0 3 10 6 24 7 30 0 9 2 9 5 0 3 -7 0 -20 -6 -30z m-3817 13 c4 -10
1 -13 -9 -9 -15 6 -19 23 -5 23 5 0 11 -7 14 -14z m562 -15 c-6 -5 -25 10 -25
20 0 5 6 4 14 -3 8 -7 12 -15 11 -17z m145 9 c-12 -22 -21 -26 -17 -7 2 10 17
26 25 27 1 0 -2 -9 -8 -20z m3250 16 c0 -2 -6 -9 -14 -15 -11 -9 -16 -9 -22 0
-4 7 -3 9 4 5 6 -3 13 -2 17 4 6 10 15 14 15 6z m290 -11 c-7 -9 -15 -13 -19
-10 -3 3 1 10 9 15 21 14 24 12 10 -5z m114 -1 c3 -8 2 -12 -4 -9 -6 3 -10 10
-10 16 0 14 7 11 14 -7z m-3859 -3 c3 -5 2 -12 -3 -15 -5 -3 -9 1 -9 9 0 17 3
19 12 6z m92 -6 c0 -8 -4 -12 -9 -9 -4 3 -8 9 -8 15 0 5 4 9 8 9 5 0 9 -7 9
-15z m197 -9 c-5 -14 -9 -15 -15 -5 -5 8 -3 17 4 21 15 9 19 4 11 -16z m2945
3 c3 -11 1 -12 -11 -2 -8 7 -19 9 -23 5 -5 -4 -5 -1 -1 6 9 16 28 11 35 -9z
m476 11 c3 -5 1 -10 -4 -10 -6 0 -11 5 -11 10 0 6 2 10 4 10 3 0 8 -4 11 -10z
m65 0 c0 -5 -5 -10 -11 -10 -5 0 -7 5 -4 10 3 6 8 10 11 10 2 0 4 -4 4 -10z
m-4040 -15 c-10 -12 -10 -15 1 -15 17 0 19 -48 3 -54 -7 -3 -9 5 -6 19 2 12
-1 26 -8 30 -8 5 -8 10 1 21 6 8 14 14 16 14 3 0 0 -7 -7 -15z m610 -2 c0 -9
-3 -13 -7 -10 -3 4 -13 1 -21 -6 -13 -11 -14 -9 -1 11 16 26 29 29 29 5z m341
-1 c-7 -2 -18 1 -23 6 -8 8 -4 9 13 5 13 -4 18 -8 10 -11z m72 4 c4 -11 1 -13
-10 -9 -12 5 -14 3 -8 -8 7 -12 6 -12 -9 1 -17 13 -17 14 1 21 10 4 19 8 19 8
1 1 4 -6 7 -13z m310 1 c4 3 7 1 7 -5 0 -7 -6 -12 -12 -12 -9 0 -8 -3 2 -10 8
-5 12 -11 10 -14 -3 -2 -16 4 -30 15 -20 15 -21 18 -5 12 18 -6 19 -5 5 13
-14 17 -13 18 1 7 9 -7 19 -10 22 -6z m48 -10 c-10 -9 -11 -8 -5 6 3 10 9 15
12 12 3 -3 0 -11 -7 -18z m270 0 c-10 -9 -11 -8 -5 6 3 10 9 15 12 12 3 -3 0
-11 -7 -18z m49 1 c0 -5 6 -6 13 -2 9 6 9 5 0 -8 -7 -8 -11 -18 -8 -21 3 -4 2
-4 -2 -1 -5 3 -8 11 -8 17 -1 7 -6 11 -13 10 -7 -2 -12 4 -12 12 0 9 6 12 15
9 8 -4 15 -10 15 -16z m527 8 c-4 -9 1 -17 11 -19 12 -3 11 -5 -5 -6 -13 0
-23 1 -23 3 0 10 13 36 17 36 3 0 3 -6 0 -14z m256 -1 c-3 -9 -8 -14 -10 -11
-3 3 -2 9 2 15 9 16 15 13 8 -4z m77 0 c-10 -12 -9 -15 4 -15 10 0 14 -5 11
-10 -5 -8 -11 -7 -21 1 -11 9 -11 15 -3 25 6 8 14 14 16 14 3 0 0 -7 -7 -15z
m215 5 c-3 -5 -2 -10 3 -10 5 0 9 -7 9 -16 0 -15 -2 -14 -13 1 -12 16 -11 35
2 35 3 0 2 -4 -1 -10z m55 6 c0 -2 -8 -10 -17 -17 -16 -13 -17 -12 -4 4 13 16
21 21 21 13z m104 -19 c4 4 4 0 1 -9 -4 -9 -14 -19 -23 -23 -13 -5 -14 -4 -5
6 9 9 9 18 2 33 -9 19 -9 19 4 4 8 -10 17 -15 21 -11z m180 8 c-4 -8 -8 -15
-10 -15 -2 0 -4 7 -4 15 0 8 4 15 10 15 5 0 7 -7 4 -15z m56 -7 c0 -6 -3 -8
-7 -5 -3 4 -13 1 -21 -6 -13 -11 -14 -9 -2 10 14 22 30 22 30 1z m-3406 -9
c-8 -14 -24 -10 -24 6 0 9 6 12 15 9 8 -4 12 -10 9 -15z m56 14 c0 -1 -8 -7
-18 -12 -14 -7 -19 -6 -19 4 0 7 9 13 19 12 10 -1 18 -2 18 -4z m1315 -11 c-3
-3 -11 0 -18 7 -9 10 -8 11 6 5 10 -3 15 -9 12 -12z m480 9 c3 -5 1 -12 -5
-16 -5 -3 -10 0 -10 7 0 9 -3 9 -10 -2 -8 -13 -10 -12 -10 3 0 18 25 24 35 8z
m264 -5 c9 -11 9 -16 -1 -22 -7 -4 -10 -4 -6 1 4 4 3 14 -3 22 -6 7 -9 13 -6
13 2 0 10 -6 16 -14z m406 -4 c-3 -3 -11 0 -18 7 -9 10 -8 11 6 5 10 -3 15 -9
12 -12z m39 -3 c-8 -14 -24 -10 -24 6 0 9 6 12 15 9 8 -4 12 -10 9 -15z m56
14 c0 -1 -8 -7 -18 -12 -14 -7 -19 -6 -19 4 0 7 9 13 19 12 10 -1 18 -2 18 -4z
m145 -3 c3 -6 -1 -7 -9 -4 -18 7 -21 14 -7 14 6 0 13 -4 16 -10z m1170 -8 c-3
-3 -11 0 -18 7 -9 10 -8 11 6 5 10 -3 15 -9 12 -12z m480 9 c3 -5 1 -12 -5
-16 -5 -3 -10 0 -10 7 0 9 -3 9 -10 -2 -8 -13 -10 -12 -10 3 0 18 25 24 35 8z
m-4105 -11 c0 -5 -8 -10 -17 -10 -15 0 -16 2 -3 10 19 12 20 12 20 0z m304 -2
c-3 -7 -17 -22 -32 -32 -27 -19 -27 -19 2 12 32 35 38 38 30 20z m276 0 c0
-10 -17 -10 -24 0 -3 5 1 9 9 9 8 0 15 -4 15 -9z m210 2 c0 -5 -7 -10 -16 -10
-9 0 -12 -5 -8 -12 4 -7 3 -8 -5 -4 -9 6 -9 11 0 22 13 16 29 18 29 4z m40 -5
c-7 -9 -15 -13 -19 -10 -3 3 1 10 9 15 21 14 24 12 10 -5z m1730 5 c0 -5 -8
-10 -17 -10 -15 0 -16 2 -3 10 19 12 20 12 20 0z m53 -4 c6 -15 -17 -16 -30
-1 -4 4 -2 5 5 1 6 -4 12 -2 12 3 0 15 7 14 13 -3z m201 6 c3 -5 -1 -9 -9 -9
-8 0 -12 4 -9 9 3 4 7 8 9 8 2 0 6 -4 9 -8z m326 -4 c0 -10 -17 -10 -24 0 -3
5 1 9 9 9 8 0 15 -4 15 -9z m210 2 c0 -5 -7 -10 -16 -10 -9 0 -12 -5 -8 -12 4
-7 3 -8 -5 -4 -9 6 -9 11 0 22 13 16 29 18 29 4z m40 -5 c-7 -9 -15 -13 -19
-10 -3 3 1 10 9 15 21 14 24 12 10 -5z m-3540 -11 c0 -2 -7 -4 -15 -4 -8 0
-15 4 -15 10 0 5 7 7 15 4 8 -4 15 -8 15 -10z m550 -5 c0 -5 -4 -9 -8 -9 -5 0
-9 7 -9 15 0 8 4 12 9 9 4 -3 8 -9 8 -15z m514 12 c3 -4 -6 -6 -19 -3 -14 2
-25 6 -25 8 0 8 39 4 44 -5z m103 3 c-3 -3 -12 -4 -19 -1 -8 3 -5 6 6 6 11 1
17 -2 13 -5z m438 -4 c3 -6 -1 -7 -9 -4 -18 7 -21 14 -7 14 6 0 13 -4 16 -10z
m290 1 c3 -5 2 -12 -3 -15 -5 -3 -9 1 -9 9 0 17 3 19 12 6z m302 -6 c0 -8 -4
-15 -9 -15 -10 0 -11 14 -1 23 9 10 10 9 10 -8z m363 -1 c0 -2 -7 -4 -15 -4
-8 0 -15 4 -15 10 0 5 7 7 15 4 8 -4 15 -8 15 -10z m545 7 c3 -5 2 -12 -3 -15
-5 -3 -9 1 -9 9 0 17 3 19 12 6z m825 -44 c0 -5 -5 -7 -11 -5 -7 2 -13 17 -15
33 l-3 30 14 -25 c8 -14 14 -29 15 -33z m234 45 c2 -4 0 -14 -6 -22 -8 -12 -9
-12 -5 2 3 9 1 19 -6 22 -9 3 -9 5 0 5 6 1 14 -3 17 -7z m-3821 -45 c-8 -5
-17 -6 -20 -3 -4 3 -1 6 5 6 7 0 12 10 13 23 0 21 1 21 8 2 6 -14 4 -23 -6
-28z m3674 37 c-3 -3 -12 -4 -19 -1 -8 3 -5 6 6 6 11 1 17 -2 13 -5z m-4182
-14 c-3 -5 -12 -10 -18 -10 -7 0 -6 4 3 10 19 12 23 12 15 0z m75 -5 c6 -3 10
-1 10 6 0 7 3 9 7 5 5 -4 0 -14 -11 -21 -14 -11 -22 -11 -37 -2 -10 6 -19 15
-19 19 0 8 34 3 50 -7z m215 5 c3 -5 1 -10 -4 -10 -6 0 -11 5 -11 10 0 6 2 10
4 10 3 0 8 -4 11 -10z m60 0 c3 -6 -1 -7 -9 -4 -9 3 -16 1 -16 -5 0 -6 -5 -11
-11 -11 -8 0 -8 5 1 15 14 17 26 19 35 5z m315 0 c0 -5 -5 -10 -11 -10 -5 0
-7 5 -4 10 3 6 8 10 11 10 2 0 4 -4 4 -10z m819 -24 c-3 -3 -11 5 -18 17 -13
21 -12 21 5 5 10 -10 16 -20 13 -22z m2506 24 c3 -6 -1 -7 -9 -4 -18 7 -21 14
-7 14 6 0 13 -4 16 -10z m49 -6 c9 -24 7 -31 -5 -11 -6 9 -15 14 -21 11 -7 -4
-8 -2 -4 4 10 17 23 15 30 -4z m-3569 -4 c3 -5 -1 -10 -10 -10 -9 0 -13 5 -10
10 3 6 8 10 10 10 2 0 7 -4 10 -10z m395 -12 c0 -6 -6 -5 -15 2 -8 7 -15 14
-15 16 0 2 7 1 15 -2 8 -4 15 -11 15 -16z m670 1 c0 -5 -4 -9 -8 -9 -5 0 -9 7
-9 15 0 8 4 12 9 9 4 -3 8 -9 8 -15z m900 12 c0 -6 -4 -13 -10 -16 -5 -3 -10
1 -10 9 0 9 5 16 10 16 6 0 10 -4 10 -9z m990 -13 c0 -6 -6 -5 -15 2 -8 7 -15
14 -15 16 0 2 7 1 15 -2 8 -4 15 -11 15 -16z m-2490 2 c0 -5 -5 -10 -11 -10
-5 0 -7 5 -4 10 3 6 8 10 11 10 2 0 4 -4 4 -10z m485 0 c3 -5 2 -10 -4 -10 -5
0 -13 5 -16 10 -3 6 -2 10 4 10 5 0 13 -4 16 -10z m1405 6 c0 -2 -7 -7 -16
-10 -8 -3 -12 -2 -9 4 6 10 25 14 25 6z m207 -2 c-3 -3 -12 -4 -19 -1 -8 3 -5
6 6 6 11 1 17 -2 13 -5z m43 -4 c-8 -5 -19 -10 -25 -10 -5 0 -3 5 5 10 8 5 20
10 25 10 6 0 3 -5 -5 -10z m420 0 c0 -5 -5 -10 -11 -10 -5 0 -7 5 -4 10 3 6 8
10 11 10 2 0 4 -4 4 -10z m485 0 c3 -5 2 -10 -4 -10 -5 0 -13 5 -16 10 -3 6
-2 10 4 10 5 0 13 -4 16 -10z m-272 -7 c-7 -2 -19 -2 -25 0 -7 3 -2 5 12 5 14
0 19 -2 13 -5z"/>
<path d="M1290 3015 c0 -105 0 -105 69 -85 45 13 51 23 51 91 0 69 -18 89 -78
89 l-42 0 0 -95z"/>
<path d="M6270 3098 c0 -7 -5 -76 -10 -153 -10 -150 -28 -226 -61 -269 l-20
-26 85 0 86 0 0 230 0 230 -40 0 c-25 0 -40 -5 -40 -12z"/>
<path d="M6654 3089 c-17 -19 -19 -38 -19 -211 0 -187 0 -190 24 -209 30 -24
62 -24 92 0 24 19 24 22 24 209 0 173 -2 192 -19 211 -25 28 -77 28 -102 0z"/>
<path d="M7030 3019 l0 -92 48 7 c71 9 97 55 76 133 -7 24 -49 43 -95 43 l-29
0 0 -91z"/>
<path d="M7030 2755 l0 -105 38 0 c56 0 85 19 95 63 21 88 -15 147 -88 147
l-45 0 0 -105z"/>
<path d="M7410 2761 c0 -123 0 -124 68 -100 38 13 57 61 48 124 -8 51 -30 74
-80 82 l-36 6 0 -112z"/>
<path d="M8655 2919 l-21 -114 39 -3 c22 -2 40 -2 42 0 2 2 -7 54 -19 117
l-21 114 -20 -114z"/>
<path d="M5437 4405 c-4 -26 -4 -51 -1 -56 3 -5 0 -9 -6 -9 -6 0 -9 -4 -6 -9
3 -5 -2 -12 -12 -16 -15 -6 -15 -8 7 -26 28 -23 20 -39 -10 -21 -19 12 -20 12
-3 -13 9 -14 21 -25 28 -25 6 0 4 -5 -4 -10 -9 -6 -18 -6 -24 0 -13 13 -26 13
-26 0 0 -5 11 -12 25 -16 31 -8 33 -24 3 -25 -18 -1 -17 -3 7 -9 l30 -7 -25
-10 -25 -11 25 -10 c22 -9 23 -11 7 -17 -9 -4 -26 -5 -36 -2 -16 4 -18 1 -12
-17 6 -16 15 -20 36 -18 23 3 27 1 21 -13 -3 -9 -6 -19 -6 -21 0 -3 -4 -3 -9
1 -5 3 -12 1 -16 -5 -3 -5 1 -10 9 -10 9 0 16 -4 16 -10 0 -5 -4 -10 -10 -10
-5 0 -10 -7 -10 -15 0 -11 5 -12 26 -5 33 13 33 13 26 -12 -8 -31 13 -15 28
22 7 16 17 30 22 30 6 0 8 7 4 15 -3 8 0 15 6 15 6 0 3 10 -8 22 -19 22 -19
22 0 8 18 -14 19 -13 13 4 -4 10 -2 25 4 32 9 11 7 14 -7 15 -13 0 -15 2 -5 6
10 4 8 9 -10 20 -13 8 -17 12 -8 9 22 -6 39 12 39 43 l0 25 -16 -23 c-12 -17
-19 -20 -24 -10 -5 7 0 19 13 30 l22 18 -28 1 c-26 0 -27 1 -13 16 21 21 20
23 -6 16 -16 -4 -19 -2 -12 9 13 22 16 51 3 44 -6 -4 -10 -1 -8 6 3 26 -1 40
-10 35 -5 -4 -7 3 -4 13 3 11 1 27 -5 36 -7 13 -10 7 -15 -30z"/>
<path d="M3266 4350 c-3 -19 -7 -43 -7 -53 0 -9 -4 -15 -10 -12 -5 4 -9 2 -9
-4 0 -5 5 -13 10 -16 6 -3 10 -11 10 -17 0 -6 -7 -5 -17 3 -15 12 -16 12 -11
-8 3 -12 1 -24 -6 -26 -7 -3 -4 -12 9 -27 l20 -23 -22 7 c-26 8 -29 -1 -8 -28
19 -25 19 -37 0 -30 -18 7 -20 -7 -2 -25 10 -11 10 -14 0 -18 -16 -6 -17 -33
-2 -33 8 0 7 -5 -2 -16 -10 -13 -10 -17 0 -24 9 -5 10 -10 2 -14 -6 -4 -11
-14 -11 -22 0 -9 5 -12 11 -8 8 5 8 1 0 -13 -8 -17 -15 -1430 -11 -2449 l0
-121 43 -12 c23 -7 231 -83 462 -168 231 -86 475 -176 543 -200 l123 -45 187
67 c268 96 588 213 802 294 l185 69 3 633 c2 556 0 634 -13 642 -8 4 -15 22
-15 39 0 29 -1 30 -17 16 -10 -9 -29 -21 -43 -28 -21 -10 -23 -10 -12 1 6 7
12 21 12 31 0 10 3 18 8 18 10 0 35 41 28 47 -3 3 -14 0 -23 -8 -15 -11 -16
-11 -5 1 21 24 14 31 -23 24 -40 -7 -47 7 -11 24 26 12 45 58 20 48 -11 -4
-12 -2 -4 14 16 30 13 45 -6 29 -15 -12 -16 -10 -9 21 l7 35 -21 -19 c-12 -11
-24 -16 -29 -12 -4 4 1 13 10 20 10 7 15 16 11 19 -3 4 -2 7 4 7 5 0 10 7 10
15 0 17 -9 19 -23 6 -5 -6 -10 14 -11 54 -1 35 -7 74 -13 86 -7 12 -14 36 -17
53 -9 55 -19 51 -25 -10 -3 -23 -9 -47 -13 -54 -6 -9 -4 -11 4 -5 10 6 11 3 2
-14 -7 -12 -9 -26 -6 -31 3 -6 2 -10 -4 -10 -6 0 -7 -7 -4 -17 4 -11 3 -14 -5
-9 -17 11 -15 -5 5 -26 18 -20 4 -25 -16 -5 -11 10 -11 8 -2 -10 6 -12 16 -25
21 -28 20 -12 10 -26 -10 -15 -11 6 -20 18 -20 28 0 14 -2 14 -9 3 -9 -14 11
-57 32 -72 5 -3 2 -9 -6 -12 -8 -3 -24 1 -36 9 -20 14 -20 14 -7 -18 8 -17 23
-35 35 -40 11 -4 21 -12 21 -18 0 -13 -31 -13 -66 0 -50 19 -41 -13 15 -54 30
-23 31 -25 12 -31 -12 -3 -25 -3 -31 0 -5 3 -10 1 -10 -4 0 -6 4 -11 9 -11 5
0 13 -9 16 -20 5 -16 12 -19 28 -15 20 6 21 5 4 -8 -20 -17 -66 -11 -74 10 -4
10 -9 11 -18 3 -11 -9 -12 -6 -8 11 5 16 3 20 -6 14 -10 -6 -11 -3 -1 15 7 14
8 20 1 16 -6 -4 -13 12 -17 45 -8 56 -22 49 -26 -14 -2 -19 -6 -33 -9 -31 -13
8 -18 -27 -9 -54 9 -24 8 -25 -4 -9 -20 26 -31 20 -12 -8 22 -33 20 -38 -6
-24 l-22 12 18 -28 c16 -24 16 -27 2 -22 -22 9 -20 -9 4 -33 21 -21 11 -26
-21 -10 -26 14 -25 -4 1 -30 22 -22 11 -26 -21 -9 -20 10 -20 10 -4 -15 9 -14
14 -30 10 -36 -3 -5 6 -15 22 -21 36 -15 12 -24 -26 -11 -29 10 -29 10 -19
-18 7 -20 18 -31 40 -36 25 -5 28 -8 15 -15 -18 -10 -100 29 -105 50 -1 7 2
10 7 7 5 -3 12 1 15 10 9 22 8 24 -11 24 -15 0 -14 2 3 15 14 11 15 14 3 9
-10 -3 -20 -1 -24 5 -3 6 -1 11 5 11 14 0 40 25 40 38 0 5 -11 7 -25 4 -29 -5
-34 12 -7 27 9 6 13 11 9 11 -4 0 -2 10 4 23 12 22 12 22 -10 3 -11 -11 -23
-17 -26 -14 -3 3 1 11 10 18 17 14 21 35 5 25 -6 -3 -13 1 -16 10 -4 9 -13 14
-20 11 -8 -3 -11 0 -7 10 4 11 14 13 34 9 28 -6 28 -6 18 27 -5 18 -9 34 -9
34 0 1 10 4 23 8 39 10 99 68 123 120 26 55 30 81 13 70 -6 -4 -26 -10 -44
-14 l-33 -7 19 31 c32 55 41 120 28 206 -9 58 -9 85 0 110 6 18 9 35 6 38 -8
9 -56 -29 -64 -51 l-8 -21 -12 23 c-16 29 -16 102 -1 131 15 29 7 35 -30 22
l-31 -11 7 52 c4 29 13 71 19 95 7 23 11 42 9 42 -3 0 -22 -9 -43 -20 -52 -26
-109 -94 -125 -149 -9 -33 -14 -40 -19 -27 -4 10 -2 26 3 36 13 23 13 30 0 30
-5 0 -13 -18 -16 -41 -7 -45 -7 -44 -184 -214 -63 -60 -152 -145 -197 -189
l-82 -80 -93 91 c-119 115 -237 224 -329 303 l-73 63 -7 -26 c-8 -30 -1 -67
12 -67 5 0 26 -17 47 -38 47 -48 385 -360 420 -389 l27 -22 172 170 c127 124
171 174 167 187 -4 12 -3 13 3 5 7 -9 18 -4 43 20 70 65 70 65 70 11 0 -42 -6
-55 -35 -88 -46 -50 -47 -69 -4 -46 10 6 19 7 19 3 0 -5 14 -14 30 -21 38 -17
62 -62 58 -110 -3 -32 -7 -37 -32 -40 -38 -5 -78 35 -107 106 l-23 56 -96
-104 -97 -104 116 -112 116 -113 -60 -1 -60 0 -85 85 -86 86 -24 -26 -25 -26
68 -66 c37 -36 67 -69 67 -73 0 -4 -14 -34 -31 -66 -94 -175 -139 -266 -139
-279 0 -9 -10 -20 -22 -26 l-23 -10 23 5 c25 5 32 -21 8 -30 -8 -3 -17 -17
-21 -32 -8 -34 -7 -38 11 -34 16 3 19 -14 3 -24 -6 -3 -8 -15 -6 -26 3 -11 3
-17 0 -14 -3 3 -12 -2 -19 -11 -10 -15 -15 -16 -37 -4 -25 14 -37 37 -37 78 0
33 -22 33 -55 -1 -48 -50 -73 -65 -37 -22 30 35 33 44 30 90 -3 50 -2 52 19
48 13 -2 33 3 46 11 21 14 24 13 34 -1 8 -13 14 -14 23 -5 15 14 5 33 -18 33
-12 0 -13 3 -5 11 9 9 5 25 -16 63 -15 28 -52 95 -81 150 l-52 98 71 72 72 72
-26 24 -25 24 -89 -87 c-49 -48 -97 -87 -107 -87 -11 -1 -36 -7 -56 -14 -21
-8 -35 -10 -33 -6 13 21 -8 39 -38 34 l-32 -5 34 16 c22 10 37 12 41 6 3 -6
11 -1 18 9 7 12 8 20 2 20 -5 0 -9 3 -9 8 3 20 -3 22 -23 8 -27 -19 -54 -21
-64 -4 -4 7 -3 8 4 4 7 -4 12 -2 12 5 0 7 3 9 7 6 3 -4 15 5 25 20 20 32 24
53 6 35 -14 -14 -54 -16 -62 -3 -3 5 6 12 22 16 15 4 21 10 14 12 -10 4 -10 8
-1 20 11 12 8 13 -17 8 -25 -5 -27 -4 -13 7 8 7 18 21 22 31 6 15 4 16 -13 7
-12 -7 -21 -7 -25 0 -3 6 1 13 9 16 9 3 16 13 16 21 0 13 -2 13 -16 2 -15 -12
-16 -11 -9 10 5 15 4 21 -3 17 -7 -4 -8 3 -3 22 8 26 7 28 -14 24 -18 -3 -22
-9 -19 -28 3 -14 0 -24 -7 -24 -8 0 -8 -5 1 -15 11 -13 10 -14 -4 -9 -20 8
-21 0 0 -21 9 -9 14 -19 10 -22 -3 -4 -12 -1 -18 5 -21 21 -29 13 -11 -12 12
-16 20 -20 25 -12 5 7 8 4 8 -8 0 -14 -5 -17 -25 -12 -31 8 -31 3 -2 -25 l22
-22 -22 6 c-13 3 -26 1 -29 -4 -3 -5 0 -9 5 -9 6 0 11 -7 11 -16 0 -10 6 -14
15 -10 8 3 15 1 15 -5 0 -6 -13 -8 -31 -5 -25 4 -28 2 -18 -10 6 -8 19 -14 28
-14 14 0 14 -2 1 -10 -8 -5 -25 -10 -37 -10 -17 0 -21 4 -16 17 5 12 1 11 -15
-5 -12 -12 -28 -22 -34 -22 -9 1 -8 5 3 13 8 7 19 21 23 32 6 16 5 18 -5 8 -7
-7 -20 -13 -28 -13 -11 0 -9 5 7 16 22 15 32 41 11 28 -8 -4 -8 -1 -1 13 9 15
7 22 -7 32 -10 8 -17 23 -15 37 1 13 -1 24 -5 24 -4 0 -6 13 -5 29 1 15 -2 35
-7 42 -8 13 -12 -20 -13 -98 0 -13 -4 -23 -8 -23 -4 0 -8 -7 -8 -16 0 -10 -5
-12 -12 -7 -7 4 -5 -5 5 -20 9 -15 13 -27 7 -27 -5 0 -10 5 -10 11 0 5 -4 8
-9 4 -11 -6 -7 -34 10 -67 12 -23 11 -23 -8 -5 -17 15 -21 16 -26 3 -3 -8 3
-22 13 -31 27 -24 14 -40 -16 -20 -26 17 -31 7 -11 -28 15 -27 28 -37 39 -31
4 3 8 0 8 -5 0 -16 -33 -14 -55 3 -17 12 -22 12 -43 -5 -29 -23 -50 -14 -27
11 8 9 18 27 20 40 4 22 4 22 -15 5 -11 -10 -23 -15 -27 -12 -3 4 -1 7 5 7 12
0 9 100 -4 122 -4 7 -11 28 -15 48 -7 34 -7 34 -8 5 -1 -16 -10 -41 -20 -54
l-19 -24 -15 29 c-9 16 -16 25 -17 20 0 -13 -30 15 -30 29 0 6 10 11 23 10 32
-3 57 13 57 36 0 18 -4 20 -26 15 -17 -5 -23 -3 -19 4 5 9 -15 15 -37 11 -5 0
-8 6 -8 14 0 18 12 19 28 3 9 -9 12 -9 12 1 0 7 3 10 8 7 12 -7 45 22 37 33
-3 6 1 11 9 11 10 0 16 9 16 25 0 18 -4 23 -15 19 -10 -4 -15 0 -15 11 0 9 -5
13 -10 10 -6 -4 -8 -10 -5 -15 7 -12 -19 -20 -45 -13 -15 4 -20 11 -17 24 4
16 -1 19 -31 20 -31 1 -28 3 21 11 37 7 57 15 57 24 0 8 9 14 21 14 12 0 19 5
16 13 -2 6 3 17 12 24 13 10 13 12 2 13 -11 0 -9 4 5 15 16 13 17 16 4 25 -10
7 -18 6 -25 -3 -9 -12 -52 -20 -102 -19 -12 0 -30 7 -38 16 -15 15 -15 16 2
18 10 0 23 2 29 2 6 1 18 7 27 14 10 8 17 9 21 3 7 -11 37 -3 48 13 16 23 14
24 -85 40 -15 3 -32 8 -37 11 -15 9 -2 25 21 25 10 0 19 5 19 12 0 6 7 3 15
-8 8 -11 15 -14 15 -6 0 6 9 12 21 12 12 0 18 4 13 11 -4 7 -1 10 7 7 19 -7
51 10 43 23 -3 6 4 19 17 30 12 10 19 19 15 19 -4 0 -2 9 4 20 7 14 7 20 0 20
-5 0 -10 -4 -10 -10 0 -5 -6 -10 -13 -10 -7 0 -18 -5 -25 -12 -13 -13 -26 -17
-87 -24 -34 -5 -44 -1 -65 21 -17 18 -20 24 -7 19 11 -4 17 -1 17 7 0 10 3 10
8 3 6 -10 29 -11 75 -5 4 1 7 8 7 16 0 8 7 15 15 15 8 0 20 10 26 23 7 12 17
25 23 29 6 4 7 10 3 14 -4 4 -13 2 -19 -4 -7 -7 -20 -12 -31 -12 -10 0 -16 -4
-13 -8 7 -12 -85 -12 -106 -1 -10 6 -18 15 -18 22 0 8 3 9 8 1 7 -12 42 -15
42 -4 0 3 18 6 40 6 35 -1 43 3 61 32 l21 33 -24 -11 c-17 -8 -31 -8 -53 1
-17 7 -37 13 -47 14 -32 4 -48 15 -48 32 0 11 3 14 8 7 4 -7 18 -11 32 -10 14
1 31 -2 38 -7 9 -7 12 -3 12 14 1 21 2 22 11 7 12 -21 44 -25 36 -4 -3 8 2 16
14 19 11 3 19 9 18 14 -3 19 2 33 12 31 6 -2 13 8 15 21 3 19 2 21 -9 12 -8
-6 -17 -8 -20 -4 -4 3 -13 1 -21 -6 -8 -6 -25 -14 -37 -17 -22 -6 -32 -6 -80
-3 -9 0 -16 7 -16 14 0 8 4 12 9 9 4 -3 8 0 8 6 0 7 6 8 18 1 13 -7 26 -5 46
8 15 10 27 21 27 25 -1 3 8 15 19 26 12 12 18 25 15 30 -4 6 -12 4 -21 -5 -26
-25 -109 -31 -118 -8 -4 10 -1 11 12 4 10 -5 27 -5 42 1 l25 10 -30 13 -30 13
35 2 c26 1 41 9 59 32 l25 30 -25 -7 c-33 -11 -102 -6 -111 8 -9 14 -8 15 22
19 33 5 52 18 68 45 19 35 14 43 -15 27 -32 -16 -83 -19 -83 -4 0 6 8 14 18
17 18 7 42 36 54 64 5 14 2 14 -30 -2 -38 -20 -59 -16 -30 5 10 7 22 25 28 41
9 22 8 26 -2 18 -7 -5 -22 -13 -32 -17 -18 -6 -19 -5 -4 11 26 31 31 43 12 36
-14 -5 -15 -3 -4 17 10 19 10 22 -2 17 -11 -4 -15 3 -15 26 -1 18 -5 48 -10
67 l-9 35 -8 -35z m1588 -1185 c3 -9 0 -15 -9 -15 -9 0 -12 6 -9 15 4 8 7 15
9 15 2 0 5 -7 9 -15z m19 -401 c29 -20 64 -80 53 -91 -3 -3 -6 -1 -6 4 0 6 -8
10 -17 9 -10 -2 -17 -6 -15 -9 1 -4 2 -11 2 -15 0 -5 9 -19 20 -32 22 -25 19
-40 -3 -22 -14 12 -27 7 -27 -10 0 -5 5 -6 10 -3 6 3 10 -1 10 -10 0 -9 4 -14
8 -11 4 2 8 -4 9 -14 1 -11 -4 -19 -10 -17 -7 1 -11 -4 -10 -10 2 -7 -2 -13
-7 -13 -5 0 -10 -4 -10 -10 0 -5 7 -10 15 -10 8 0 15 -4 15 -9 0 -6 -9 -8 -21
-6 -29 6 -19 -17 14 -33 36 -17 35 -33 -2 -22 -38 11 -65 26 -81 44 -10 13
-10 16 3 16 9 0 28 12 42 27 28 31 32 45 11 37 -28 -11 -54 34 -60 104 -4 37
-9 94 -12 127 l-6 60 23 -31 c13 -18 36 -40 52 -50z m-1436 -19 c0 -8 -4 -12
-9 -9 -5 3 -6 10 -3 15 9 13 12 11 12 -6z m353 -15 c0 -16 -58 -42 -65 -29 -4
6 2 13 14 16 12 3 21 9 21 14 0 5 7 9 15 9 8 0 15 -4 15 -10z m50 -6 c0 -2
-12 -15 -27 -29 l-28 -25 24 0 c23 0 23 -1 7 -19 -23 -26 -64 -35 -83 -19 -14
11 -13 13 6 18 12 3 30 19 39 35 9 17 21 33 25 36 8 6 37 8 37 3z m1110 -4 c8
-5 11 -13 6 -17 -5 -4 -11 -2 -13 5 -3 6 -9 10 -14 6 -5 -3 -9 0 -9 5 0 13 10
14 30 1z m280 -39 c0 -10 -7 -21 -15 -24 -12 -5 -12 -2 -3 18 13 30 18 31 18
6z m-1296 -23 c-3 -4 -9 -8 -15 -8 -5 0 -9 4 -9 8 0 5 7 9 15 9 8 0 12 -4 9
-9z m1586 2 c0 -5 -5 -10 -11 -10 -5 0 -7 5 -4 10 3 6 8 10 11 10 2 0 4 -4 4
-10z m-565 -20 c3 -5 1 -10 -4 -10 -6 0 -11 5 -11 10 0 6 2 10 4 10 3 0 8 -4
11 -10z m299 -5 c-25 -19 -35 -19 -28 0 4 8 16 15 27 15 20 0 20 0 1 -15z
m-1669 -15 c-7 -12 23 -40 43 -40 15 0 15 -1 0 -17 -13 -12 -20 -14 -31 -5
-10 9 -17 8 -27 -1 -10 -10 -12 -9 -7 4 4 13 0 15 -21 11 l-27 -5 23 25 c12
13 22 29 22 36 0 6 7 9 15 6 8 -4 13 -10 10 -14z m315 0 c0 -5 -7 -7 -15 -4
-8 4 -15 8 -15 10 0 2 7 4 15 4 8 0 15 -4 15 -10z m1388 4 c12 -4 22 -10 22
-15 0 -5 -11 -4 -24 1 -13 5 -27 6 -30 3 -3 -4 -6 -1 -6 5 0 13 5 14 38 6z
m-1443 -24 c19 0 65 -51 65 -70 -1 -12 -2 -12 -10 2 -13 22 -66 48 -99 48
l-26 1 25 20 c14 12 26 16 28 10 2 -6 10 -11 17 -11z m99 -5 c4 -13 2 -14 -14
-5 -23 13 -26 20 -6 20 8 0 16 -7 20 -15z m80 4 c-4 -7 1 -10 12 -7 14 2 25
-9 43 -47 37 -79 41 -100 24 -125 -21 -30 -79 -24 -105 10 -19 26 -42 134 -26
124 4 -3 8 -14 8 -25 0 -10 5 -19 10 -19 6 0 10 -17 10 -37 0 -26 3 -34 9 -24
7 11 10 9 13 -10 2 -18 10 -25 31 -27 30 -4 32 4 18 73 -8 38 -9 38 -10 8 0
-17 -4 -39 -7 -48 -10 -24 -24 1 -24 41 0 17 -5 45 -11 63 -10 29 -7 61 6 61
4 0 3 -5 -1 -11z m-254 -23 c0 -11 -19 -15 -25 -6 -3 5 1 10 9 10 9 0 16 -2
16 -4z m1460 -6 c0 -5 -2 -10 -4 -10 -3 0 -8 5 -11 10 -3 6 -1 10 4 10 6 0 11
-4 11 -10z m-273 -6 c-3 -3 -12 -4 -19 -1 -8 3 -5 6 6 6 11 1 17 -2 13 -5z
m-1129 -39 l37 -34 -47 21 c-27 12 -48 28 -48 35 0 22 18 15 58 -22z m1452 21
c0 -12 -33 -36 -48 -35 -12 0 -11 3 6 9 12 5 22 14 22 20 0 5 5 10 10 10 6 0
10 -2 10 -4z m-1655 -35 c3 -6 -4 -8 -16 -6 -30 6 -37 15 -11 15 11 0 23 -4
27 -9z m1315 -11 c0 -5 -5 -10 -11 -10 -5 0 -7 5 -4 10 3 6 8 10 11 10 2 0 4
-4 4 -10z m-1149 -31 c19 -18 26 -26 17 -19 -10 7 -18 9 -18 4 0 -4 -5 -3 -12
4 -7 7 -23 13 -37 13 -17 1 -20 3 -8 6 9 2 17 9 17 14 0 14 5 11 41 -22z m793
-153 c21 -26 24 -20 27 41 2 38 6 50 16 46 18 -7 43 -56 43 -83 0 -46 -46 -99
-86 -100 -17 0 -20 5 -16 25 2 15 0 25 -7 25 -6 0 -11 -12 -11 -27 l0 -28 -19
30 c-18 29 -26 64 -38 165 l-5 45 40 -60 c23 -33 48 -69 56 -79z m-824 83 c0
-11 17 -38 37 -61 l37 -43 -44 40 c-25 22 -46 40 -47 40 -1 0 -5 16 -8 34 -5
30 -4 33 10 21 8 -7 15 -21 15 -31z m534 -24 c3 -8 1 -15 -4 -15 -6 0 -10 7
-10 15 0 8 2 15 4 15 2 0 6 -7 10 -15z m626 -25 c0 -11 -7 -20 -15 -20 -13 0
-13 3 -3 20 7 11 14 20 15 20 2 0 3 -9 3 -20z m-33 -25 c8 -9 13 -19 9 -22 -3
-4 0 -16 8 -28 12 -18 12 -24 0 -40 -13 -17 -14 -16 -14 17 0 21 -9 46 -21 62
-22 28 -8 36 18 11z m-1032 -62 l18 -28 -21 19 c-12 11 -22 23 -22 28 0 14 7
9 25 -19z m285 -19 c14 -40 3 -56 -31 -47 -17 5 -17 7 -4 26 8 12 15 29 15 39
0 28 7 21 20 -18z m663 -10 c-7 -20 -10 -18 -15 11 -4 20 -2 23 8 14 7 -6 10
-17 7 -25z m-864 -41 c2 -2 0 -3 -6 -3 -6 0 -21 9 -34 21 l-24 20 30 -17 c17
-10 32 -19 34 -21z m948 -5 c-3 -8 -6 -5 -6 6 -1 11 2 17 5 13 3 -3 4 -12 1
-19z m-930 -45 c-3 -10 -5 -2 -5 17 0 19 2 27 5 18 2 -10 2 -26 0 -35z m88 37
c-3 -5 -21 -9 -38 -9 l-32 2 35 7 c19 4 36 8 38 9 2 0 0 -3 -3 -9z m105 -26
c0 -8 -4 -12 -10 -9 -5 3 -10 10 -10 16 0 5 5 9 10 9 6 0 10 -7 10 -16z m647
-66 c-3 -8 -6 -5 -6 6 -1 11 2 17 5 13 3 -3 4 -12 1 -19z m-290 -64 c-3 -3
-12 -4 -19 -1 -8 3 -5 6 6 6 11 1 17 -2 13 -5z"/>
<path d="M4846 2635 c4 -8 8 -15 10 -15 2 0 4 7 4 15 0 8 -4 15 -10 15 -5 0
-7 -7 -4 -15z"/>
<path d="M4035 2570 c3 -5 8 -10 11 -10 2 0 4 5 4 10 0 6 -5 10 -11 10 -5 0
-7 -4 -4 -10z"/>
<path d="M4585 2260 c3 -5 8 -10 11 -10 2 0 4 5 4 10 0 6 -5 10 -11 10 -5 0
-7 -4 -4 -10z"/>
<path d="M3550 4350 c-10 -25 -10 -33 1 -47 10 -11 10 -14 2 -9 -16 9 -17 -6
-1 -22 16 -16 -4 -16 -22 1 -11 9 -11 8 0 -8 8 -11 20 -23 25 -27 6 -5 5 -11
-4 -17 -11 -7 -11 -13 0 -32 7 -13 12 -26 12 -29 -1 -3 1 -7 3 -9 2 -2 5 16 6
40 1 37 2 39 5 11 4 -29 7 -32 26 -26 35 10 44 24 17 24 -25 1 -25 1 -5 16 20
16 20 16 -2 9 -14 -4 -23 -2 -23 4 0 6 4 11 9 11 5 0 11 6 14 14 4 10 -1 12
-16 9 -20 -4 -20 -3 -4 7 9 6 17 16 17 22 0 6 -8 7 -17 3 -15 -5 -16 -4 -5 6
14 15 17 33 3 25 -4 -3 -7 8 -5 24 5 40 -19 40 -36 0z"/>
<path d="M5210 4248 c0 -26 4 -38 8 -30 8 12 4 72 -4 72 -2 0 -4 -19 -4 -42z"/>
<path d="M4305 4151 c-84 -38 -80 -77 4 -40 38 16 54 18 68 10 16 -9 15 -10
-7 -11 -14 0 -36 -7 -50 -15 -25 -14 -25 -14 15 -15 36 -1 38 -2 16 -11 -13
-5 -32 -7 -42 -4 -30 10 -22 -13 22 -63 64 -73 90 -124 92 -181 1 -28 5 -51 8
-51 11 0 47 45 55 70 l8 25 6 -30 7 -30 17 39 c10 22 16 50 13 63 -3 18 -1 21
6 14 6 -6 15 -11 19 -11 13 0 9 58 -7 97 -8 20 -14 38 -11 40 2 2 21 6 42 9
l39 6 -24 -20 c-24 -20 -24 -49 2 -71 9 -7 19 1 36 34 13 24 21 51 18 59 -9
23 -68 30 -109 13 -19 -8 -41 -11 -48 -7 -8 5 -1 12 24 21 20 7 36 16 36 19 0
3 -28 18 -62 33 -74 32 -136 35 -193 8z"/>
<path d="M3635 4150 c-3 -5 -1 -10 4 -10 6 0 11 5 11 10 0 6 -2 10 -4 10 -3 0
-8 -4 -11 -10z"/>
<path d="M5100 4118 c-52 -16 -96 -31 -97 -32 -1 -1 10 -36 24 -79 21 -61 31
-77 46 -77 15 0 17 -3 9 -13 -6 -7 -12 -30 -14 -52 l-3 -40 -150 -13 c-82 -8
-152 -16 -154 -18 -3 -2 -5 -26 -5 -52 l-1 -47 55 0 c30 0 102 3 160 5 l105 5
3 -48 c2 -27 -4 -70 -13 -97 -15 -47 -13 -90 4 -90 4 0 16 18 26 40 10 22 19
39 21 38 1 -2 -3 -27 -8 -57 -10 -46 -9 -58 7 -87 9 -18 24 -35 32 -38 11 -5
13 2 8 37 -3 23 -2 62 4 87 l9 45 1 -63 c1 -34 7 -77 15 -95 15 -36 96 -118
96 -98 0 7 -9 47 -20 90 -16 63 -60 307 -60 334 0 4 9 7 20 7 22 0 24 10 14
84 -5 36 -11 46 -25 46 -11 0 -21 10 -25 24 -6 27 11 240 21 269 9 22 7 22
-105 -15z"/>
<path d="M4103 4114 c-3 -10 -1 -31 7 -48 7 -17 15 -43 17 -59 6 -33 23 -46
23 -18 0 31 16 33 30 3 l13 -27 6 25 c5 18 9 21 15 11 7 -11 10 -11 17 0 6 11
9 10 14 -3 4 -10 14 -14 25 -11 14 4 25 -4 39 -28 25 -41 28 -74 6 -65 -8 3
-15 1 -15 -4 0 -6 -6 -10 -14 -10 -8 0 -16 -6 -19 -12 -3 -10 -9 -10 -26 0
-27 16 -34 15 -28 -2 4 -10 0 -12 -15 -8 -20 5 -20 4 -3 -22 27 -41 59 -39
132 10 52 33 52 34 39 64 -21 50 -75 120 -106 138 -16 9 -31 26 -32 37 -2 16
-12 21 -43 23 -22 2 -44 8 -49 13 -15 14 -26 11 -33 -7z"/>
<path d="M4647 3969 c-9 -17 -26 -33 -36 -36 -18 -5 -18 -7 6 -59 13 -30 23
-62 21 -71 -2 -10 -13 4 -27 35 -27 58 -36 63 -45 28 -8 -31 -55 -88 -69 -83
-6 2 -27 -7 -47 -21 l-35 -24 -3 24 c-5 37 -24 78 -33 72 -5 -3 -9 -31 -9 -63
0 -44 -7 -72 -28 -115 -34 -66 -25 -71 48 -31 39 22 42 22 20 4 -14 -12 -62
-40 -108 -62 -52 -25 -97 -56 -120 -81 l-36 -41 26 -5 26 -5 -49 -53 c-56 -61
-67 -56 -13 6 l36 42 -27 0 -26 0 25 33 c27 35 33 57 16 57 -9 0 -94 108 -102
129 -1 6 -27 13 -56 17 l-54 7 16 -32 17 -32 -26 6 c-14 3 -36 7 -50 10 l-26
6 22 -43 c12 -24 36 -64 55 -90 21 -30 29 -48 21 -51 -7 -2 -10 -6 -7 -9 218
-195 367 -327 385 -342 l24 -19 168 158 c92 87 174 164 181 170 10 9 11 27 4
78 -9 68 -2 83 26 55 9 -9 12 -8 12 6 0 17 -36 203 -46 238 -4 13 -1 16 10 12
9 -3 16 -3 16 0 0 10 -59 158 -73 183 -12 22 -12 22 -30 -8z m0 -211 c-3 -8
-6 -5 -6 6 -1 11 2 17 5 13 3 -3 4 -12 1 -19z m-287 -235 c0 -5 -4 -15 -9 -23
-7 -10 -4 -18 10 -28 46 -32 1 -100 -50 -73 -27 15 -27 42 2 91 19 35 47 54
47 33z m116 -33 c1 -19 5 -42 8 -51 8 -19 -18 -49 -42 -49 -28 0 -43 15 -43
41 0 13 1 37 1 53 -1 34 15 47 50 44 21 -3 25 -8 26 -38z m-96 -238 c5 2 41
31 80 66 l70 63 0 -39 c0 -37 -6 -45 -74 -106 -40 -36 -77 -66 -82 -66 -5 0
-39 30 -76 67 -61 60 -68 72 -68 106 l0 39 71 -66 c39 -37 75 -66 79 -64z"/>
<path d="M4323 3445 c-7 -20 2 -29 21 -22 9 4 13 13 10 22 -8 19 -23 19 -31 0z"/>
<path d="M4432 3496 c1 -10 8 -17 13 -17 15 1 12 24 -3 29 -9 3 -13 -2 -10
-12z"/>
<path d="M4420 3437 c0 -19 10 -27 26 -20 21 8 17 33 -6 33 -11 0 -20 -6 -20
-13z"/>
<path d="M4076 3954 c-9 -23 11 -53 39 -60 14 -3 49 3 83 15 45 15 68 18 91
11 38 -11 42 5 6 22 -19 8 -42 8 -97 -2 -69 -12 -72 -12 -89 9 -21 25 -25 26
-33 5z"/>
<path d="M5431 3948 c-11 -18 -11 -20 2 -15 9 3 17 1 20 -6 2 -6 6 -4 10 5 10
27 -17 41 -32 16z"/>
<path d="M3693 3826 c-17 -21 -29 -26 -65 -26 -31 0 -50 -6 -61 -18 -20 -22
-21 -30 -4 -65 10 -24 18 -27 60 -27 l47 0 1 43 c2 32 3 35 6 12 7 -59 14 -75
35 -86 17 -9 20 -9 16 2 -3 8 -2 43 2 79 7 65 7 65 9 15 1 -41 7 -58 31 -85
l29 -35 -5 32 c-3 17 -1 39 5 50 10 15 12 13 8 -14 -2 -21 1 -33 9 -33 6 0 17
-7 24 -15 16 -19 34 -20 27 -1 -3 8 2 16 14 19 11 3 19 0 19 -8 0 -7 7 -16 16
-19 22 -9 26 -8 18 5 -14 23 26 29 211 29 l191 0 12 33 c6 17 9 42 6 55 -6 22
-8 22 -187 22 l-181 0 -21 26 c-19 24 -27 26 -136 31 l-115 6 -21 -27z m180
-137 c-5 -5 -8 13 -7 39 2 72 7 83 11 23 2 -30 0 -58 -4 -62z m84 54 c-2 -25
-10 -50 -17 -56 -10 -9 -12 -8 -6 6 3 10 6 39 6 63 0 31 4 43 11 38 7 -4 9
-24 6 -51z"/>
<path d="M5371 3784 c-1 -28 -8 -65 -17 -83 -12 -24 -13 -36 -5 -44 16 -16 14
-27 -4 -21 -8 4 -15 1 -15 -5 0 -7 7 -14 15 -17 22 -9 18 -24 -6 -24 -15 0
-19 -4 -15 -16 3 -9 6 -18 6 -20 0 -2 7 -4 16 -4 8 0 12 -5 8 -11 -3 -6 -17
-8 -30 -5 -14 4 -24 2 -24 -4 0 -5 5 -10 11 -10 5 0 7 -5 4 -10 -4 -6 -3 -10
2 -9 27 5 43 -3 43 -21 0 -28 -25 -35 -54 -16 -23 15 -25 15 -23 -4 1 -15 6
-18 20 -14 14 4 17 3 12 -6 -5 -9 -4 -11 3 -6 8 4 12 0 12 -11 0 -15 2 -16 10
-3 8 13 10 12 10 -2 0 -17 -10 -22 -39 -19 -7 2 -10 -3 -6 -9 4 -6 14 -9 22
-6 11 5 13 2 9 -10 -5 -12 -2 -15 10 -10 15 6 15 4 0 -19 -15 -23 -15 -25 0
-25 10 0 14 -3 11 -6 -3 -4 -2 -15 4 -25 6 -13 6 -19 0 -19 -6 0 0 -16 14 -35
13 -20 25 -41 28 -48 3 -8 14 -5 35 10 20 15 32 19 34 11 3 -7 7 -5 11 5 4 10
2 16 -5 14 -6 -1 -11 11 -12 26 -1 21 4 29 20 33 37 9 37 32 1 29 -17 -1 -37
3 -44 11 -19 18 -16 27 7 21 11 -3 20 0 20 6 0 6 3 7 7 4 10 -11 33 14 33 37
0 12 -3 16 -8 10 -10 -15 -64 -12 -70 4 -2 7 2 11 10 10 7 -2 12 3 10 10 -1 8
2 11 8 7 6 -4 18 1 25 11 19 25 19 40 1 24 -21 -17 -58 -8 -67 16 -6 18 -4 20
19 16 15 -3 24 -1 20 3 -4 4 0 21 8 37 l15 29 -23 -15 c-14 -9 -29 -12 -37 -7
-11 7 -11 10 1 17 9 5 19 19 23 32 6 21 5 22 -14 11 -28 -18 -40 -2 -13 17 12
8 22 20 22 27 0 8 -3 8 -12 -1 -19 -19 -30 -14 -18 8 7 13 7 20 1 20 -6 0 -8
6 -5 14 3 8 1 17 -5 20 -6 4 -8 13 -4 21 3 8 0 15 -5 15 -6 0 -10 8 -8 18 2 9
0 28 -5 42 -5 19 -7 13 -8 -26z"/>
<path d="M3732 3600 c0 -14 2 -19 5 -12 2 6 2 18 0 25 -3 6 -5 1 -5 -13z"/>
<path d="M3730 3543 c0 -5 5 -15 10 -23 7 -12 12 -12 22 -2 9 9 8 12 -7 12
-17 0 -18 2 -5 10 13 8 12 10 -2 10 -10 0 -18 -3 -18 -7z"/>
<path d="M3765 3489 c-11 -16 -1 -19 13 -3 7 8 8 14 3 14 -5 0 -13 -5 -16 -11z"/>
<path d="M4768 3469 c-19 -11 -24 -29 -8 -29 5 0 14 9 20 20 12 23 12 23 -12
9z"/>
<path d="M3750 3444 c0 -8 5 -12 10 -9 6 4 8 11 5 16 -9 14 -15 11 -15 -7z"/>
<path d="M3784 3414 c-18 -14 -18 -15 4 -4 12 6 22 13 22 15 0 8 -5 6 -26 -11z"/>
<path d="M3822 3398 c-7 -7 -18 -13 -25 -13 -6 0 -13 -8 -15 -18 -3 -16 -1
-17 16 -8 11 6 23 7 27 3 5 -4 5 -1 1 6 -4 6 -3 12 2 12 5 0 9 7 9 15 0 18 0
18 -15 3z"/>
<path d="M3561 3354 c0 -11 3 -14 6 -6 3 7 2 16 -1 19 -3 4 -6 -2 -5 -13z"/>
<path d="M3836 3334 c-14 -14 -14 -34 0 -34 3 0 2 5 -1 10 -3 6 -2 10 3 10 6
0 12 7 16 15 7 19 1 19 -18 -1z"/>
<path d="M3568 3313 c-20 -2 -41 -10 -47 -17 -8 -10 1 -13 45 -14 82 -2 99
-17 29 -26 -57 -6 -95 -20 -95 -34 0 -6 40 -6 105 -1 6 0 24 -4 40 -9 27 -8
24 -9 -34 -14 -63 -6 -110 -29 -119 -57 -3 -10 1 -10 14 -3 27 13 103 20 139
13 27 -6 23 -8 -34 -20 -41 -8 -72 -21 -87 -36 -28 -29 -33 -57 -6 -32 22 20
51 22 87 5 21 -9 34 -9 63 2 20 8 63 13 94 11 41 -1 67 3 97 18 22 12 56 21
76 21 19 0 35 2 35 5 0 2 -20 23 -45 46 -33 31 -45 49 -45 70 0 29 -1 29 -60
29 -41 0 -80 8 -122 25 -34 14 -69 24 -77 23 -9 -1 -33 -3 -53 -5z"/>
<path d="M5515 3220 c3 -5 8 -10 11 -10 2 0 4 5 4 10 0 6 -5 10 -11 10 -5 0
-7 -4 -4 -10z"/>
<path d="M3858 3078 c10 -13 10 -17 0 -21 -9 -4 -9 -6 -1 -6 20 -2 24 16 5 30
-15 13 -16 12 -4 -3z"/>
<path d="M4002 3060 c-18 -29 -15 -33 20 -26 22 4 37 1 52 -11 12 -10 5 -1
-13 20 -19 20 -37 37 -41 37 -3 0 -11 -9 -18 -20z"/>
<path d="M5185 3041 c3 -11 0 -23 -6 -27 -8 -5 -9 -3 -4 6 5 8 4 11 -3 6 -12
-7 -5 -36 9 -36 5 0 12 -1 16 -2 10 -4 11 42 0 49 -5 3 -3 9 4 14 11 7 10 9
-4 9 -14 0 -17 -5 -12 -19z"/>
<path d="M4108 2964 c2 -19 0 -34 -5 -34 -5 0 -29 -14 -53 -32 l-43 -32 32 -9
c30 -7 32 -10 18 -25 -9 -9 -19 -30 -22 -47 -7 -27 1 -22 74 50 44 44 81 82
81 86 0 4 -19 22 -43 42 l-43 35 4 -34z"/>
<path d="M4316 2701 l-48 -49 17 -33 c10 -19 33 -62 52 -96 l35 -63 35 67 c20
37 44 80 54 96 l18 30 -51 46 c-28 25 -54 47 -57 49 -4 1 -28 -20 -55 -47z"/>
<path d="M4520 10 c0 -5 5 -10 11 -10 5 0 7 5 4 10 -3 6 -8 10 -11 10 -2 0 -4
-4 -4 -10z"/>
</g>
</svg>
