<svg preserveAspectRatio="none" width="100%" height="100%" overflow="visible" style="display: block;" viewBox="0 0 64 64" fill="none" xmlns="http://www.w3.org/2000/svg">
<g id="&#209;&#142;&#209;&#130;&#209;&#131;&#208;&#177;" clip-path="url(#clip0_0_9)">
<path id="Vector" d="M42.3857 42.9783L20.76 43C17.9739 43 16 40.5451 16 37.9386V26.1119C16.0036 23.5054 17.9739 21.0614 20.7563 21.0542L41.5553 21C44.4069 20.9928 46.9745 22.8701 46.9781 25.8953L47 37.9495C47.0036 40.3827 45.1535 42.9747 42.3784 42.9783H42.3857ZM36.5768 32.0181L28.2478 27.0036L28.2733 37.0253L36.5768 32.0145V32.0181Z" fill="var(--fill-0, white)"/>
<path id="Vector_2" opacity="0.5" d="M64 32C64 49.6707 49.6748 64 32 64C14.3252 64 0 49.6707 0 32C0 14.3293 14.3252 0 32 0C49.6748 0 64 14.3252 64 32ZM60.6908 32C60.6908 16.1552 47.8448 3.30923 32 3.30923C16.1552 3.30923 3.30923 16.1552 3.30923 32C3.30923 47.8448 16.1552 60.6908 32 60.6908C47.8448 60.6908 60.6908 47.8448 60.6908 32Z" fill="var(--fill-0, white)"/>
</g>
<defs>
<clipPath id="clip0_0_9">
<rect width="64" height="64" fill="white"/>
</clipPath>
</defs>
</svg>
