<svg preserveAspectRatio="none" width="100%" height="100%" overflow="visible" style="display: block;" viewBox="0 0 64 64" fill="none" xmlns="http://www.w3.org/2000/svg">
<g id="&#209;&#150;&#208;&#189;&#209;&#129;&#209;&#130;&#208;&#176;" clip-path="url(#clip0_0_4)">
<path id="Vector" opacity="0.5" d="M64 32C64 49.6707 49.6748 64 32 64C14.3252 64 0 49.6707 0 32C0 14.3293 14.3252 0 32 0C49.6748 0 64 14.3252 64 32ZM60.6908 32C60.6908 16.1552 47.8448 3.30923 32 3.30923C16.1552 3.30923 3.30923 16.1552 3.30923 32C3.30923 47.8448 16.1552 60.6908 32 60.6908C47.8448 60.6908 60.6908 47.8448 60.6908 32Z" fill="var(--fill-0, white)"/>
<path id="Vector_2" d="M39.6416 47.9095L23.7147 47.9193C19.4917 47.9193 15.7725 44.2655 15.7725 40.0229V23.9913C15.7758 19.294 19.8679 15.9935 24.3787 16L39.3113 16.0294C43.8777 16.0393 47.6395 19.68 47.6395 24.2628V39.6893C47.6395 44.0463 44.1721 47.9095 39.6416 47.9095ZM44.8819 39.7154L44.8983 24.4002C44.8983 21.6034 42.687 18.8459 39.7529 18.8459L23.7245 18.836C20.738 18.836 18.4711 21.538 18.4711 24.4165V39.5388C18.4711 42.4272 20.7184 45.1487 23.7212 45.1454L39.7627 45.1324C42.5366 45.1324 44.8819 42.5187 44.8852 39.7122L44.8819 39.7154Z" fill="var(--fill-0, white)"/>
<path id="Vector_3" d="M39.8901 31.9924C39.8901 36.5261 36.2167 40.1995 31.6829 40.1995C27.1492 40.1995 23.4757 36.5261 23.4757 31.9924C23.4757 27.4586 27.1492 23.7852 31.6829 23.7852C36.2167 23.7852 39.8901 27.4586 39.8901 31.9924ZM37.1326 31.9924C37.1326 28.983 34.6923 26.5427 31.6829 26.5427C28.6735 26.5427 26.2333 28.983 26.2333 31.9924C26.2333 35.0018 28.6735 37.442 31.6829 37.442C34.6923 37.442 37.1326 35.0018 37.1326 31.9924Z" fill="var(--fill-0, white)"/>
<path id="Vector_4" d="M40.1189 25.3259C41.1668 25.3259 42.0162 24.4765 42.0162 23.4287C42.0162 22.3809 41.1668 21.5315 40.1189 21.5315C39.0711 21.5315 38.2217 22.3809 38.2217 23.4287C38.2217 24.4765 39.0711 25.3259 40.1189 25.3259Z" fill="var(--fill-0, white)"/>
</g>
<defs>
<clipPath id="clip0_0_4">
<rect width="64" height="64" fill="white"/>
</clipPath>
</defs>
</svg>
