<svg preserveAspectRatio="none" width="100%" height="100%" overflow="visible" style="display: block;" viewBox="0 0 64 64" fill="none" xmlns="http://www.w3.org/2000/svg">
<g clip-path="url(#clip0_fb)">
<path opacity="0.5" d="M64 32C64 49.6707 49.6748 64 32 64C14.3252 64 0 49.6707 0 32C0 14.3293 14.3252 0 32 0C49.6748 0 64 14.3252 64 32ZM60.6908 32C60.6908 16.1552 47.8448 3.30923 32 3.30923C16.1552 3.30923 3.30923 16.1552 3.30923 32C3.30923 47.8448 16.1552 60.6908 32 60.6908C47.8448 60.6908 60.6908 47.8448 60.6908 32Z" fill="var(--fill-0, white)"/>
<path transform="translate(32 32) scale(1.28) translate(-32 -32)" d="M35.4375 42V32.9375H38.3125L38.8125 29.5625H35.4375V27.625C35.4375 26.6875 35.6875 26.0625 37.0625 26.0625H38.9375V23.0625C38.625 23 37.5625 22.875 36.3125 22.875C33.6875 22.875 31.9375 24.375 31.9375 27.375V29.5625H29.3125V32.9375H31.9375V42H35.4375Z" fill="var(--fill-0, white)"/>
</g>
<defs>
<clipPath id="clip0_fb">
<rect width="64" height="64" fill="white"/>
</clipPath>
</defs>
</svg>
