<svg preserveAspectRatio="none" width="100%" height="100%" overflow="visible" style="display: block;" viewBox="0 0 64 64" fill="none" xmlns="http://www.w3.org/2000/svg">
<g id="&#209;&#130;&#208;&#181;&#208;&#187;&#208;&#181;&#208;&#179;&#209;&#128;&#208;&#176;&#208;&#188;" clip-path="url(#clip0_0_12)">
<path id="Vector" d="M28.6833 36.3127L36.8738 26.8727L23.5925 35.696L16.8451 33.5113C16.309 33.338 15.7326 32.5802 15.7205 32.0804C15.7004 31.3146 16.1518 30.7422 16.9297 30.4319L42.8957 19.9842C43.4681 19.7544 44.1533 19.6577 44.5967 19.8633C45.0401 20.0688 45.5359 20.9032 45.4714 21.4836L42.9199 44.608C42.8151 45.5632 41.6139 46.3492 40.7393 45.8091L29.2154 38.715C28.502 38.2757 28.0102 37.0947 28.6874 36.3127H28.6833Z" fill="var(--fill-0, white)"/>
<path id="Vector_2" opacity="0.5" d="M64 32C64 49.6707 49.6748 64 32 64C14.3252 64 0 49.6707 0 32C0 14.3293 14.3252 0 32 0C49.6748 0 64 14.3252 64 32ZM60.6908 32C60.6908 16.1552 47.8448 3.30923 32 3.30923C16.1552 3.30923 3.30923 16.1552 3.30923 32C3.30923 47.8448 16.1552 60.6908 32 60.6908C47.8448 60.6908 60.6908 47.8448 60.6908 32Z" fill="var(--fill-0, white)"/>
</g>
<defs>
<clipPath id="clip0_0_12">
<rect width="64" height="64" fill="white"/>
</clipPath>
</defs>
</svg>
